#N canvas 0 0 1009 506 10;
#X declare -path ../hcj.lib;
#X declare -path .;
#X msg 196 239 1;
#X obj 196 220 loadbang;
#X obj 250 548 s lfp1;
#X obj 424 508 s lfp2;
#X obj 536 511 s lfp3;
#X obj 661 513 s lfp4;
#X obj 571 51 declare -path ../hcj.lib;
#X obj 571 71 declare -path .;
#X obj 384 34 / 127;
#X obj 386 92 t f f;
#X obj 386 74 line;
#X msg 385 54 \$1 100;
#X obj 19 254 metro 1200;
#X obj 53 279 metro 1210;
#X obj 123 233 + 1200;
#X obj 177 698 s lfpa;
#X obj 49 22 / 127;
#X obj 99 121 t f f;
#X obj 378 -27 r nk9;
#X msg 32 195 1;
#X obj 32 176 loadbang;
#X obj 191 259 hcj.lib.rocksteady 300 100 2000 200;
#X obj 381 118 * 800;
#X obj 262 2 loadbang;
#X obj 380 -5 - 127;
#X obj 381 14 * -1;
#X obj 382 138 + 30;
#X obj 49 -20 - 127;
#X obj 50 1 * -1;
#X obj 123 213 random 150;
#X obj 103 96 t f f;
#X msg 262 23 0;
#X obj 348 574 s lfp1t;
#X obj 466 508 s lfp2t;
#X obj 578 511 s lfp3t;
#X obj 704 513 s lfp4t;
#X obj 732 160 r nk7;
#X obj 732 187 / 127;
#X obj 733 214 s tempodrift;
#X obj 422 309 spigot;
#X obj 468 309 spigot;
#X obj 517 309 spigot;
#X obj 565 307 spigot;
#X obj 225 310 spigot;
#X obj 301 451 spigot;
#X obj 320 310 spigot;
#X obj 377 312 spigot;
#X obj 571 231 t f;
#X obj 572 210 r nb9-1;
#X obj 34 677 spigot;
#X obj 67 654 r nb9-1;
#X obj 225 146 t b b b b b b b b b;
#X obj 225 126 r nb9-2;
#X obj 178 173 + 1;
#X obj 142 190 t b f;
#X obj 49 62 + 40;
#X obj 49 41 * 2500;
#X obj 88 302 r tempodrift;
#X obj 149 390 * -1;
#X obj 150 330 r nk8;
#X obj 148 369 - 1;
#X obj 148 350 / 127;
#X obj 149 410 * 1000;
#X obj 150 434 + 300;
#X obj 518 417 spigot;
#X obj 564 417 spigot;
#X obj 613 417 spigot;
#X obj 661 415 spigot;
#X obj 416 418 spigot;
#X obj 464 416 spigot;
#X obj 663 332 t f;
#X obj 664 311 r nb6-1;
#X obj 48 413 spigot;
#X obj 70 381 r nb6-1;
#X obj 177 152 * 0.1;
#X obj 33 460 hcj.lib.randdel 1500;
#X obj 65 232 +;
#X obj 96 170 t b f;
#X obj 398 228 +;
#X obj 418 159 t b f;
#X obj 424 138 r \$0-temporand2;
#X obj 75 144 r \$0-temporand1;
#X obj 847 135 s \$0-temporand2;
#X obj 852 39 hcj.lib.randmetro 800 300;
#X obj 386 188 float;
#X obj 65 205 float;
#X obj 741 131 s \$0-temporand1;
#X obj 849 106 *;
#X obj 747 105 *;
#X obj 1048 26 / 127;
#X obj 852 60 random 800;
#X obj 750 62 random 1800;
#X floatatom 968 128 5 0 0 0 - - -;
#X obj 1018 82 line;
#X msg 1041 55 \$1 1000;
#X obj 191 392 s metro1-to-jason;
#X obj 34 345 s metro2-to-jason;
#X obj 164 76 line;
#X msg 163 56 \$1 100;
#X obj 127 275 s lfpat;
#X obj 1048 7 r nk7;
#X obj 46 -44 r nk9;
#X connect 0 0 21 0;
#X connect 1 0 0 0;
#X connect 8 0 11 0;
#X connect 9 0 22 0;
#X connect 10 0 9 0;
#X connect 11 0 10 0;
#X connect 12 0 75 0;
#X connect 12 0 96 0;
#X connect 13 0 72 0;
#X connect 14 0 13 1;
#X connect 16 0 56 0;
#X connect 17 0 85 0;
#X connect 17 1 14 1;
#X connect 18 0 24 0;
#X connect 19 0 12 0;
#X connect 19 0 13 0;
#X connect 20 0 19 0;
#X connect 21 0 43 0;
#X connect 21 0 95 0;
#X connect 21 1 44 0;
#X connect 21 2 45 0;
#X connect 21 3 46 0;
#X connect 21 4 39 0;
#X connect 21 5 40 0;
#X connect 21 6 41 0;
#X connect 21 7 42 0;
#X connect 22 0 26 0;
#X connect 23 0 31 0;
#X connect 24 0 25 0;
#X connect 25 0 8 0;
#X connect 26 0 84 0;
#X connect 27 0 28 0;
#X connect 28 0 16 0;
#X connect 29 0 14 0;
#X connect 30 0 17 0;
#X connect 30 1 74 0;
#X connect 31 0 24 0;
#X connect 31 0 27 0;
#X connect 36 0 37 0;
#X connect 37 0 38 0;
#X connect 39 0 64 0;
#X connect 40 0 65 0;
#X connect 41 0 66 0;
#X connect 42 0 67 0;
#X connect 43 0 2 0;
#X connect 44 0 32 0;
#X connect 45 0 68 0;
#X connect 46 0 69 0;
#X connect 47 0 42 1;
#X connect 47 0 41 1;
#X connect 47 0 40 1;
#X connect 47 0 39 1;
#X connect 47 0 46 1;
#X connect 47 0 45 1;
#X connect 47 0 44 1;
#X connect 47 0 43 1;
#X connect 48 0 47 0;
#X connect 49 0 15 0;
#X connect 50 0 49 1;
#X connect 51 0 15 0;
#X connect 51 1 2 0;
#X connect 51 2 32 0;
#X connect 51 3 3 0;
#X connect 51 4 33 0;
#X connect 51 5 4 0;
#X connect 51 6 34 0;
#X connect 51 7 5 0;
#X connect 51 8 35 0;
#X connect 52 0 51 0;
#X connect 53 0 54 0;
#X connect 54 0 29 0;
#X connect 54 1 29 1;
#X connect 55 0 98 0;
#X connect 56 0 55 0;
#X connect 57 0 75 1;
#X connect 58 0 62 0;
#X connect 59 0 61 0;
#X connect 60 0 58 0;
#X connect 61 0 60 0;
#X connect 62 0 63 0;
#X connect 63 0 75 2;
#X connect 64 0 4 0;
#X connect 65 0 34 0;
#X connect 66 0 5 0;
#X connect 67 0 35 0;
#X connect 68 0 3 0;
#X connect 69 0 33 0;
#X connect 70 0 67 1;
#X connect 70 0 66 1;
#X connect 70 0 65 1;
#X connect 70 0 64 1;
#X connect 70 0 69 1;
#X connect 70 0 68 1;
#X connect 71 0 70 0;
#X connect 72 0 75 0;
#X connect 73 0 72 1;
#X connect 74 0 53 0;
#X connect 75 0 49 0;
#X connect 76 0 12 1;
#X connect 76 0 99 0;
#X connect 77 0 85 0;
#X connect 77 1 76 1;
#X connect 78 0 21 1;
#X connect 79 0 84 0;
#X connect 79 1 78 1;
#X connect 80 0 79 0;
#X connect 81 0 77 0;
#X connect 83 0 90 0;
#X connect 83 0 91 0;
#X connect 84 0 78 0;
#X connect 85 0 76 0;
#X connect 87 0 82 0;
#X connect 87 0 92 0;
#X connect 88 0 86 0;
#X connect 89 0 94 0;
#X connect 90 0 87 0;
#X connect 91 0 88 0;
#X connect 93 0 87 1;
#X connect 93 0 88 1;
#X connect 94 0 93 0;
#X connect 97 0 30 0;
#X connect 98 0 97 0;
#X connect 100 0 89 0;
#X connect 101 0 27 0;
