#N canvas 0 47 663 551 10;
#X declare -path lib;
#X obj 37 493 clip~ -1 1;
#X obj 37 473 max~;
#X obj 244 224 r~ inputs;
#X obj 338 91 s \$0-volume;
#X obj 338 69 / 9;
#X obj 114 515 line~;
#X obj 52 545 *~;
#X obj 114 470 r \$0-volume;
#X obj 114 493 pack 0 4000;
#X obj -143 237 random 8000;
#X obj -143 276 float;
#X obj -143 256 t b f;
#X obj -143 218 loadbang;
#X obj 31 239 random 8000;
#X obj 31 278 float;
#X obj 31 258 t b f;
#X obj 31 221 loadbang;
#X obj 243 247 delwrite~ \$0-delayline 8000;
#X obj -143 298 delread~ \$0-delayline 4000;
#X obj -3 573 outlet~;
#X obj 53 572 outlet~;
#X obj -106 85 declare -path lib;
#X obj -4 546 *~;
#X obj -38 493 clip~ -1 1;
#X obj -38 473 max~;
#X obj 84 350 random 8000;
#X obj 84 389 float;
#X obj 84 369 t b f;
#X obj 84 331 loadbang;
#X obj 258 352 random 8000;
#X obj 258 391 float;
#X obj 258 371 t b f;
#X obj 258 334 loadbang;
#X obj 31 297 delread~ \$0-delayline 6000;
#X obj 84 411 delread~ \$0-delayline 8000;
#X obj 258 410 delread~ \$0-delayline 2000;
#X obj 338 29 r mesh;
#X obj 338 50 route volume;
#X connect 0 0 6 0;
#X connect 1 0 0 0;
#X connect 2 0 17 0;
#X connect 4 0 3 0;
#X connect 5 0 6 1;
#X connect 5 0 22 1;
#X connect 6 0 20 0;
#X connect 7 0 8 0;
#X connect 8 0 5 0;
#X connect 9 0 11 0;
#X connect 10 0 18 0;
#X connect 11 0 10 0;
#X connect 11 1 10 1;
#X connect 12 0 9 0;
#X connect 13 0 15 0;
#X connect 14 0 33 0;
#X connect 15 0 14 0;
#X connect 15 1 14 1;
#X connect 16 0 13 0;
#X connect 18 0 24 0;
#X connect 22 0 19 0;
#X connect 23 0 22 0;
#X connect 24 0 23 0;
#X connect 25 0 27 0;
#X connect 26 0 34 0;
#X connect 27 0 26 0;
#X connect 27 1 26 1;
#X connect 28 0 25 0;
#X connect 29 0 31 0;
#X connect 30 0 35 0;
#X connect 31 0 30 0;
#X connect 31 1 30 1;
#X connect 32 0 29 0;
#X connect 33 0 24 1;
#X connect 34 0 1 0;
#X connect 35 0 1 1;
#X connect 36 0 37 0;
#X connect 37 0 4 0;
