#N canvas 0 44 718 854 10;
#X text 332 26 control groups;
#X obj 23 28 inlet;
#X text 61 28 dump netreceive here;
#X obj 23 71 s pd;
#X obj -64 76 print debug;
#X obj 66 72 s \$0-overtone;
#X obj -48 176 r \$0-overtone;
#X obj -48 196 route all a b c a1 a2 b1 b2 c1 c2;
#X obj -48 223 s overtones;
#X obj -34 245 s oa;
#X obj -2 245 s ob;
#X obj 30 245 s oc;
#X obj 62 245 s oa1;
#X obj 100 245 s oa2;
#X obj 138 245 s ob1;
#X obj 177 245 s ob2;
#X obj 216 245 s oc1;
#X obj 255 245 s oc2;
#X obj 154 72 s synth;
#X obj 220 72 s master;
#X obj 281 72 s grains;
#X obj 349 72 s mesh;
#X obj 23 49 route pd overtone sparklesynth master grains mesh fabric
;
#X obj 415 73 s fabric;
#X connect 1 0 4 0;
#X connect 1 0 22 0;
#X connect 6 0 7 0;
#X connect 7 0 8 0;
#X connect 7 1 9 0;
#X connect 7 2 10 0;
#X connect 7 3 11 0;
#X connect 7 4 12 0;
#X connect 7 5 13 0;
#X connect 7 6 14 0;
#X connect 7 7 15 0;
#X connect 7 8 16 0;
#X connect 7 9 17 0;
#X connect 22 0 3 0;
#X connect 22 1 5 0;
#X connect 22 2 18 0;
#X connect 22 3 19 0;
#X connect 22 4 20 0;
#X connect 22 5 21 0;
#X connect 22 6 23 0;
