#N canvas 909 506 749 478 10;
#X declare -path .;
#X declare -path lib;
#X declare -path lua;
#X declare -path ../data;
#X declare -path ../sounds;
#X obj -22 -242 notein;
#X obj -22 -201 poly 4 1;
#X obj -22 -221 pack 0 0;
#X obj -29 205 outlet~;
#X obj -22 -179 pack 0 0 0;
#X floatatom 46 -109 5 0 0 0 - - -;
#X floatatom 9 -109 5 0 0 0 - - -;
#X obj 239 -64 soundfiler;
#X obj 9 -131 unpack 0 0 0 0;
#X floatatom 85 -109 5 0 0 0 - - -;
#X floatatom 120 -109 5 0 0 0 - - -;
#X text 53 -179 arg: base hz \, c2 range;
#X obj 313 -116 table sparklebuf;
#X msg 239 -85 read -resize 220rhodes.wav sparklebuf;
#X obj 240 -105 loadbang;
#X obj -22 -159 piphz 261.63 220;
#X obj -28 99 hcj.lib.cross~ 1500;
#X obj 46 -90 s sparklehz;
#X obj 315 -213 declare -path .;
#X obj 314 -193 declare -path lib;
#X obj 314 -174 declare -path lua;
#X obj 314 -156 declare -path ../data;
#X obj 314 -136 declare -path ../sounds;
#N canvas 1199 55 631 548 polysines 0;
#X obj 140 47 inlet;
#X obj 155 398 outlet~;
#X obj 183 195 osc~;
#X obj 272 194 osc~;
#X obj 354 193 osc~;
#X obj 461 179 osc~;
#X obj 88 92 r sparklehz;
#X obj 88 113 osc~;
#X obj 274 89 route 1 2 3 4;
#X obj 178 155 unpack 0 0 0;
#X obj 275 164 unpack 0 0 0;
#X obj 354 171 unpack 0 0 0;
#X obj 461 159 unpack 0 0 0;
#X obj 474 206 *~;
#X obj 367 220 *~;
#X obj 285 221 *~;
#X obj 196 222 *~;
#X obj 88 136 *~ 0;
#X obj 170 122 == 0;
#X obj 227 287 *~ 1;
#X obj 226 310 *~ 0.5;
#X obj 217 198 r~ \$0-amp1;
#X obj 306 197 r~ \$0-amp2;
#X obj 388 196 r~ \$0-amp3;
#X obj 495 182 r~ \$0-amp4;
#X obj 170 93 r \$0-monophony;
#X connect 0 0 8 0;
#X connect 2 0 16 0;
#X connect 3 0 15 0;
#X connect 4 0 14 0;
#X connect 5 0 13 0;
#X connect 6 0 7 0;
#X connect 7 0 17 0;
#X connect 8 0 9 0;
#X connect 8 1 10 0;
#X connect 8 2 11 0;
#X connect 8 3 12 0;
#X connect 9 0 2 0;
#X connect 10 0 3 0;
#X connect 11 0 4 0;
#X connect 12 0 5 0;
#X connect 13 0 19 0;
#X connect 14 0 19 0;
#X connect 15 0 19 0;
#X connect 16 0 19 0;
#X connect 17 0 1 0;
#X connect 18 0 19 1;
#X connect 19 0 20 0;
#X connect 20 0 1 0;
#X connect 21 0 16 1;
#X connect 22 0 15 1;
#X connect 23 0 14 1;
#X connect 24 0 13 1;
#X connect 25 0 17 1;
#X connect 25 0 18 0;
#X restore 80 55 pd polysines;
#X obj -59 -132 s \$0-notes;
#X obj -28 25 r \$0-notes;
#N canvas 978 44 782 273 adsr 0;
#X obj 213 73 route 1 2 3 4;
#X obj -47 167 line~;
#X obj 160 169 line~;
#X obj 343 174 line~;
#X obj 500 176 line~;
#X obj -48 143 pack 0 1000;
#X obj 160 147 pack 0 1000;
#X obj 343 150 pack 0 1000;
#X obj 500 153 pack 0 1000;
#X obj -52 71 route 1 2 3 4;
#X obj 391 94 * 10000;
#X obj 28 143 pack 0 0;
#X obj 234 146 pack 0 0;
#X obj 416 151 pack 0 0;
#X obj 574 154 pack 0 0;
#X obj 480 89 * 10000;
#X obj -53 43 inlet;
#X obj 213 46 inlet;
#X obj -46 190 s~ \$0-amp1;
#X obj 160 192 s~ \$0-amp2;
#X obj 343 197 s~ \$0-amp3;
#X obj 503 199 s~ \$0-amp4;
#X obj 480 14 r \$0-attack;
#X obj 391 75 / 9;
#X obj 388 22 r \$0-decay;
#X obj 480 70 / 9;
#X connect 0 0 5 0;
#X connect 0 1 6 0;
#X connect 0 2 7 0;
#X connect 0 3 8 0;
#X connect 1 0 18 0;
#X connect 2 0 19 0;
#X connect 3 0 20 0;
#X connect 4 0 21 0;
#X connect 5 0 1 0;
#X connect 6 0 2 0;
#X connect 7 0 3 0;
#X connect 8 0 4 0;
#X connect 9 0 11 0;
#X connect 9 1 12 0;
#X connect 9 2 13 0;
#X connect 9 3 14 0;
#X connect 10 0 8 1;
#X connect 10 0 7 1;
#X connect 10 0 6 1;
#X connect 10 0 5 1;
#X connect 11 0 1 0;
#X connect 12 0 2 0;
#X connect 13 0 3 0;
#X connect 14 0 4 0;
#X connect 15 0 14 1;
#X connect 15 0 13 1;
#X connect 15 0 12 1;
#X connect 15 0 11 1;
#X connect 16 0 9 0;
#X connect 17 0 0 0;
#X connect 22 0 25 0;
#X connect 23 0 10 0;
#X connect 24 0 23 0;
#X connect 25 0 15 0;
#X restore 108 -132 pd adsr;
#N canvas 987 70 795 303 polyrhodes 0;
#X obj 125 18 inlet;
#X obj 124 233 outlet~;
#X obj 125 37 route 1 2 3 4;
#X obj 286 107 hcj.lib.play sparklebuf;
#X obj 125 105 hcj.lib.play sparklebuf;
#X obj 614 102 hcj.lib.play sparklebuf;
#X obj 447 106 hcj.lib.play sparklebuf;
#X obj 125 86 pip.sparkle.makenote;
#X obj 286 84 pip.sparkle.makenote;
#X obj 447 84 pip.sparkle.makenote;
#X obj 614 81 pip.sparkle.makenote;
#X obj 446 152 *~;
#X obj 614 144 *~;
#X obj 286 153 *~;
#X obj 125 159 *~;
#X obj 146 135 r~ \$0-amp1;
#X obj 300 132 r~ \$0-amp2;
#X obj 461 129 r~ \$0-amp3;
#X obj 630 122 r~ \$0-amp4;
#X connect 0 0 2 0;
#X connect 2 0 7 0;
#X connect 2 1 8 0;
#X connect 2 2 9 0;
#X connect 2 3 10 0;
#X connect 3 0 13 0;
#X connect 4 0 14 0;
#X connect 5 0 12 0;
#X connect 6 0 11 0;
#X connect 7 0 4 0;
#X connect 8 0 3 0;
#X connect 9 0 6 0;
#X connect 10 0 5 0;
#X connect 11 0 1 0;
#X connect 12 0 1 0;
#X connect 13 0 1 0;
#X connect 14 0 1 0;
#X connect 15 0 14 1;
#X connect 16 0 13 1;
#X connect 17 0 11 1;
#X connect 18 0 12 1;
#X restore -28 55 pd polyrhodes \$0;
#X obj 294 8 r synth;
#X obj -15 161 line~;
#X obj -29 183 *~;
#X obj 294 81 s \$0-volume;
#X obj -15 124 r \$0-volume;
#X obj 372 83 s \$0-attack;
#X obj 451 82 s \$0-decay;
#X obj 294 60 / 9;
#X obj -15 142 pack 0 1200;
#X obj 294 28 route volume attack decay crossfade monophonic polyphonic
freq;
#X obj 524 102 s \$0-crossfade;
#X obj 524 82 / 9;
#X obj 554 82 s \$0-monophony;
#X obj 584 60 s \$0-freq;
#X obj 163 76 r \$0-crossfade;
#X obj -52 -89 s \$0-sinenotes;
#X obj 80 31 r \$0-sinenotes;
#X connect 0 0 2 0;
#X connect 0 1 2 1;
#X connect 1 0 4 0;
#X connect 1 1 4 1;
#X connect 1 2 4 2;
#X connect 2 0 1 0;
#X connect 4 0 15 0;
#X connect 5 0 17 0;
#X connect 8 0 6 0;
#X connect 8 1 5 0;
#X connect 8 2 9 0;
#X connect 8 3 10 0;
#X connect 13 0 7 0;
#X connect 14 0 13 0;
#X connect 15 0 24 0;
#X connect 15 1 8 0;
#X connect 15 1 43 0;
#X connect 15 2 26 0;
#X connect 15 3 26 1;
#X connect 16 0 30 0;
#X connect 23 0 16 1;
#X connect 25 0 27 0;
#X connect 27 0 16 0;
#X connect 28 0 37 0;
#X connect 29 0 30 1;
#X connect 30 0 3 0;
#X connect 32 0 36 0;
#X connect 35 0 31 0;
#X connect 36 0 29 0;
#X connect 37 0 35 0;
#X connect 37 1 33 0;
#X connect 37 2 34 0;
#X connect 37 3 39 0;
#X connect 37 4 40 0;
#X connect 37 5 40 0;
#X connect 37 6 41 0;
#X connect 39 0 38 0;
#X connect 42 0 16 2;
#X connect 44 0 23 0;
