#N canvas 105 496 1130 346 10;
#X text 330 48 control groups;
#X obj 23 28 inlet;
#X text 61 28 dump netreceive here;
#X obj 23 71 s pd;
#X obj -64 76 print debug;
#X obj 66 72 s \$0-overtone;
#X obj -48 176 r \$0-overtone;
#X obj -48 196 route all a b c a1 a2 b1 b2 c1 c2;
#X obj -48 223 s overtones;
#X obj -34 245 s oa;
#X obj -2 245 s ob;
#X obj 30 245 s oc;
#X obj 62 245 s oa1;
#X obj 100 245 s oa2;
#X obj 138 245 s ob1;
#X obj 177 245 s ob2;
#X obj 216 245 s oc1;
#X obj 255 245 s oc2;
#X obj 154 72 s synth;
#X obj 423 118 r sparklehz;
#X obj 423 140 list prepend freq;
#X obj 423 160 route list;
#X obj 23 49 route pd overtone sparklesynth master grains mesh;
#X obj 220 72 s master;
#X obj 281 72 s grains;
#X obj 349 72 s mesh;
#X obj 423 197 spigot;
#X obj 511 170 tgl 15 0 empty empty empty 17 7 0 10 -262144 -1 -1 1
1;
#X obj 546 141 r oahz-toggle;
#X obj 645 118 r sparklehz;
#X obj 645 140 list prepend freq;
#X obj 645 160 route list;
#X obj 645 197 spigot;
#X obj 733 170 tgl 15 0 empty empty empty 17 7 0 10 -262144 -1 -1 0
1;
#X obj 860 119 r sparklehz;
#X obj 860 141 list prepend freq;
#X obj 860 161 route list;
#X obj 860 198 spigot;
#X obj 948 171 tgl 15 0 empty empty empty 17 7 0 10 -262144 -1 -1 0
1;
#X obj 768 141 r obhz-toggle;
#X obj 983 142 r ochz-toggle;
#X obj 860 222 s oc;
#X obj 645 222 s ob;
#X obj 423 221 s oa;
#X obj 361 223 print oa;
#X obj 578 222 print ob;
#X obj 798 224 print oc;
#X connect 1 0 4 0;
#X connect 1 0 22 0;
#X connect 6 0 7 0;
#X connect 7 0 8 0;
#X connect 7 1 9 0;
#X connect 7 2 10 0;
#X connect 7 3 11 0;
#X connect 7 4 12 0;
#X connect 7 5 13 0;
#X connect 7 6 14 0;
#X connect 7 7 15 0;
#X connect 7 8 16 0;
#X connect 7 9 17 0;
#X connect 19 0 20 0;
#X connect 20 0 21 0;
#X connect 21 0 26 0;
#X connect 22 0 3 0;
#X connect 22 1 5 0;
#X connect 22 2 18 0;
#X connect 22 3 23 0;
#X connect 22 4 24 0;
#X connect 22 5 25 0;
#X connect 26 0 43 0;
#X connect 26 0 44 0;
#X connect 27 0 26 1;
#X connect 28 0 27 0;
#X connect 29 0 30 0;
#X connect 30 0 31 0;
#X connect 31 0 32 0;
#X connect 32 0 42 0;
#X connect 32 0 45 0;
#X connect 33 0 32 1;
#X connect 34 0 35 0;
#X connect 35 0 36 0;
#X connect 36 0 37 0;
#X connect 37 0 41 0;
#X connect 37 0 46 0;
#X connect 38 0 37 1;
#X connect 39 0 33 0;
#X connect 40 0 38 0;
