#N canvas 1117 83 777 590 10;
#X declare -path .;
#X declare -path lib;
#X declare -path lua;
#X declare -path ../data;
#X declare -path ../sounds;
#X obj 213 134 pip.patterns 2000 3;
#X obj 464 137 pip.patterns 2000 2;
#X obj 274 49 r pip_metro_speed;
#X obj 213 22 r pip_metro_bang;
#X obj 213 46 t b b;
#X obj 537 108 + 1;
#X obj 506 52 r pip_metro_speed;
#X obj 464 26 r pip_metro_bang;
#X obj 464 51 t b b;
#X obj 319 112 + 1;
#X obj 374 94 random 16;
#X obj 374 114 + 1;
#X obj 603 89 random 16;
#X obj 603 107 + 1;
#X obj 537 89 random 8;
#X obj 319 93 random 8;
#X obj 213 154 pipscrub 264600;
#X obj 464 156 pipscrub 264600;
#X obj 18 89 declare -path .;
#X obj 17 109 declare -path lib;
#X obj 17 128 declare -path lua;
#X obj 17 146 declare -path ../data;
#X obj 17 166 declare -path ../sounds;
#X obj 19 26 inlet~;
#X obj 213 196 outlet~;
#X obj 464 199 outlet~;
#X obj 19 46 s~ \$0-input;
#X obj 18 256 hcj.lib.overdub~ \$0-resamp-1 264600 0.8 \$0-dub-1 \$0-clear-1
;
#X obj 19 236 r~ \$0-input;
#X obj 213 173 tabplay~ \$0-resamp-1;
#X obj 464 176 tabplay~ \$0-resamp-1;
#X obj 602 436 s \$0-dub-1;
#X obj 640 414 s \$0-clear-1;
#X obj 640 357 timer;
#X obj 640 317 select 1;
#X obj 640 337 t b b;
#X obj 640 376 < 300;
#X obj 640 395 select 1;
#X obj 603 259 inlet;
#X connect 0 0 16 0;
#X connect 1 0 17 0;
#X connect 2 0 0 1;
#X connect 3 0 4 0;
#X connect 4 0 0 0;
#X connect 4 1 15 0;
#X connect 4 1 10 0;
#X connect 5 0 1 2;
#X connect 6 0 1 1;
#X connect 7 0 8 0;
#X connect 8 0 1 0;
#X connect 8 1 14 0;
#X connect 8 1 12 0;
#X connect 9 0 0 2;
#X connect 10 0 11 0;
#X connect 11 0 0 3;
#X connect 12 0 13 0;
#X connect 13 0 1 3;
#X connect 14 0 5 0;
#X connect 15 0 9 0;
#X connect 16 0 29 0;
#X connect 17 0 30 0;
#X connect 23 0 26 0;
#X connect 28 0 27 0;
#X connect 29 0 24 0;
#X connect 30 0 25 0;
#X connect 33 0 36 0;
#X connect 34 0 35 0;
#X connect 35 0 33 0;
#X connect 35 1 33 1;
#X connect 36 0 37 0;
#X connect 37 0 32 0;
#X connect 38 0 34 0;
#X connect 38 0 31 0;
