#N canvas 84 251 984 575 10;
#X declare -path ../hcj.lib;
#X obj 326 189 r noise;
#X obj 167 188 r driftspeed;
#X obj 247 189 r driftwidth;
#X obj 76 145 t b b;
#X obj 98 217 pip.tabledrifter 550 0.2 0.5;
#X obj 97 275 outlet~;
#X obj 74 168 hcj.lib.wavejuggle16 drift-\$1-\$2 partials-\$1-\$2;
#X obj 173 115 r tonic-\$1;
#X obj 76 125 r start-\$1-\$2;
#X obj 253 245 s start-\$1-\$2;
#X obj 640 179 s partials-\$1-\$2;
#X obj 674 16 loadbang;
#X obj 640 153 pack 0 0;
#X obj 636 118 + 1;
#X obj 740 95 random 100;
#X obj 740 118 / 100;
#X obj 675 64 t b b;
#X obj 242 115 inlet;
#X obj 674 39 metro 1;
#X obj 173 145 spigot 1;
#X obj 636 96 random 8;
#X connect 0 0 4 4;
#X connect 1 0 4 2;
#X connect 2 0 4 3;
#X connect 3 0 6 0;
#X connect 4 0 5 0;
#X connect 4 1 9 0;
#X connect 6 0 4 0;
#X connect 7 0 19 0;
#X connect 8 0 3 0;
#X connect 11 0 18 0;
#X connect 12 0 10 0;
#X connect 13 0 12 0;
#X connect 14 0 15 0;
#X connect 15 0 12 1;
#X connect 16 0 20 0;
#X connect 16 1 14 0;
#X connect 17 0 4 5;
#X connect 17 0 19 1;
#X connect 18 0 16 0;
#X connect 19 0 4 1;
#X connect 20 0 13 0;
