#N canvas 0 0 895 704 10;
#X obj 267 325 / 2;
#X obj 199 253 *;
#X obj 189 195 t f b;
#X obj 65 347 metro;
#X obj 217 348 metro;
#X obj 347 348 metro;
#X obj 214 215 random 3;
#X obj 214 233 + 3;
#X obj 189 176 / 8;
#X obj 385 321 / 3;
#X obj 64 323 r resamp-on;
#X obj 182 323 r resamp-on;
#X obj 304 325 r resamp-on;
#X obj 85 461 tabplay~ \$1;
#X obj 239 463 tabplay~ \$1;
#X obj 372 465 tabplay~ \$1;
#X obj 153 578 outlet~;
#X obj 299 581 outlet~;
#X obj 104 501 *~ 0.6;
#X obj 189 147 inlet;
#X obj 372 437 random 44100;
#X obj 243 419 random 44100;
#X obj 60 390 random 44100;
#X connect 0 0 4 1;
#X connect 1 0 3 1;
#X connect 1 0 0 0;
#X connect 1 0 9 0;
#X connect 2 0 1 0;
#X connect 2 1 6 0;
#X connect 3 0 22 0;
#X connect 4 0 21 0;
#X connect 5 0 20 0;
#X connect 6 0 7 0;
#X connect 7 0 1 1;
#X connect 8 0 2 0;
#X connect 9 0 5 1;
#X connect 10 0 3 0;
#X connect 11 0 4 0;
#X connect 12 0 5 0;
#X connect 13 0 18 0;
#X connect 14 0 16 0;
#X connect 15 0 17 0;
#X connect 18 0 16 0;
#X connect 18 0 17 0;
#X connect 19 0 8 0;
#X connect 20 0 15 0;
#X connect 21 0 14 0;
#X connect 22 0 13 0;
