#N canvas 576 116 1189 704 10;
#X obj 36 31 unpackOSC;
#X obj 36 10 udpreceive 8000;
#X obj 75 51 print osc;
#X obj 37 50 s osc;
#X obj 51 186 r osc;
#X obj 45 245 * 9;
#X obj 45 265 list prepend volume;
#X obj 45 284 route list;
#X obj 45 304 s synth;
#X obj 314 245 * 9;
#X obj 314 284 route list;
#X obj 314 304 s synth;
#X obj 314 265 list prepend resampler;
#X obj 51 210 route /1/fader1 /1/fader2 /1/fader3;
#X obj 172 245 * 9;
#X obj 172 284 route list;
#X obj 172 304 s synth;
#X obj 172 265 list prepend crossfade;
#X obj 45 336 r osc;
#X obj 45 356 route /1/toggle4;
#X obj 45 396 route list;
#X obj 45 416 s synth;
#X obj 45 377 list prepend monophonic;
#X obj 56 475 r osc;
#X obj 55 519 * 9;
#X obj 54 561 route list;
#X obj 182 519 * 9;
#X obj 182 562 route list;
#X obj 55 541 list prepend volume;
#X obj 182 541 list prepend volume;
#X obj 54 581 s oa;
#X obj 182 582 s ob;
#X obj 56 499 route /3/fader5 /3/fader6 /3/fader4;
#X obj 309 519 * 9;
#X obj 309 562 route list;
#X obj 309 541 list prepend noise;
#X obj 309 582 s overtones;
#X obj 474 196 pack 0 0 0 0 0 0 0 0 0 0;
#X obj 474 214 list prepend partials;
#X obj 474 250 s oa;
#X obj 474 232 route list;
#X obj 474 80 route /3/multitoggle2/2/1 /3/multitoggle2/2/2 /3/multitoggle2/2/3
/3/multitoggle2/2/4 /3/multitoggle2/2/5 /3/multitoggle2/2/6 /3/multitoggle2/2/7
/3/multitoggle2/2/8 /3/multitoggle2/2/9 /3/multitoggle2/2/10;
#X obj 474 60 r osc;
#X obj 705 357 pack 0 0 0 0 0 0 0 0 0 0;
#X obj 705 375 list prepend partials;
#X obj 705 393 route list;
#X obj 705 221 r osc;
#X obj 705 241 route /3/multitoggle2/1/1 /3/multitoggle2/1/2 /3/multitoggle2/1/3
/3/multitoggle2/1/4 /3/multitoggle2/1/5 /3/multitoggle2/1/6 /3/multitoggle2/1/7
/3/multitoggle2/1/8 /3/multitoggle2/1/9 /3/multitoggle2/1/10;
#X obj 705 411 s ob;
#X obj 516 454 r osc;
#X obj 516 590 route list;
#X obj 516 473 route /3/fader7 /3/fader8;
#X obj 516 570 list prepend drift;
#X obj 516 610 s overtones;
#X obj 516 550 pack 0 0;
#X obj 516 516 t b f;
#X obj 589 516 t b f;
#X obj 516 494 * 10;
#X obj 678 324 int 0;
#X obj 607 253 r osc;
#X obj 607 272 route /3/push1;
#X obj 607 291 select 1;
#X obj 447 158 int 0;
#X obj 376 87 r osc;
#X obj 376 106 route /3/push1;
#X obj 376 125 select 1;
#X obj 218 334 r osc;
#X obj 218 402 route list;
#X obj 218 422 s synth;
#X obj 218 383 list prepend attack;
#X obj 368 435 route list;
#X obj 368 455 s synth;
#X obj 368 416 list prepend decay;
#X obj 218 354 route /1/fader5 /1/fader6;
#X obj 361 388 * 100000;
#X connect 0 0 2 0;
#X connect 0 0 3 0;
#X connect 1 0 0 0;
#X connect 4 0 13 0;
#X connect 5 0 6 0;
#X connect 6 0 7 0;
#X connect 7 0 8 0;
#X connect 9 0 12 0;
#X connect 10 0 11 0;
#X connect 12 0 10 0;
#X connect 13 0 5 0;
#X connect 13 1 14 0;
#X connect 13 2 9 0;
#X connect 14 0 17 0;
#X connect 15 0 16 0;
#X connect 17 0 15 0;
#X connect 18 0 19 0;
#X connect 19 0 22 0;
#X connect 20 0 21 0;
#X connect 22 0 20 0;
#X connect 23 0 32 0;
#X connect 24 0 28 0;
#X connect 25 0 30 0;
#X connect 26 0 29 0;
#X connect 27 0 31 0;
#X connect 28 0 25 0;
#X connect 29 0 27 0;
#X connect 32 0 24 0;
#X connect 32 1 26 0;
#X connect 32 2 33 0;
#X connect 33 0 35 0;
#X connect 34 0 36 0;
#X connect 35 0 34 0;
#X connect 37 0 38 0;
#X connect 38 0 40 0;
#X connect 40 0 39 0;
#X connect 41 0 62 1;
#X connect 41 1 37 1;
#X connect 41 2 37 2;
#X connect 41 3 37 3;
#X connect 41 4 37 4;
#X connect 41 5 37 5;
#X connect 41 6 37 6;
#X connect 41 7 37 7;
#X connect 41 8 37 8;
#X connect 41 9 37 9;
#X connect 42 0 41 0;
#X connect 43 0 44 0;
#X connect 44 0 45 0;
#X connect 45 0 48 0;
#X connect 46 0 47 0;
#X connect 47 0 58 1;
#X connect 47 1 43 1;
#X connect 47 2 43 2;
#X connect 47 3 43 3;
#X connect 47 4 43 4;
#X connect 47 5 43 5;
#X connect 47 6 43 6;
#X connect 47 7 43 7;
#X connect 47 8 43 8;
#X connect 47 9 43 9;
#X connect 49 0 51 0;
#X connect 50 0 53 0;
#X connect 51 0 57 0;
#X connect 51 1 56 0;
#X connect 52 0 50 0;
#X connect 54 0 52 0;
#X connect 55 0 54 0;
#X connect 55 1 54 0;
#X connect 56 0 54 0;
#X connect 56 1 54 1;
#X connect 57 0 55 0;
#X connect 58 0 43 0;
#X connect 59 0 60 0;
#X connect 60 0 61 0;
#X connect 61 0 58 0;
#X connect 62 0 37 0;
#X connect 63 0 64 0;
#X connect 64 0 65 0;
#X connect 65 0 62 0;
#X connect 66 0 73 0;
#X connect 67 0 68 0;
#X connect 69 0 67 0;
#X connect 70 0 71 0;
#X connect 72 0 70 0;
#X connect 73 0 69 0;
#X connect 73 1 74 0;
#X connect 74 0 72 0;
