#N canvas 0 47 958 1031 10;
#X declare -path .;
#X declare -path lib;
#X declare -path lua;
#X declare -path ../data;
#X declare -path ../sounds;
#X obj 213 134 pip.patterns 2000 3;
#X obj 464 137 pip.patterns 2000 2;
#X obj 213 46 t b b;
#X obj 537 108 + 1;
#X obj 464 51 t b b;
#X obj 319 112 + 1;
#X obj 374 94 random 16;
#X obj 374 114 + 1;
#X obj 603 89 random 16;
#X obj 603 107 + 1;
#X obj 537 89 random 8;
#X obj 319 93 random 8;
#X obj 213 154 pipscrub 264600;
#X obj 464 156 pipscrub 264600;
#X obj 18 89 declare -path .;
#X obj 17 109 declare -path lib;
#X obj 17 128 declare -path lua;
#X obj 17 146 declare -path ../data;
#X obj 17 166 declare -path ../sounds;
#X obj 19 26 inlet~;
#X obj 214 279 outlet~;
#X obj 19 46 s~ \$0-input;
#X obj 23 415 r~ \$0-input;
#X obj 213 173 tabplay~ \$0-resamp-1;
#X obj 464 176 tabplay~ \$0-resamp-1;
#X obj 688 205 s \$0-dub-1;
#X obj 726 183 s \$0-clear-1;
#X obj 726 126 timer;
#X obj 726 86 select 1;
#X obj 726 106 t b b;
#X obj 726 145 < 300;
#X obj 726 164 select 1;
#X obj 689 28 inlet;
#X obj 227 234 line~;
#X obj 213 256 *~;
#X obj 227 197 r \$0-volume;
#X obj 227 215 pack 0 1200;
#X obj 467 282 outlet~;
#X obj 480 237 line~;
#X obj 466 259 *~;
#X obj 480 200 r \$0-volume;
#X obj 16 351 s \$0-volume;
#X obj 16 289 r synth;
#X obj 16 330 / 9;
#X obj 103 373 /;
#X obj 103 354 float 60000;
#X obj 103 334 t b f;
#X obj 103 394 s \$0-tempoms;
#X obj 464 26 r \$0-click;
#X obj 213 22 r \$0-click;
#X obj 647 423 loadbang;
#X obj 647 464 s \$0-click;
#X obj 650 256 r \$0-tempoms;
#X obj 22 435 hcj.lib.overdub~ \$0-resamp-1 264600 1 \$0-dub-1 \$0-clear-1
;
#X obj 584 464 s \$0-delf;
#X obj 567 279 r \$0-delf;
#X obj 189 372 /;
#X obj 189 353 float 60000;
#X obj 189 333 t b f;
#X obj 189 393 s \$0-tempolowms;
#X obj 758 312 r \$0-tempolowms;
#X obj 829 526 print tempobpm;
#X obj 825 455 t b f;
#X obj 825 474 float 60000;
#X obj 825 494 /;
#X obj 650 277 t b f;
#X obj 647 442 metro 1000;
#X obj 224 111 * 4;
#X obj 444 113 * 4;
#X obj 731 454 s \$0-rtempoms;
#X obj 224 91 r \$0-rtempoms;
#X obj 445 91 r \$0-rtempoms;
#X obj 567 317 random 1000;
#X obj 567 338 / 1000;
#X obj 758 362 -;
#X obj 731 423 + 0;
#X obj 758 332 t b f f;
#X obj 731 387 * 100;
#X obj 480 218 pack 0 4000;
#X obj 320 379 s \$0-dub-1;
#X obj 16 310 route resampler tempo tempolow capture clear;
#X obj 335 356 s \$0-clear-1;
#X obj 335 336 select 1;
#X connect 0 0 12 0;
#X connect 1 0 13 0;
#X connect 2 0 0 0;
#X connect 2 1 11 0;
#X connect 2 1 6 0;
#X connect 3 0 1 2;
#X connect 4 0 1 0;
#X connect 4 1 10 0;
#X connect 4 1 8 0;
#X connect 5 0 0 2;
#X connect 6 0 7 0;
#X connect 7 0 0 3;
#X connect 8 0 9 0;
#X connect 9 0 1 3;
#X connect 10 0 3 0;
#X connect 11 0 5 0;
#X connect 12 0 23 0;
#X connect 13 0 24 0;
#X connect 19 0 21 0;
#X connect 22 0 53 0;
#X connect 23 0 34 0;
#X connect 24 0 39 0;
#X connect 27 0 30 0;
#X connect 28 0 29 0;
#X connect 29 0 27 0;
#X connect 29 1 27 1;
#X connect 30 0 31 0;
#X connect 31 0 26 0;
#X connect 32 0 28 0;
#X connect 32 0 25 0;
#X connect 33 0 34 1;
#X connect 34 0 20 0;
#X connect 35 0 36 0;
#X connect 36 0 33 0;
#X connect 38 0 39 1;
#X connect 39 0 37 0;
#X connect 40 0 78 0;
#X connect 42 0 80 0;
#X connect 43 0 41 0;
#X connect 44 0 47 0;
#X connect 45 0 44 0;
#X connect 46 0 45 0;
#X connect 46 1 44 1;
#X connect 48 0 4 0;
#X connect 49 0 2 0;
#X connect 50 0 66 0;
#X connect 52 0 65 0;
#X connect 55 0 72 0;
#X connect 56 0 59 0;
#X connect 57 0 56 0;
#X connect 58 0 57 0;
#X connect 58 1 56 1;
#X connect 60 0 76 0;
#X connect 62 0 63 0;
#X connect 62 1 64 1;
#X connect 63 0 64 0;
#X connect 65 0 72 0;
#X connect 65 1 74 0;
#X connect 66 0 51 0;
#X connect 66 0 54 0;
#X connect 67 0 0 1;
#X connect 68 0 1 1;
#X connect 70 0 67 0;
#X connect 71 0 68 0;
#X connect 72 0 73 0;
#X connect 73 0 77 0;
#X connect 74 0 77 1;
#X connect 75 0 62 0;
#X connect 75 0 66 1;
#X connect 75 0 69 0;
#X connect 76 0 74 0;
#X connect 76 1 74 1;
#X connect 76 2 75 1;
#X connect 77 0 75 0;
#X connect 78 0 38 0;
#X connect 80 0 43 0;
#X connect 80 1 46 0;
#X connect 80 2 58 0;
#X connect 80 3 79 0;
#X connect 80 4 82 0;
#X connect 82 0 81 0;
