#N canvas 141 22 1189 704 10;
#X obj 36 31 unpackOSC;
#X obj 36 10 udpreceive 8000;
#X obj 75 51 print osc;
#X obj 37 50 s osc;
#X obj 51 186 r osc;
#X obj 45 245 * 9;
#X obj 45 265 list prepend volume;
#X obj 45 284 route list;
#X obj 45 304 s synth;
#X obj 314 245 * 9;
#X obj 314 284 route list;
#X obj 314 304 s synth;
#X obj 314 265 list prepend resampler;
#X obj 172 245 * 9;
#X obj 172 284 route list;
#X obj 172 304 s synth;
#X obj 172 265 list prepend crossfade;
#X obj 45 336 r osc;
#X obj 45 356 route /1/toggle4;
#X obj 45 396 route list;
#X obj 45 416 s synth;
#X obj 45 377 list prepend monophonic;
#X obj 56 475 r osc;
#X obj 55 544 * 9;
#X obj 54 586 route list;
#X obj 182 544 * 9;
#X obj 182 587 route list;
#X obj 55 566 list prepend volume;
#X obj 182 565 list prepend volume;
#X obj 54 606 s oa;
#X obj 182 607 s ob;
#X obj 464 543 * 9;
#X obj 464 587 route list;
#X obj 464 566 list prepend noise;
#X obj 464 607 s overtones;
#X obj 1002 374 r osc;
#X obj 1005 502 route list;
#X obj 1005 482 list prepend drift;
#X obj 1005 522 s overtones;
#X obj 1002 414 * 10;
#X obj 560 178 route list;
#X obj 560 198 s synth;
#X obj 560 159 list prepend attack;
#X obj 720 179 route list;
#X obj 720 199 s synth;
#X obj 720 160 list prepend decay;
#X obj 51 210 route /1/fader2 /1/fader0 /1/fader3;
#X obj 56 499 route /1/fader4 /1/fader5 /1/fader6 /1/fader8;
#X obj 308 543 * 9;
#X obj 308 586 route list;
#X obj 308 564 list prepend volume;
#X obj 308 606 s oc;
#X obj 624 477 r osc;
#X obj 624 496 route /1/push1;
#X obj 624 564 s synth;
#X obj 624 515 list prepend capture;
#X obj 624 538 route list;
#X obj 762 477 r osc;
#X obj 762 564 s synth;
#X obj 762 538 route list;
#X obj 762 496 route /1/push2;
#X obj 762 515 list prepend clear;
#X msg 1000 447 \$1 0.3;
#X obj 944 533 print;
#X obj 1002 393 route /1/fader7;
#X obj 626 240 r osc;
#X obj 626 259 route /1/toggle1;
#X obj 626 282 s oahz-toggle;
#X obj 733 240 r osc;
#X obj 844 240 r osc;
#X obj 733 259 route /1/toggle2;
#X obj 844 259 route /1/toggle3;
#X obj 733 282 s obhz-toggle;
#X obj 844 282 s ochz-toggle;
#X obj 574 35 r osc;
#X obj 574 58 route /1/toggle4;
#X obj 554 88 select 0;
#X obj 622 89 select 1;
#X msg 557 120 0;
#X obj 737 40 r osc;
#X obj 717 93 select 0;
#X obj 785 94 select 1;
#X msg 720 125 0;
#X obj 737 63 route /1/toggle5;
#X msg 785 120 10;
#X msg 622 115 10;
#X connect 0 0 2 0;
#X connect 0 0 3 0;
#X connect 1 0 0 0;
#X connect 4 0 46 0;
#X connect 5 0 6 0;
#X connect 6 0 7 0;
#X connect 7 0 8 0;
#X connect 9 0 12 0;
#X connect 10 0 11 0;
#X connect 12 0 10 0;
#X connect 13 0 16 0;
#X connect 14 0 15 0;
#X connect 16 0 14 0;
#X connect 17 0 18 0;
#X connect 18 0 21 0;
#X connect 19 0 20 0;
#X connect 21 0 19 0;
#X connect 22 0 47 0;
#X connect 23 0 27 0;
#X connect 24 0 29 0;
#X connect 25 0 28 0;
#X connect 26 0 30 0;
#X connect 27 0 24 0;
#X connect 28 0 26 0;
#X connect 31 0 33 0;
#X connect 32 0 34 0;
#X connect 33 0 32 0;
#X connect 35 0 64 0;
#X connect 36 0 38 0;
#X connect 36 0 63 0;
#X connect 37 0 36 0;
#X connect 39 0 62 0;
#X connect 40 0 41 0;
#X connect 42 0 40 0;
#X connect 43 0 44 0;
#X connect 45 0 43 0;
#X connect 46 0 5 0;
#X connect 46 1 13 0;
#X connect 46 2 9 0;
#X connect 47 0 23 0;
#X connect 47 1 25 0;
#X connect 47 2 48 0;
#X connect 47 3 31 0;
#X connect 48 0 50 0;
#X connect 49 0 51 0;
#X connect 50 0 49 0;
#X connect 52 0 53 0;
#X connect 53 0 55 0;
#X connect 55 0 56 0;
#X connect 56 0 54 0;
#X connect 57 0 60 0;
#X connect 59 0 58 0;
#X connect 60 0 61 0;
#X connect 61 0 59 0;
#X connect 62 0 37 0;
#X connect 64 0 39 0;
#X connect 65 0 66 0;
#X connect 66 0 67 0;
#X connect 68 0 70 0;
#X connect 69 0 71 0;
#X connect 70 0 72 0;
#X connect 71 0 73 0;
#X connect 74 0 75 0;
#X connect 75 0 76 0;
#X connect 75 0 77 0;
#X connect 76 0 78 0;
#X connect 77 0 85 0;
#X connect 78 0 42 0;
#X connect 79 0 83 0;
#X connect 80 0 82 0;
#X connect 81 0 84 0;
#X connect 82 0 45 0;
#X connect 83 0 80 0;
#X connect 83 0 81 0;
#X connect 84 0 45 0;
#X connect 85 0 42 0;
