#N canvas 82 51 837 410 10;
#X obj 156 223 *~;
#X obj 90 193 hip~ 20000;
#X obj 93 172 noise~;
#X obj 46 152 r~ master-noise;
#X obj 47 173 *~ 1.5;
#X obj 151 31 r lfpa;
#X obj 568 179 / 127;
#X msg 568 198 \$1 3000;
#X obj 568 220 line~;
#X obj 568 159 r nf8;
#X obj 161 320 *~;
#X obj 569 238 *~ 0.35;
#X obj 160 346 outlet~;
#X obj 316 155 hcj.lib.mask 4;
#X obj 237 28 r lfp1;
#X obj 147 156 pip.clickadsr;
#X obj 261 223 *~;
#X obj 245 192 hip~ 18000;
#X obj 322 191 pip.clickadsr;
#X obj 391 340 outlet~;
#X obj 395 316 *~;
#X obj 399 228 *~;
#X obj 460 196 pip.clickadsr;
#X obj 446 167 hcj.lib.mask 5;
#X obj 152 72 spigot;
#X obj 304 33 == 0;
#X obj 295 7 r nb8-1;
#X obj 238 68 spigot;
#X obj 147 136 hcj.lib.mask 2;
#X obj 244 109 t b b b;
#X obj 371 9 loadbang;
#X msg 371 29 0;
#X obj 434 78 r nb8-2;
#X obj 433 101 t b b b;
#X connect 0 0 10 0;
#X connect 0 0 20 0;
#X connect 1 0 0 0;
#X connect 2 0 1 0;
#X connect 2 0 17 0;
#X connect 3 0 4 0;
#X connect 4 0 1 0;
#X connect 5 0 24 0;
#X connect 6 0 7 0;
#X connect 7 0 8 0;
#X connect 8 0 11 0;
#X connect 9 0 6 0;
#X connect 10 0 12 0;
#X connect 11 0 10 1;
#X connect 11 0 20 1;
#X connect 13 0 18 0;
#X connect 14 0 27 0;
#X connect 15 0 0 1;
#X connect 16 0 10 0;
#X connect 17 0 16 0;
#X connect 17 0 21 0;
#X connect 18 0 16 1;
#X connect 20 0 19 0;
#X connect 21 0 20 0;
#X connect 22 0 21 1;
#X connect 23 0 22 0;
#X connect 24 0 29 0;
#X connect 25 0 24 1;
#X connect 26 0 25 0;
#X connect 26 0 27 1;
#X connect 27 0 29 0;
#X connect 28 0 15 0;
#X connect 29 0 28 0;
#X connect 29 1 13 0;
#X connect 29 2 23 0;
#X connect 30 0 31 0;
#X connect 31 0 25 0;
#X connect 31 0 27 1;
#X connect 32 0 33 0;
#X connect 33 0 15 0;
#X connect 33 1 18 0;
#X connect 33 2 22 0;
