#N canvas 0 14 1009 506 10;
#X obj 213 455 adsr~;
#X msg 528 307 set_r \$1;
#X msg 211 331 set_d \$1;
#X msg 299 324 set_s \$1;
#X msg 682 337 set_gain1 \$1;
#X msg 771 335 set_gain2 \$1;
#X obj 774 240 random 100;
#X obj 774 260 / 100;
#X obj 694 236 random 100;
#X obj 694 259 / 100;
#X obj 692 301 + 0.6;
#X obj 693 281 * 0.3;
#X obj 54 74 t b b b b b b b;
#X obj 54 51 inlet;
#X obj 214 483 outlet~;
#X msg 57 317 set_a \$1;
#X obj 57 295 + 3;
#X obj 59 274 random 10;
#X obj 211 307 + 2;
#X obj 299 301 + 2;
#X obj 209 259 random 40;
#X obj 300 257 random 40;
#X obj 528 287 + 1;
#X obj 528 267 random 150;
#X obj 772 302 + 0.01;
#X obj 773 282 * 0.08;
#X obj 573 73 inlet;
#X obj 573 95 / 127;
#X obj 574 142 + 40;
#X obj 573 115 * 1000;
#X connect 0 0 14 0;
#X connect 1 0 0 0;
#X connect 2 0 0 0;
#X connect 3 0 0 0;
#X connect 4 0 0 0;
#X connect 5 0 0 0;
#X connect 6 0 7 0;
#X connect 7 0 25 0;
#X connect 8 0 9 0;
#X connect 9 0 11 0;
#X connect 10 0 4 0;
#X connect 11 0 10 0;
#X connect 12 0 0 0;
#X connect 12 1 23 0;
#X connect 12 2 20 0;
#X connect 12 3 21 0;
#X connect 12 4 8 0;
#X connect 12 5 6 0;
#X connect 12 6 17 0;
#X connect 13 0 12 0;
#X connect 15 0 0 0;
#X connect 16 0 15 0;
#X connect 17 0 16 0;
#X connect 18 0 2 0;
#X connect 19 0 3 0;
#X connect 20 0 18 0;
#X connect 21 0 19 0;
#X connect 22 0 1 0;
#X connect 23 0 22 0;
#X connect 24 0 5 0;
#X connect 25 0 24 0;
#X connect 26 0 27 0;
#X connect 27 0 29 0;
#X connect 28 0 21 1;
#X connect 28 0 20 1;
#X connect 29 0 28 0;
