#N canvas 665 270 940 509 10;
#X obj 81 415 outlet~;
#X obj 80 392 *~;
#X obj 440 420 outlet~;
#X obj 439 397 *~;
#X obj 687 182 inlet;
#X msg 710 271 \$1 3000;
#X obj 709 293 line~;
#X obj 696 221 / 127;
#X obj 328 266 hcj.lib.grain2~ \$1;
#X obj 460 264 hcj.lib.grain2~ \$1;
#X connect 1 0 0 0;
#X connect 3 0 2 0;
#X connect 4 0 7 0;
#X connect 5 0 6 0;
#X connect 6 0 3 1;
#X connect 6 0 1 1;
#X connect 7 0 5 0;
#X connect 8 0 1 0;
#X connect 9 0 3 0;
