#N canvas 32 0 992 502 10;
#X declare -path ../hcj.lib;
#X obj 809 22 declare -path ../hcj.lib;
#X obj 48 501 outlet~;
#X obj 508 533 outlet~;
#X obj 457 34 inlet;
#X text 51 33 inlets: p1 offset \, p2 offset \, p3 offset \, auto on/off
\, speed;
#X obj 24 216 *~ 0.8;
#X obj 575 188 *~ 0.8;
#X obj 802 123 loadbang;
#X obj 614 267 delwrite~ \$0-delaylineR 8000;
#X obj 372 94 loadbang;
#X obj 798 237 delread~ \$0-delaylineL 8000;
#X obj 49 251 delwrite~ \$0-delaylineL 8000;
#X obj 798 262 loadbang;
#X obj 369 291 loadbang;
#X obj 368 370 delread~ \$0-delaylineL 8000;
#X obj 370 231 delread~ \$0-delaylineR 4000;
#X obj 792 388 delread~ \$0-delaylineR 4000;
#X obj 457 59 unpack 1 1 1 1;
#X obj 15 96 hcj.lib.sample resampler;
#X obj 272 149 r nk7;
#X obj 272 169 / 127;
#X obj 76 58 r lfp1t-clean;
#X obj 303 64 r lfp1t-clean;
#X obj 674 74 r lfp1t-clean;
#X obj 906 73 r lfp1t-clean;
#X obj 182 408 *~ 0.7;
#X obj 502 103 hcj.lib.sample resampler;
#X obj 183 100 hcj.lib.sample resampler;
#X obj 751 99 hcj.lib.sample resampler;
#X obj 368 335 + 1234;
#X obj 373 147 + 2568;
#X obj 801 168 + 6543;
#X obj 798 308 + 5432;
#X obj 551 134 r resampretrig;
#X obj 371 116 random 4000;
#X obj 368 313 random 4000;
#X obj 797 284 random 3000;
#X obj 801 145 random 3000;
#X obj 658 419 *~ 0.6;
#X connect 3 0 17 0;
#X connect 5 0 11 0;
#X connect 5 0 1 0;
#X connect 6 0 8 0;
#X connect 6 0 2 0;
#X connect 7 0 37 0;
#X connect 9 0 34 0;
#X connect 10 0 38 0;
#X connect 12 0 36 0;
#X connect 13 0 35 0;
#X connect 14 0 25 0;
#X connect 15 0 25 0;
#X connect 16 0 38 0;
#X connect 17 0 18 0;
#X connect 17 1 27 0;
#X connect 17 2 26 0;
#X connect 17 3 28 0;
#X connect 18 0 5 0;
#X connect 19 0 20 0;
#X connect 21 0 18 1;
#X connect 22 0 27 1;
#X connect 23 0 26 1;
#X connect 24 0 28 1;
#X connect 25 0 1 0;
#X connect 26 0 6 0;
#X connect 27 0 5 0;
#X connect 28 0 6 0;
#X connect 29 0 14 0;
#X connect 30 0 15 0;
#X connect 31 0 10 0;
#X connect 32 0 16 0;
#X connect 33 0 34 0;
#X connect 33 0 35 0;
#X connect 33 0 36 0;
#X connect 33 0 37 0;
#X connect 34 0 30 0;
#X connect 35 0 29 0;
#X connect 36 0 32 0;
#X connect 37 0 31 0;
#X connect 38 0 2 0;
