#N canvas 1302 511 450 450 10;
#X declare -path ../hcj.lib;
#X obj 45 93 notein;
#X obj 45 113 pack 0 0;
#X obj 45 157 pack 0 0 0;
#X text 110 133 any number of voices is okay;
#X text 116 158 feed it packed output from poly;
#X obj 281 203 unpack 0 0 0 0;
#X floatatom 281 231 5 0 0 0 - - -;
#X floatatom 321 231 5 0 0 0 - - -;
#X floatatom 357 230 5 0 0 0 - - -;
#X floatatom 395 230 5 0 0 0 - - -;
#X floatatom 45 238 5 0 0 0 - - -;
#X floatatom 173 240 5 0 0 0 - - -;
#X obj 45 134 poly 2 1;
#X obj 45 211 route 1 2;
#X obj 286 420 declare -path ../hcj.lib;
#X obj 174 287 hcj.lib.play example;
#X obj 274 382 table example;
#X obj 219 382 loadbang;
#X msg 219 401 read -resize 220rhodes.wav example;
#X obj 219 420 soundfiler;
#X obj 45 286 hcj.lib.play example;
#X obj 32 357 *~ 0.3;
#X obj 194 356 *~ 0.3;
#X obj 47 409 dac~;
#X obj 246 320 hsl 128 15 0 1 0 0 empty empty empty -2 -8 0 10 -262144
-1 -1 6400 1;
#X msg 45 261 0 6000 \$1;
#X msg 173 259 0 6000 \$1;
#X text 279 249 for all to see;
#X text 27 17 optional arguments: #1 base pitch in Hz - use C4 range
(~260hz - ~493hz) #2 original sample pitch in Hz;
#X obj 89 331 osc~;
#X obj 84 356 *~ 0.1;
#X obj 45 179 piphz 261.63 220;
#X connect 0 0 1 0;
#X connect 0 1 1 1;
#X connect 1 0 12 0;
#X connect 2 0 31 0;
#X connect 5 0 6 0;
#X connect 5 1 7 0;
#X connect 5 2 8 0;
#X connect 5 3 9 0;
#X connect 7 0 29 0;
#X connect 10 0 25 0;
#X connect 11 0 26 0;
#X connect 12 0 2 0;
#X connect 12 1 2 1;
#X connect 12 2 2 2;
#X connect 13 0 10 0;
#X connect 13 1 11 0;
#X connect 15 0 22 0;
#X connect 17 0 18 0;
#X connect 18 0 19 0;
#X connect 20 0 21 0;
#X connect 21 0 23 0;
#X connect 22 0 23 1;
#X connect 24 0 21 1;
#X connect 24 0 22 1;
#X connect 25 0 20 0;
#X connect 26 0 15 0;
#X connect 29 0 30 0;
#X connect 30 0 23 0;
#X connect 30 0 23 1;
#X connect 31 0 13 0;
#X connect 31 1 5 0;
