#N canvas 0 110 973 300 10;
#X obj 374 167 osc~;
#X obj 41 181 osc~;
#X obj 92 180 osc~;
#X obj 222 174 osc~;
#X obj 38 35 float 220;
#X obj 92 155 *;
#X obj 88 64 t f b;
#X obj 222 151 *;
#X obj 221 59 t f b;
#X obj 374 139 *;
#X obj 373 72 t f b;
#X obj 127 278 dac~;
#X obj 38 13 bng 15 250 50 0 empty empty empty 17 7 0 10 -262144 -1
-1;
#X obj 113 90 float 2;
#X obj 111 119 sqrt;
#X obj 126 253 *~ 0.1;
#X obj 400 115 sqrt;
#X obj 477 165 osc~;
#X obj 477 137 *;
#X obj 476 70 t f b;
#X obj 503 113 sqrt;
#X obj 503 93 float 5;
#X obj 579 159 osc~;
#X obj 579 131 *;
#X obj 578 64 t f b;
#X obj 400 95 float 4;
#X obj 670 158 osc~;
#X obj 670 130 *;
#X obj 669 63 t f b;
#X obj 696 106 sqrt;
#X obj 773 156 osc~;
#X obj 773 128 *;
#X obj 772 61 t f b;
#X obj 799 104 sqrt;
#X obj 875 150 osc~;
#X obj 875 122 *;
#X obj 874 55 t f b;
#X obj 901 98 sqrt;
#X obj 696 86 float 7;
#X obj 799 84 float 8;
#X obj 901 78 float 9;
#X obj 35 215 hcj.lib.throw~ nf1 10;
#X obj 815 27 hcj.lib.nano;
#X obj 125 233 catch~ mM;
#X obj 172 213 hcj.lib.throw~ nf2 10;
#X obj 309 214 hcj.lib.throw~ nf3 10;
#X obj 446 212 hcj.lib.throw~ nf4 10;
#X obj 582 213 hcj.lib.throw~ nf5 10;
#X obj 719 211 hcj.lib.throw~ nf6 10;
#X obj 856 212 hcj.lib.throw~ nf7 10;
#X obj 957 198 hcj.lib.throw~ nf8 10;
#X obj 1095 201 hcj.lib.throw~ nf9 10;
#X obj 247 123 / 3;
#X obj 251 95 float 5;
#X obj 605 107 / 3;
#X obj 605 87 float 10;
#X connect 0 0 46 0;
#X connect 1 0 41 0;
#X connect 2 0 44 0;
#X connect 3 0 45 0;
#X connect 4 0 6 0;
#X connect 4 0 1 0;
#X connect 4 0 8 0;
#X connect 4 0 10 0;
#X connect 4 0 19 0;
#X connect 4 0 24 0;
#X connect 4 0 28 0;
#X connect 4 0 32 0;
#X connect 4 0 36 0;
#X connect 5 0 2 0;
#X connect 6 0 5 0;
#X connect 6 1 13 0;
#X connect 7 0 3 0;
#X connect 8 0 7 0;
#X connect 8 1 53 0;
#X connect 9 0 0 0;
#X connect 10 0 9 0;
#X connect 10 1 25 0;
#X connect 12 0 4 0;
#X connect 13 0 14 0;
#X connect 14 0 5 1;
#X connect 15 0 11 0;
#X connect 15 0 11 1;
#X connect 16 0 9 1;
#X connect 17 0 47 0;
#X connect 18 0 17 0;
#X connect 19 0 18 0;
#X connect 19 1 21 0;
#X connect 20 0 18 1;
#X connect 21 0 20 0;
#X connect 22 0 48 0;
#X connect 23 0 22 0;
#X connect 24 0 23 0;
#X connect 24 1 55 0;
#X connect 25 0 16 0;
#X connect 26 0 49 0;
#X connect 27 0 26 0;
#X connect 28 0 27 0;
#X connect 28 1 38 0;
#X connect 29 0 27 1;
#X connect 30 0 50 0;
#X connect 31 0 30 0;
#X connect 32 0 31 0;
#X connect 32 1 39 0;
#X connect 33 0 31 1;
#X connect 34 0 51 0;
#X connect 35 0 34 0;
#X connect 36 0 35 0;
#X connect 36 1 40 0;
#X connect 37 0 35 1;
#X connect 38 0 29 0;
#X connect 39 0 33 0;
#X connect 40 0 37 0;
#X connect 43 0 15 0;
#X connect 52 0 7 1;
#X connect 53 0 52 0;
#X connect 54 0 23 1;
#X connect 55 0 54 0;
