#N canvas 348 154 450 300 10;
#X obj 32 162 osc~ 220;
#X obj 99 163 osc~ 222;
#X obj 34 211 dac~;
#X obj 33 185 *~ 0.5;
#X obj 98 184 *~ 0.5;
#X obj 7 42 print cc1;
#X obj 58 22 ctlin;
#X obj 70 43 print cc2;
#X obj 140 43 print cc3;
#X obj 315 29 notein;
#X obj 237 53 print n1;
#X obj 300 53 print n2;
#X obj 370 53 print n3;
#X connect 0 0 3 0;
#X connect 1 0 4 0;
#X connect 3 0 2 0;
#X connect 4 0 2 1;
#X connect 6 0 5 0;
#X connect 6 1 7 0;
#X connect 6 2 8 0;
#X connect 9 0 10 0;
#X connect 9 1 11 0;
#X connect 9 2 12 0;
