#N canvas 0 27 1001 502 10;
#X declare -path .;
#X declare -path ../hcj.lib;
#X declare -path ../hcj.lib;
#X declare -path ../hcj.lib;
#X declare -path ../hcj.lib;
#X declare -path ../hcj.lib;
#X declare -path ../hcj.lib;
#X declare -path ../hcj.lib;
#X declare -path ../hcj.lib;
#X declare -path .;
#X declare -path ../hcj.lib;
#X declare -path .;
#X obj 837 255 s~ master-noise;
#X obj 838 234 adc~;
#X obj 835 106 declare -path .;
#X obj 835 125 declare -path ../hcj.lib;
#X obj 895 144 hcj.lib.nano;
#X floatatom 835 85 5 0 0 0 - - -;
#X obj 835 144 pip.touch;
#N canvas 17 37 1001 384 drifters 0;
#X obj 146 330 / 127;
#X obj 230 332 / 127;
#X obj 230 417 line;
#X msg 230 398 \$1 1000;
#X obj 231 375 + 0.003;
#X obj 230 352 * 0.07;
#X obj 230 310 inlet;
#X obj 146 311 inlet;
#X obj 321 417 line;
#X msg 321 398 \$1 4000;
#X obj 321 437 s noise;
#X obj 321 377 + 0;
#X obj 321 355 * 1;
#X obj 321 335 / 127;
#X obj 320 314 inlet;
#X obj 230 439 s driftspeed;
#X obj 566 219 / 127;
#X msg 566 238 \$1 3000;
#X obj 62 201 *~;
#X obj 455 196 *~;
#X obj 566 260 line~;
#X obj 56 246 throw~ mL;
#X obj 455 235 throw~ mR;
#X obj 566 199 r nf1;
#X obj 327 83 r noise;
#X obj 168 82 r driftspeed;
#X obj 146 437 s driftwidth;
#X obj 248 83 r driftwidth;
#X obj 1131 179 / 127;
#X msg 1131 198 \$1 3000;
#X obj 1054 246 *~;
#X obj 1197 252 *~;
#X obj 1131 220 line~;
#X obj 146 416 line;
#X msg 146 397 \$1 4000;
#X obj 101 82 r lowtonic;
#X obj 1048 287 throw~ mL;
#X obj 1200 293 throw~ mR;
#X obj 146 352 * 50;
#X obj 146 373 + 0.5;
#X obj 387 353 switch~;
#X obj 387 332 inlet;
#X obj 1131 159 r nf2;
#X obj 505 308 pip.makepartials midpartials;
#X obj 795 299 pip.makepartials highpartials;
#X obj 278 57 pip.makepartials lowpartials1;
#X obj 11 58 hcj.lib.wavejuggle16 driftlow1 lowpartials1;
#X obj 746 78 r noise;
#X obj 584 77 r driftspeed;
#X obj 666 78 r driftwidth;
#X obj 517 77 r lowtonic;
#X obj 745 55 pip.makepartials lowpartials2;
#X obj 474 55 hcj.lib.wavejuggle16 driftlow2 lowpartials2;
#X obj 13 35 t b b;
#X obj 571 31 t b b;
#X obj 642 130 s lowstart2;
#X obj 571 11 r lowstart2;
#X obj 13 15 r lowstart1;
#X obj 197 127 s lowstart1;
#X obj 1250 85 r noise;
#X obj 1091 84 r driftspeed;
#X obj 1171 85 r driftwidth;
#X obj 1669 80 r noise;
#X obj 1507 79 r driftspeed;
#X obj 1589 80 r driftwidth;
#X obj 936 37 t b b;
#X obj 1494 33 t b b;
#X obj 934 60 hcj.lib.wavejuggle16 drifthigh1 highpartials1;
#X obj 1206 33 pip.makepartials highpartials1;
#X obj 1024 84 r hightonic;
#X obj 936 17 r highstart1;
#X obj 1120 129 s highstart1;
#X obj 1584 133 s highstart2;
#X obj 1494 13 r highstart2;
#X obj 1397 57 hcj.lib.wavejuggle16 drifthigh2 highpartials2;
#X obj 1685 56 pip.makepartials highpartials2;
#X obj 1440 79 r hightonic;
#X obj 2112 181 / 127;
#X msg 2112 200 \$1 3000;
#X obj 2035 248 *~;
#X obj 2178 254 *~;
#X obj 2112 222 line~;
#X obj 2029 289 throw~ mL;
#X obj 2181 295 throw~ mR;
#X obj 2231 87 r noise;
#X obj 2072 86 r driftspeed;
#X obj 2152 87 r driftwidth;
#X obj 2650 82 r noise;
#X obj 2488 81 r driftspeed;
#X obj 2570 82 r driftwidth;
#X obj 1917 39 t b b;
#X obj 2475 35 t b b;
#X obj 1917 19 r midstart1;
#X obj 2187 35 pip.makepartials midpartials1;
#X obj 2005 86 r midtonic;
#X obj 2101 131 s midstart1;
#X obj 2112 161 r nf3;
#X obj 2475 15 r midstart2;
#X obj 2378 59 hcj.lib.wavejuggle16 driftmid2 midpartials2;
#X obj 2421 81 r midtonic;
#X obj 2563 135 s midstart2;
#X obj 2666 58 pip.makepartials midpartials2;
#X obj 1915 62 hcj.lib.wavejuggle16 driftmid1 midpartials1;
#X obj 2409 110 pip.tabledrifter 550 0.2 0.5;
#X obj 56 226 *~ 0.1;
#X obj 453 214 *~ 0.1;
#X obj 1051 266 *~ 0.1;
#X obj 1197 274 *~ 0.1;
#X obj 2032 268 *~ 0.1;
#X obj 2178 276 *~ 0.1;
#X obj 35 107 pip.tabledrifter 550 0.2 0.5;
#X obj 1939 111 pip.tabledrifter 550 0.2 0.5;
#X obj 481 106 pip.tabledrifter 550 0.2 0.5;
#X obj 958 109 pip.tabledrifter 550 0.2 0.5;
#X obj 1428 108 pip.tabledrifter 550 0.2 0.5;
#X connect 0 0 38 0;
#X connect 1 0 5 0;
#X connect 2 0 15 0;
#X connect 3 0 2 0;
#X connect 4 0 3 0;
#X connect 5 0 4 0;
#X connect 6 0 1 0;
#X connect 7 0 0 0;
#X connect 8 0 10 0;
#X connect 9 0 8 0;
#X connect 11 0 9 0;
#X connect 12 0 11 0;
#X connect 13 0 12 0;
#X connect 14 0 13 0;
#X connect 16 0 17 0;
#X connect 17 0 20 0;
#X connect 18 0 104 0;
#X connect 19 0 105 0;
#X connect 20 0 19 1;
#X connect 20 0 18 1;
#X connect 23 0 16 0;
#X connect 24 0 110 4;
#X connect 25 0 110 2;
#X connect 27 0 110 3;
#X connect 28 0 29 0;
#X connect 29 0 32 0;
#X connect 30 0 106 0;
#X connect 31 0 107 0;
#X connect 32 0 31 1;
#X connect 32 0 30 1;
#X connect 33 0 26 0;
#X connect 34 0 33 0;
#X connect 35 0 110 1;
#X connect 38 0 39 0;
#X connect 39 0 34 0;
#X connect 41 0 40 0;
#X connect 42 0 28 0;
#X connect 46 0 110 0;
#X connect 47 0 112 4;
#X connect 48 0 112 2;
#X connect 49 0 112 3;
#X connect 50 0 112 1;
#X connect 52 0 112 0;
#X connect 53 0 46 0;
#X connect 53 1 45 0;
#X connect 54 0 52 0;
#X connect 54 1 51 0;
#X connect 56 0 54 0;
#X connect 57 0 53 0;
#X connect 59 0 113 4;
#X connect 60 0 113 2;
#X connect 61 0 113 3;
#X connect 62 0 114 4;
#X connect 63 0 114 2;
#X connect 64 0 114 3;
#X connect 65 0 67 0;
#X connect 65 1 68 0;
#X connect 66 0 74 0;
#X connect 66 1 75 0;
#X connect 67 0 113 0;
#X connect 69 0 113 1;
#X connect 70 0 65 0;
#X connect 73 0 66 0;
#X connect 74 0 114 0;
#X connect 76 0 114 1;
#X connect 77 0 78 0;
#X connect 78 0 81 0;
#X connect 79 0 108 0;
#X connect 80 0 109 0;
#X connect 81 0 80 1;
#X connect 81 0 79 1;
#X connect 84 0 111 4;
#X connect 85 0 111 2;
#X connect 86 0 111 3;
#X connect 87 0 103 4;
#X connect 88 0 103 2;
#X connect 89 0 103 3;
#X connect 90 0 102 0;
#X connect 90 1 93 0;
#X connect 91 0 98 0;
#X connect 91 1 101 0;
#X connect 92 0 90 0;
#X connect 94 0 111 1;
#X connect 96 0 77 0;
#X connect 97 0 91 0;
#X connect 98 0 103 0;
#X connect 99 0 103 1;
#X connect 102 0 111 0;
#X connect 103 0 80 0;
#X connect 103 1 100 0;
#X connect 104 0 21 0;
#X connect 105 0 22 0;
#X connect 106 0 36 0;
#X connect 107 0 37 0;
#X connect 108 0 82 0;
#X connect 109 0 83 0;
#X connect 110 0 18 0;
#X connect 110 1 58 0;
#X connect 111 0 79 0;
#X connect 111 1 95 0;
#X connect 112 0 19 0;
#X connect 112 1 55 0;
#X connect 113 0 30 0;
#X connect 113 1 71 0;
#X connect 114 0 31 0;
#X connect 114 1 72 0;
#X restore 19 48 pd drifters;
#X obj 135 74 pip.timing;
#X obj 837 210 s tonic;
#X obj 19 27 r nk1;
#X obj 59 27 r nk2;
#X obj 97 27 r nk3;
#X obj 775 317 impulse~;
#X obj 873 337 / 127;
#X obj 873 376 line~;
#X obj 828 427 *~;
#X msg 873 356 \$1 30;
#X obj 775 298 r lfp1;
#X obj 18 93 pip.monosynth;
#X obj 718 37 table wndw;
#X obj 342 12 loadbang;
#X obj 718 55 table monosynth;
#X obj 718 18 table phasor;
#X obj 837 169 loadbang;
#N canvas 129 0 895 476 driftpitch 0;
#X obj 207 144 s lowtonic;
#X obj 53 37 t b b;
#X obj 184 40 t b b;
#X obj 128 40 t b b;
#X msg 543 113 2;
#X obj 440 61 t b b;
#X obj 649 34 t b b;
#X obj 571 45 t b b;
#X obj 342 257 t b b;
#X obj 473 260 t b b;
#X obj 417 260 t b b;
#X obj 639 148 s hightonic;
#X obj 497 363 s midtonic;
#X msg 444 330 2.66666;
#X msg 513 327 3;
#X obj 466 15 r tb1-c1;
#X obj 550 12 r tb1-c2;
#X obj 649 9 r tb1-c3;
#X obj 339 200 r tb1-b1;
#X obj 397 199 r tb1-b2;
#X obj 451 199 r tb1-b3;
#X obj 589 198 r tb1-b4;
#X obj 652 196 r tb1-b5;
#X obj 623 263 t b b;
#X obj 567 263 t b b;
#X msg 555 324 3.33333;
#X msg 619 328 5.33333;
#X msg 685 325 8;
#X obj 329 32 t b b;
#X obj 274 34 t b b;
#X obj 813 28 t b b;
#X obj 703 54 t b b;
#X obj 813 8 r tb1-c5;
#X obj 714 11 r tb1-c4;
#X msg 259 94 3;
#X obj 305 145 key;
#X obj 272 -69 key;
#X obj 272 -48 select 97 115 100 102 103;
#X obj 304 168 select 122 120 99 118 98;
#X obj 437 -49 select 65 83 68 70 71;
#X obj 466 167 select 90 88 67 86 66;
#X msg 185 95 4;
#X msg 667 110 4;
#X msg 740 104 6;
#X msg 109 95 1;
#X msg 142 94 2;
#X connect 1 1 44 0;
#X connect 2 1 41 0;
#X connect 3 1 45 0;
#X connect 4 0 11 0;
#X connect 5 1 4 0;
#X connect 6 1 42 0;
#X connect 7 1 4 0;
#X connect 8 1 13 0;
#X connect 9 1 25 0;
#X connect 10 1 14 0;
#X connect 13 0 12 0;
#X connect 14 0 12 0;
#X connect 15 0 5 0;
#X connect 16 0 7 0;
#X connect 17 0 6 0;
#X connect 18 0 8 0;
#X connect 19 0 10 0;
#X connect 20 0 9 0;
#X connect 21 0 24 0;
#X connect 22 0 23 0;
#X connect 23 1 27 0;
#X connect 24 1 26 0;
#X connect 25 0 12 0;
#X connect 26 0 12 0;
#X connect 27 0 12 0;
#X connect 28 1 34 0;
#X connect 29 1 41 0;
#X connect 30 1 43 0;
#X connect 31 1 42 0;
#X connect 32 0 30 0;
#X connect 33 0 31 0;
#X connect 34 0 0 0;
#X connect 35 0 38 0;
#X connect 35 0 40 0;
#X connect 36 0 37 0;
#X connect 36 0 39 0;
#X connect 37 0 5 0;
#X connect 37 0 1 0;
#X connect 37 1 7 0;
#X connect 37 1 3 0;
#X connect 37 2 6 0;
#X connect 37 2 2 0;
#X connect 37 3 31 0;
#X connect 37 3 29 0;
#X connect 37 4 30 0;
#X connect 37 4 28 0;
#X connect 38 0 8 0;
#X connect 38 1 10 0;
#X connect 38 2 9 0;
#X connect 38 3 24 0;
#X connect 38 4 23 0;
#X connect 39 0 1 0;
#X connect 39 0 5 0;
#X connect 39 1 3 0;
#X connect 39 1 7 0;
#X connect 39 2 2 0;
#X connect 39 2 6 0;
#X connect 39 3 29 0;
#X connect 39 3 31 0;
#X connect 39 4 28 0;
#X connect 39 4 30 0;
#X connect 40 0 8 0;
#X connect 40 1 10 0;
#X connect 40 2 9 0;
#X connect 40 3 24 0;
#X connect 40 4 23 0;
#X connect 41 0 0 0;
#X connect 42 0 11 0;
#X connect 43 0 11 0;
#X connect 44 0 0 0;
#X connect 45 0 0 0;
#X restore 18 74 pd driftpitch;
#X obj 873 317 r nf6;
#X obj 832 317 r nk6;
#X obj 727 338 impulse~;
#X obj 732 317 r lfpa;
#X obj 833 336 / 127;
#X obj 726 298 r nb6-2;
#N canvas 305 316 719 284 output 0;
#X restore 835 40 pd output;
#X obj 835 63 dsp;
#X floatatom 873 85 5 0 0 0 - - -;
#X obj 493 267 r lfp1t;
#X floatatom 493 286 5 0 0 0 - - -;
#X floatatom 354 285 5 0 0 0 - - -;
#X obj 354 267 r lfpat;
#X floatatom 403 285 5 0 0 0 - - -;
#X obj 403 266 /;
#X obj 342 248 t b f;
#X msg 403 247 60000;
#X floatatom 545 286 5 0 0 0 - - -;
#X obj 545 267 /;
#X obj 455 259 t b f;
#X msg 545 248 60000;
#X obj 18 367 r melody-hz;
#X floatatom 18 386 5 0 0 0 - - -;
#X obj 20 466 s melody-hz;
#X floatatom 20 450 5 0 0 0 - - -;
#X obj 680 485 dac~;
#X obj 518 319 catch~ mL;
#X obj 644 319 catch~ mR;
#X obj 574 344 hcj.lib.limit;
#X obj 354 406 pip.440;
#X obj 252 372 r~ master-noise;
#X obj 583 319 catch~ mM;
#X obj 354 468 throw~ mM;
#X obj 450 390 / 127;
#X obj 450 429 line~;
#X obj 354 449 *~;
#X msg 450 409 \$1 3000;
#X obj 450 370 r nf5;
#X obj 390 362 r nk5;
#X obj 390 381 / 127;
#X text 59 13 speed;
#X text 20 12 width;
#X text 98 10 noise;
#X obj 136 47 tgl 15 0 empty empty empty 17 7 0 10 -262144 -1 -1 1
1;
#X obj 136 27 r nb1-1;
#X text 154 47 drift dsp;
#X obj 428 347 r nb5-1;
#X obj 428 366 tgl 15 0 empty empty empty 17 7 0 10 -262144 -1 -1 0
1;
#X obj 354 425 *~ 1;
#X text 399 344 q;
#X obj 16 169 r lowtonic;
#X obj 15 293 r midtonic;
#X obj 15 230 r hightonic;
#X floatatom 16 189 5 0 0 0 - - -;
#X floatatom 15 316 5 0 0 0 - - -;
#X floatatom 15 250 5 0 0 0 - - -;
#X text 133 235 1 3 5 7;
#X text 134 250 1 2 3 4 5 7;
#X text 134 264 1 2 3 4 7;
#X obj 727 359 hcj.lib.cross~;
#X msg 342 32 \; wndw sinesum 512 1 \; wndw read sine-wndw.txt \; monosynth
sinesum 512 0.75 0.25 \; phasor sinesum 512 1 \; driftlow sinesum 512
0.25 0 0.25 0 0.25 0 0.1 \; driftmid sinesum 512 0.75 0.25 \; drifthigh
sinesum 512 0.25 0.5 0 0.5 \; phasor read phasor.txt;
#X obj 778 394 *~ 20;
#X obj 708 397 *~ 2;
#X msg 837 189 60;
#X obj 16 206 print lowtonic;
#X obj 15 267 print hightonic;
#X obj 15 335 print midtonic;
#X obj 18 402 print melody-hz;
#X obj 719 93 table driftlow1;
#X obj 719 112 table driftlow2;
#X obj 719 131 table drifthigh1;
#X obj 719 149 table drifthigh2;
#X obj 720 176 table driftmid1;
#X obj 719 198 table driftmid2;
#X obj 620 450 clip~ -1 1;
#X obj 592 436 *~;
#X obj 520 369 / 127;
#X obj 520 408 line~;
#X msg 520 388 \$1 3000;
#X obj 520 349 r nk8;
#X obj 603 387 *~ 10;
#X obj 700 447 clip~ -1 1;
#X obj 672 433 *~;
#X obj 683 384 *~ 10;
#X obj 592 413 +~ 0.9;
#X obj 672 410 +~ 0.9;
#X connect 1 0 0 0;
#X connect 1 1 0 0;
#X connect 10 0 7 0;
#X connect 11 0 7 1;
#X connect 12 0 7 2;
#X connect 13 0 85 1;
#X connect 14 0 17 0;
#X connect 15 0 16 1;
#X connect 16 0 88 0;
#X connect 16 0 87 0;
#X connect 17 0 15 0;
#X connect 18 0 13 0;
#X connect 21 0 86 0;
#X connect 24 0 89 0;
#X connect 26 0 14 0;
#X connect 27 0 30 0;
#X connect 28 0 85 0;
#X connect 29 0 28 0;
#X connect 30 0 85 2;
#X connect 31 0 13 0;
#X connect 31 0 28 0;
#X connect 33 0 5 0;
#X connect 33 1 34 0;
#X connect 35 0 36 0;
#X connect 36 0 45 0;
#X connect 37 0 41 0;
#X connect 38 0 37 0;
#X connect 40 0 39 0;
#X connect 41 0 42 0;
#X connect 41 1 40 1;
#X connect 42 0 40 0;
#X connect 44 0 43 0;
#X connect 45 0 46 0;
#X connect 45 1 44 1;
#X connect 46 0 44 0;
#X connect 47 0 48 0;
#X connect 48 0 93 0;
#X connect 50 0 49 0;
#X connect 52 0 54 0;
#X connect 53 0 54 1;
#X connect 54 0 101 0;
#X connect 54 1 108 0;
#X connect 55 0 74 0;
#X connect 56 0 55 0;
#X connect 57 0 54 0;
#X connect 57 0 54 1;
#X connect 59 0 62 0;
#X connect 60 0 61 1;
#X connect 61 0 58 0;
#X connect 62 0 60 0;
#X connect 63 0 59 0;
#X connect 64 0 65 0;
#X connect 65 0 55 2;
#X connect 69 0 7 3;
#X connect 70 0 69 0;
#X connect 72 0 73 0;
#X connect 73 0 55 3;
#X connect 74 0 61 0;
#X connect 76 0 79 0;
#X connect 77 0 80 0;
#X connect 78 0 81 0;
#X connect 79 0 90 0;
#X connect 80 0 92 0;
#X connect 81 0 91 0;
#X connect 85 0 16 0;
#X connect 87 0 51 0;
#X connect 87 0 51 1;
#X connect 88 0 54 1;
#X connect 88 0 54 0;
#X connect 89 0 9 0;
#X connect 100 0 51 0;
#X connect 101 0 100 0;
#X connect 102 0 104 0;
#X connect 103 0 106 0;
#X connect 103 0 109 0;
#X connect 104 0 103 0;
#X connect 105 0 102 0;
#X connect 106 0 110 0;
#X connect 107 0 51 1;
#X connect 108 0 107 0;
#X connect 109 0 111 0;
#X connect 110 0 101 1;
#X connect 111 0 108 1;
