#N canvas 525 94 468 347 10;
#X declare -path .;
#X declare -path ../hcj.lib;
#X obj 180 114 declare -path .;
#X obj 180 133 declare -path ../hcj.lib;
#X obj 180 152 hcj.lib.nano;
#X floatatom 285 110 5 0 0 0 - - -;
#X obj 154 92 table wndw;
#X obj 18 92 loadbang;
#X obj 74 92 table phasor;
#X obj 54 281 dac~;
#X obj 22 229 catch~ mL;
#X obj 146 230 catch~ mR;
#X obj 53 255 hcj.lib.limit;
#X obj 85 230 catch~ mM;
#X obj 285 205 adc~ 1 2;
#X msg 18 112 \; wndw sinesum 512 1 \; wndw read sine-wndw.txt \; phasor
sinesum 512 1 \; phasor read phasor.txt;
#X obj 285 161 r nb9-2;
#X obj 285 182 s killall;
#X obj 285 226 hcj.lib.limit;
#X obj 285 92 hcj.lib.cpu;
#X obj 359 267 s~ inputs;
#X obj 180 174 netreceive 3000;
#X obj 180 192 pip.cmd;
#X obj 360 246 *~ 0.3;
#X obj 6 8 pip.overtone~ a 1;
#X obj 137 6 pip.overtone~ b 1;
#X obj 266 5 pip.overtone~ c 1;
#X obj 6 47 pip.overtone~ a 2;
#X obj 137 46 pip.overtone~ b 2;
#X obj 266 45 pip.overtone~ c 2;
#X obj 6 28 throw~ mL;
#X obj 6 65 throw~ mR;
#X obj 137 66 throw~ mR;
#X obj 137 24 throw~ mL;
#X obj 266 24 throw~ mL;
#X obj 266 64 throw~ mR;
#X connect 5 0 13 0;
#X connect 8 0 10 0;
#X connect 9 0 10 1;
#X connect 10 0 7 0;
#X connect 10 1 7 1;
#X connect 11 0 10 0;
#X connect 11 0 10 1;
#X connect 12 0 16 0;
#X connect 12 1 16 1;
#X connect 14 0 15 0;
#X connect 16 1 21 0;
#X connect 17 0 3 0;
#X connect 19 0 20 0;
#X connect 21 0 18 0;
#X connect 22 0 28 0;
#X connect 23 0 31 0;
#X connect 24 0 32 0;
#X connect 25 0 29 0;
#X connect 26 0 30 0;
#X connect 27 0 33 0;
