#N canvas 739 59 1085 502 10;
#X declare -path .;
#X declare -path ../hcj.lib;
#X declare -path ../hcj.lib;
#X declare -path ../hcj.lib;
#X declare -path ../hcj.lib;
#X declare -path ../hcj.lib;
#X declare -path ../hcj.lib;
#X declare -path ../hcj.lib;
#X declare -path ../hcj.lib;
#X declare -path .;
#X declare -path ../hcj.lib;
#X obj 195 44 s~ master-noise;
#X obj 837 65 declare -path .;
#X obj 837 84 declare -path ../hcj.lib;
#X obj 897 103 hcj.lib.nano;
#X floatatom 837 44 5 0 0 0 - - -;
#X obj 837 103 pip.touch;
#N canvas 147 59 1121 464 drifters 0;
#X obj 63 -148 / 127;
#X obj 147 -146 / 127;
#X obj 147 -61 line;
#X msg 147 -80 \$1 1000;
#X obj 148 -103 + 0.003;
#X obj 147 -126 * 0.07;
#X obj 147 -168 inlet;
#X obj 63 -167 inlet;
#X obj 238 -61 line;
#X msg 238 -80 \$1 4000;
#X obj 238 -41 s noise;
#X obj 238 -101 + 0;
#X obj 238 -123 * 1;
#X obj 238 -143 / 127;
#X obj 237 -164 inlet;
#X obj 147 -39 s driftspeed;
#X obj 38 74 / 127;
#X msg 38 93 \$1 3000;
#X obj 79 176 *~;
#X obj 206 178 *~;
#X obj 38 115 line~;
#X obj 105 249 throw~ mL;
#X obj 232 250 throw~ mR;
#X obj 38 54 r nf1;
#X obj 63 -41 s driftwidth;
#X obj 63 -62 line;
#X msg 63 -81 \$1 4000;
#X obj 63 -126 * 50;
#X obj 63 -105 + 0.5;
#X obj 447 65 / 127;
#X msg 447 84 \$1 3000;
#X obj 506 131 *~;
#X obj 627 133 *~;
#X obj 447 106 line~;
#X obj 494 196 throw~ mL;
#X obj 621 192 throw~ mR;
#X obj 810 69 / 127;
#X msg 810 88 \$1 3000;
#X obj 869 135 *~;
#X obj 990 137 *~;
#X obj 810 110 line~;
#X obj 861 198 throw~ mL;
#X obj 988 194 throw~ mR;
#X obj 447 45 r nf2;
#X obj 810 49 r nf3;
#X obj 664 -136 t b b b;
#X obj 664 -158 loadbang;
#X obj 589 -74 s tonic-low;
#X obj 684 -79 s tonic-high;
#X obj 822 -75 s tonic-mid;
#X msg 586 -99 1;
#X msg 681 -103 2;
#X obj 73 17 r nb1-1;
#X obj 503 57 r nb2-1;
#X obj 877 55 r nb3-1;
#X obj 506 102 pip.wavedrift~ high 1;
#X obj 90 61 pip.wavedrift~ low 1;
#X obj 283 70 pip.wavedrift~ low 2;
#X obj 645 100 pip.wavedrift~ high 2;
#X obj 869 106 pip.wavedrift~ mid 1;
#X obj 998 106 pip.wavedrift~ mid 2;
#X obj 387 172 throw~ internals;
#X obj 395 145 *~ 0.1;
#X msg 823 -100 1.5;
#X obj 619 171 *~ 0.05;
#X obj 494 176 *~ 0.05;
#X obj 231 229 *~ 0.05;
#X obj 105 229 *~ 0.05;
#X obj 861 178 *~ 0.05;
#X obj 986 173 *~ 0.05;
#X connect 0 0 27 0;
#X connect 1 0 5 0;
#X connect 2 0 15 0;
#X connect 3 0 2 0;
#X connect 4 0 3 0;
#X connect 5 0 4 0;
#X connect 6 0 1 0;
#X connect 7 0 0 0;
#X connect 8 0 10 0;
#X connect 9 0 8 0;
#X connect 11 0 9 0;
#X connect 12 0 11 0;
#X connect 13 0 12 0;
#X connect 14 0 13 0;
#X connect 16 0 17 0;
#X connect 17 0 20 0;
#X connect 18 0 67 0;
#X connect 19 0 66 0;
#X connect 20 0 19 1;
#X connect 20 0 18 1;
#X connect 23 0 16 0;
#X connect 25 0 24 0;
#X connect 26 0 25 0;
#X connect 27 0 28 0;
#X connect 28 0 26 0;
#X connect 29 0 30 0;
#X connect 30 0 33 0;
#X connect 31 0 65 0;
#X connect 32 0 64 0;
#X connect 33 0 32 1;
#X connect 33 0 31 1;
#X connect 36 0 37 0;
#X connect 37 0 40 0;
#X connect 38 0 68 0;
#X connect 39 0 69 0;
#X connect 40 0 39 1;
#X connect 40 0 38 1;
#X connect 43 0 29 0;
#X connect 44 0 36 0;
#X connect 45 0 50 0;
#X connect 45 1 51 0;
#X connect 45 2 63 0;
#X connect 46 0 45 0;
#X connect 50 0 47 0;
#X connect 51 0 48 0;
#X connect 52 0 56 0;
#X connect 52 0 57 0;
#X connect 53 0 55 0;
#X connect 53 0 58 0;
#X connect 54 0 59 0;
#X connect 54 0 60 0;
#X connect 55 0 31 0;
#X connect 55 0 62 0;
#X connect 56 0 18 0;
#X connect 56 0 62 0;
#X connect 57 0 19 0;
#X connect 57 0 62 0;
#X connect 58 0 32 0;
#X connect 58 0 62 0;
#X connect 59 0 38 0;
#X connect 60 0 39 0;
#X connect 62 0 61 0;
#X connect 63 0 49 0;
#X connect 64 0 35 0;
#X connect 65 0 34 0;
#X connect 66 0 22 0;
#X connect 67 0 21 0;
#X connect 68 0 41 0;
#X connect 69 0 42 0;
#X restore 19 48 pd drifters;
#X obj 20 109 pip.timing;
#X obj 19 27 r nk1;
#X obj 59 27 r nk2;
#X obj 97 27 r nk3;
#X obj 867 301 impulse~;
#X obj 965 321 / 127;
#X obj 965 360 line~;
#X obj 885 377 *~;
#X msg 965 340 \$1 30;
#X obj 867 282 r lfp1;
#X obj 702 40 table wndw;
#X obj 342 12 loadbang;
#X obj 702 58 table monosynth;
#X obj 702 21 table phasor;
#X obj 924 301 r nk6;
#X obj 819 322 impulse~;
#X obj 824 301 r lfpa;
#X obj 925 320 / 127;
#X obj 818 282 r nb6-2;
#X obj 837 22 dsp;
#X floatatom 875 44 5 0 0 0 - - -;
#X floatatom 593 51 5 0 0 0 - - -;
#X obj 593 33 r lfpat;
#X floatatom 642 51 5 0 0 0 - - -;
#X obj 642 32 /;
#X obj 581 14 t b f;
#X msg 642 13 60000;
#X obj 749 473 dac~;
#X obj 613 284 catch~ mL;
#X obj 747 287 catch~ mR;
#X obj 670 330 hcj.lib.limit;
#X obj 683 288 catch~ mM;
#X text 59 13 speed;
#X text 20 12 width;
#X text 98 10 noise;
#X obj 819 343 hcj.lib.cross~;
#X obj 884 401 *~ 20;
#X obj 772 309 *~ 2;
#X obj 712 434 clip~ -1 1;
#X obj 684 420 *~;
#X obj 612 353 / 127;
#X obj 612 392 line~;
#X msg 612 372 \$1 3000;
#X obj 612 333 r nk8;
#X obj 695 371 *~ 10;
#X obj 792 431 clip~ -1 1;
#X obj 773 417 *~;
#X obj 768 359 *~ 10;
#X obj 684 397 +~ 0.9;
#X obj 787 389 +~ 0.9;
#X msg 342 32 \; wndw sinesum 512 1 \; wndw read sine-wndw.txt \; monosynth
sinesum 512 0.75 0.25 \; phasor sinesum 512 1 \; phasor read phasor.txt
;
#X obj 702 90 table drift-low-1;
#X obj 702 109 table drift-low-2;
#X obj 701 138 table drift-high-1;
#X obj 701 156 table drift-high-2;
#X obj 702 183 table drift-mid-1;
#X obj 701 205 table drift-mid-2;
#X obj 167 20 adc~ 1 2;
#X obj 102 259 tabwrite~ lapsteel;
#X obj 897 122 hcj.footpedal;
#X obj 324 232 tabwrite~ lapsteel2;
#X obj 965 301 r nf7;
#X obj 154 331 throw~ mL;
#X obj 271 331 throw~ mR;
#X obj 325 289 r nf4;
#X obj 379 347 throw~ mL;
#X obj 517 348 throw~ mR;
#X obj 139 163 bng 15 250 50 0 empty empty empty 17 7 0 10 -262144
-1 -1;
#X obj 295 148 bng 15 250 50 0 empty empty empty 17 7 0 10 -262144
-1 -1;
#X obj 551 304 r nf5;
#X obj 338 117 table lapsteel2 88200;
#X obj 343 137 table lapsteel 88200;
#X obj 154 309 hcj.lib.stereograin~ lapsteel;
#X obj 379 326 hcj.lib.stereograin~ lapsteel2;
#X obj 154 290 phasor~ 1.01;
#X obj 377 304 phasor~ 1.008;
#X obj 117 139 r nb4-2;
#X obj 263 125 r nb5-2;
#X obj 181 72 hcj.lib.cross~ 500;
#X obj 232 17 catch~ internals;
#X obj 302 51 r nk4;
#X obj 304 75 / 127;
#X obj 133 227 spigot~;
#X obj 398 202 spigot~;
#X obj 500 222 r nb5-1;
#X obj 441 176 *~ 0.7;
#X obj 187 204 r nb4-1;
#X obj 138 202 *~ 0.7;
#X obj 48 390 pip.sparklesynth;
#X obj 161 380 / 127;
#X obj 161 419 line~;
#X obj 88 431 *~;
#X msg 161 399 \$1 30;
#X obj 89 451 throw~ mM;
#X obj 161 360 r nf8;
#X obj 394 437 t b;
#X obj 395 458 s synthcap;
#X obj 32 140 r synthcap;
#X obj 138 182 tabplay~ lapsteel;
#X obj 440 157 tabplay~ lapsteel2;
#X connect 8 0 6 0;
#X connect 9 0 6 1;
#X connect 10 0 6 2;
#X connect 11 0 42 1;
#X connect 12 0 15 0;
#X connect 13 0 14 1;
#X connect 14 0 44 0;
#X connect 14 0 43 0;
#X connect 15 0 13 0;
#X connect 16 0 11 0;
#X connect 18 0 57 0;
#X connect 21 0 24 0;
#X connect 22 0 42 0;
#X connect 23 0 22 0;
#X connect 24 0 42 2;
#X connect 25 0 11 0;
#X connect 25 0 22 0;
#X connect 26 0 4 0;
#X connect 26 1 27 0;
#X connect 28 0 32 0;
#X connect 29 0 28 0;
#X connect 31 0 30 0;
#X connect 32 0 33 0;
#X connect 32 1 31 1;
#X connect 33 0 31 0;
#X connect 35 0 37 0;
#X connect 36 0 37 1;
#X connect 37 0 46 0;
#X connect 37 1 53 0;
#X connect 38 0 37 0;
#X connect 38 0 37 1;
#X connect 42 0 14 0;
#X connect 43 0 34 0;
#X connect 43 0 34 1;
#X connect 44 0 37 1;
#X connect 44 0 37 0;
#X connect 45 0 34 0;
#X connect 46 0 45 0;
#X connect 47 0 49 0;
#X connect 48 0 51 0;
#X connect 48 0 54 0;
#X connect 49 0 48 0;
#X connect 50 0 47 0;
#X connect 51 0 55 0;
#X connect 52 0 34 1;
#X connect 53 0 52 0;
#X connect 54 0 56 0;
#X connect 55 0 46 1;
#X connect 56 0 53 1;
#X connect 64 0 0 0;
#X connect 64 0 85 0;
#X connect 68 0 12 0;
#X connect 71 0 79 1;
#X connect 74 0 65 0;
#X connect 74 0 105 0;
#X connect 75 0 67 0;
#X connect 75 0 106 0;
#X connect 76 0 80 1;
#X connect 79 0 69 0;
#X connect 79 1 70 0;
#X connect 80 0 72 0;
#X connect 80 1 73 0;
#X connect 81 0 79 0;
#X connect 82 0 80 0;
#X connect 83 0 74 0;
#X connect 84 0 75 0;
#X connect 86 0 85 1;
#X connect 87 0 88 0;
#X connect 88 0 85 2;
#X connect 89 1 65 0;
#X connect 90 0 67 0;
#X connect 91 0 90 1;
#X connect 92 0 90 0;
#X connect 93 0 89 1;
#X connect 94 0 89 0;
#X connect 95 0 98 0;
#X connect 95 0 65 0;
#X connect 95 1 102 0;
#X connect 96 0 99 0;
#X connect 97 0 98 1;
#X connect 98 0 100 0;
#X connect 98 0 67 0;
#X connect 99 0 97 0;
#X connect 101 0 96 0;
#X connect 102 0 103 0;
#X connect 104 0 74 0;
#X connect 105 0 94 0;
#X connect 106 0 92 0;
