#N canvas 1199 238 1001 502 10;
#X declare -path .;
#X declare -path ../hcj.lib;
#X declare -path ../hcj.lib;
#X declare -path ../hcj.lib;
#X declare -path ../hcj.lib;
#X declare -path ../hcj.lib;
#X declare -path .;
#X declare -path ../hcj.lib;
#X declare -path ../hcj.lib;
#X declare -path .;
#X declare -path .;
#X declare -path ../hcj.lib;
#X declare -path ../hcj.lib;
#X declare -path ../hcj.lib;
#X obj 894 238 s~ master-noise;
#X obj 895 217 adc~;
#X obj 836 131 declare -path .;
#X obj 836 150 declare -path ../hcj.lib;
#X obj 896 169 hcj.lib.nano;
#X obj 836 90 hcj.lib.cpu;
#X floatatom 836 110 5 0 0 0 - - -;
#X obj 834 17 catch~ mL;
#X obj 906 16 catch~ mR;
#X obj 835 60 dac~;
#X obj 193 131 / 127;
#X msg 193 150 \$1 3000;
#X obj 19 190 *~;
#X obj 183 193 *~;
#X obj 193 172 line~;
#X obj 19 235 throw~ mL;
#X obj 182 235 throw~ mR;
#X obj 835 39 hcj.lib.limit;
#X obj 836 169 pip.touch;
#N canvas 0 49 1001 384 drifters 0;
#X obj 146 330 / 127;
#X obj 230 332 / 127;
#X obj 230 417 line;
#X msg 230 398 \$1 1000;
#X obj 231 375 + 0.003;
#X obj 230 352 * 0.07;
#X obj 230 310 inlet;
#X obj 146 311 inlet;
#X obj 321 417 line;
#X msg 321 398 \$1 4000;
#X obj 321 437 s noise;
#X obj 321 377 + 0;
#X obj 321 355 * 1;
#X obj 321 335 / 127;
#X obj 320 314 inlet;
#X obj 230 439 s driftspeed;
#X obj 255 114 / 127;
#X msg 255 133 \$1 3000;
#X obj 169 187 *~;
#X obj 231 184 *~;
#X obj 255 155 line~;
#X obj 163 232 throw~ mL;
#X obj 231 223 throw~ mR;
#X obj 255 94 r nf1;
#X obj 177 82 r noise;
#X obj 143 37 r driftspeed;
#X obj 565 75 r noise;
#X obj 472 54 r driftspeed;
#X obj 879 80 r noise;
#X obj 785 58 r driftspeed;
#X obj 146 437 s driftwidth;
#X obj 165 61 r driftwidth;
#X obj 554 53 r driftwidth;
#X obj 869 55 r driftwidth;
#X obj 625 113 / 127;
#X msg 625 132 \$1 3000;
#X obj 539 186 *~;
#X obj 601 183 *~;
#X obj 625 154 line~;
#X obj 910 133 / 127;
#X msg 910 152 \$1 3000;
#X obj 824 206 *~;
#X obj 886 203 *~;
#X obj 910 174 line~;
#X obj 625 93 r nf2;
#X obj 910 113 r nf3;
#X obj 146 416 line;
#X msg 146 397 \$1 4000;
#X obj 692 67 r highwave;
#X obj 382 51 r midwave;
#X obj 31 47 r lowwave;
#X obj 758 35 r hightonic;
#X obj 453 30 r midtonic;
#X obj 58 71 r lowtonic;
#X obj 533 228 throw~ mL;
#X obj 600 225 throw~ mR;
#X obj 818 247 throw~ mL;
#X obj 889 244 throw~ mR;
#X obj 45 106 pip.tabledrifter 550 0.2 0.5;
#X obj 406 108 pip.tabledrifter 550 0.2 0.5;
#X obj 729 104 pip.tabledrifter 550 0.2 0.5;
#X obj 229 202 *~ 0.3;
#X obj 163 212 *~ 0.3;
#X obj 533 208 *~ 0.3;
#X obj 601 205 *~ 0.3;
#X obj 821 226 *~ 0.3;
#X obj 886 225 *~ 0.3;
#X obj 146 352 * 50;
#X obj 146 373 + 0.5;
#X obj 364 238 s~ driftermix;
#X obj 365 215 *~ 0.1;
#X connect 0 0 67 0;
#X connect 1 0 5 0;
#X connect 2 0 15 0;
#X connect 3 0 2 0;
#X connect 4 0 3 0;
#X connect 5 0 4 0;
#X connect 6 0 1 0;
#X connect 7 0 0 0;
#X connect 8 0 10 0;
#X connect 9 0 8 0;
#X connect 11 0 9 0;
#X connect 12 0 11 0;
#X connect 13 0 12 0;
#X connect 14 0 13 0;
#X connect 16 0 17 0;
#X connect 17 0 20 0;
#X connect 18 0 62 0;
#X connect 19 0 61 0;
#X connect 20 0 19 1;
#X connect 20 0 18 1;
#X connect 23 0 16 0;
#X connect 24 0 58 4;
#X connect 25 0 58 2;
#X connect 26 0 59 4;
#X connect 27 0 59 2;
#X connect 28 0 60 4;
#X connect 29 0 60 2;
#X connect 31 0 58 3;
#X connect 32 0 59 3;
#X connect 33 0 60 3;
#X connect 34 0 35 0;
#X connect 35 0 38 0;
#X connect 36 0 63 0;
#X connect 37 0 64 0;
#X connect 38 0 37 1;
#X connect 38 0 36 1;
#X connect 39 0 40 0;
#X connect 40 0 43 0;
#X connect 41 0 65 0;
#X connect 42 0 66 0;
#X connect 43 0 42 1;
#X connect 43 0 41 1;
#X connect 44 0 34 0;
#X connect 45 0 39 0;
#X connect 46 0 30 0;
#X connect 47 0 46 0;
#X connect 48 0 60 0;
#X connect 49 0 59 0;
#X connect 50 0 58 0;
#X connect 51 0 60 1;
#X connect 52 0 59 1;
#X connect 53 0 58 1;
#X connect 58 0 18 0;
#X connect 58 0 70 0;
#X connect 58 1 19 0;
#X connect 58 1 70 0;
#X connect 59 0 36 0;
#X connect 59 0 70 0;
#X connect 59 1 37 0;
#X connect 59 1 70 0;
#X connect 60 0 41 0;
#X connect 60 0 70 0;
#X connect 60 1 42 0;
#X connect 60 1 70 0;
#X connect 61 0 22 0;
#X connect 62 0 21 0;
#X connect 63 0 54 0;
#X connect 64 0 55 0;
#X connect 65 0 56 0;
#X connect 66 0 57 0;
#X connect 67 0 68 0;
#X connect 68 0 47 0;
#X connect 70 0 69 0;
#X restore 19 48 pd drifters;
#X obj 119 50 pip.timing;
#X obj 119 70 pip.ride;
#X obj 118 93 throw~ mL;
#X obj 182 93 throw~ mR;
#X obj 838 235 s tonic;
#X obj 20 167 pip.pianos3 swell.wav 20000;
#X text 8 12 drift width;
#X text 100 12 drift speed;
#X obj 19 27 r nk1;
#X obj 118 27 r nk2;
#X obj 195 28 r nk3;
#X text 196 11 noise mix;
#X obj 730 390 impulse~;
#X obj 895 365 / 127;
#X obj 895 404 line~;
#X obj 882 429 *~;
#X msg 895 384 \$1 30;
#X obj 696 359 r lfp1;
#X obj 844 452 throw~ mL;
#X obj 909 453 throw~ mR;
#X obj 19 93 pip.monosynth;
#X obj 718 37 table wndw;
#X obj 342 12 loadbang;
#X obj 718 55 table monosynth;
#X obj 718 18 table phasor;
#X obj 718 85 table driftlow1;
#X obj 719 106 table driftlow2;
#X obj 719 126 table driftlow3;
#X obj 838 194 loadbang;
#X obj 719 161 table driftmid1;
#X obj 720 182 table driftmid2;
#X obj 720 202 table driftmid3;
#X obj 720 230 table drifthigh1;
#X obj 721 251 table drifthigh2;
#X obj 721 271 table drifthigh3;
#X msg 838 214 60;
#X msg 342 32 \; wndw sinesum 512 1 \; wndw read sine-wndw.txt \; monosynth
sinesum 512 0.75 0.25 \; phasor sinesum 512 1 \; driftlow1 sinesum
512 0.75 0.25 \; driftlow2 sinesum 512 0.5 0.25 0 0.25 \; driftlow3
sinesum 512 0 0.5 0.25 0.125 0 0 0 0.125 \; driftmid1 sinesum 512 0.75
0.25 \; driftmid2 sinesum 512 0.5 0.25 0.25 \; driftmid3 sinesum 512
0.6 0.2 0.1 0.1 \; drifthigh1 sinesum 512 0.25 0.5 0 0.5 \; drifthigh2
sinesum 512 0 0.125 0 0.25 0 0.125 0 0.25 0 0 0 0.25 \; drifthigh3
sinesum 512 0 0.125 0.125 0.25 0 0.125 0 0.25 0.125 0 0 0.125 0 0 0
0.125 0 0 0 0 0 0 0 0.0125 \; phasor read phasor.txt;
#N canvas 0 0 450 300 pianospitch 0;
#X obj 109 265 outlet;
#X msg 327 43 2.5 0.625 1.25 2.5;
#X msg 33 45 0.625 1.25 0.625 1.25;
#X msg 181 45 1.25 0.625 1.248 1.251;
#X msg 41 135 3.75 2.5 3.75 1.25;
#X msg 320 134 2.5 5 3.75 2.5;
#X obj 85 21 r tb2-a1;
#X obj 185 16 r tb2-a2;
#X obj 310 9 r tb2-a3;
#X obj 98 102 r tb2-a4;
#X obj 324 98 r tb2-a5;
#X obj 20 12 loadbang;
#X connect 1 0 0 0;
#X connect 2 0 0 0;
#X connect 3 0 0 0;
#X connect 4 0 0 0;
#X connect 5 0 0 0;
#X connect 6 0 2 0;
#X connect 7 0 3 0;
#X connect 8 0 1 0;
#X connect 9 0 4 0;
#X connect 10 0 5 0;
#X connect 11 0 2 0;
#X restore 22 148 pd pianospitch;
#N canvas 68 35 895 406 driftpitch 0;
#X msg 20 164 driftlow1;
#X msg 101 165 driftlow2;
#X msg 175 163 driftlow3;
#X msg 287 297 driftmid1;
#X msg 368 298 driftmid2;
#X msg 442 296 driftmid3;
#X msg 483 83 drifthigh1;
#X msg 564 84 drifthigh2;
#X msg 638 82 drifthigh3;
#X obj 252 187 s lowtonic;
#X msg 252 168 2;
#X obj 50 124 t b b;
#X obj 181 127 t b b;
#X obj 125 127 t b b;
#X msg 672 105 2;
#X obj 450 46 t b b;
#X obj 640 34 t b b;
#X obj 571 45 t b b;
#X obj 342 257 t b b;
#X obj 473 260 t b b;
#X obj 417 260 t b b;
#X obj 672 130 s hightonic;
#X obj 497 363 s midtonic;
#X msg 444 330 2.66666;
#X msg 513 327 3;
#X obj 468 122 s highwave;
#X obj 300 337 s midwave;
#X obj 33 204 s lowwave;
#X obj 20 63 r tb1-a1;
#X obj 107 84 r tb1-a2;
#X obj 183 82 r tb1-a3;
#X obj 466 15 r tb1-c1;
#X obj 550 12 r tb1-c2;
#X obj 649 9 r tb1-c3;
#X obj 339 200 r tb1-b1;
#X obj 397 199 r tb1-b2;
#X obj 451 199 r tb1-b3;
#X obj 589 198 r tb1-b4;
#X obj 652 196 r tb1-b5;
#X obj 623 263 t b b;
#X obj 567 263 t b b;
#X msg 555 324 3.33333;
#X msg 619 328 5.33333;
#X msg 685 325 8;
#X obj 326 119 t b b;
#X obj 271 130 t b b;
#X obj 253 83 r tb1-a4;
#X obj 325 81 r tb1-a5;
#X msg 291 161 6;
#X obj 804 33 t b b;
#X obj 735 44 t b b;
#X obj 813 8 r tb1-c5;
#X obj 714 11 r tb1-c4;
#X msg 725 101 6;
#X msg 792 100 8;
#X connect 0 0 27 0;
#X connect 1 0 27 0;
#X connect 2 0 27 0;
#X connect 3 0 26 0;
#X connect 4 0 26 0;
#X connect 5 0 26 0;
#X connect 6 0 25 0;
#X connect 7 0 25 0;
#X connect 8 0 25 0;
#X connect 10 0 9 0;
#X connect 11 0 0 0;
#X connect 11 1 10 0;
#X connect 12 0 2 0;
#X connect 12 1 10 0;
#X connect 13 0 1 0;
#X connect 13 1 10 0;
#X connect 14 0 21 0;
#X connect 15 0 6 0;
#X connect 15 1 14 0;
#X connect 16 0 8 0;
#X connect 16 1 14 0;
#X connect 17 0 7 0;
#X connect 17 1 14 0;
#X connect 18 0 3 0;
#X connect 18 1 23 0;
#X connect 19 0 5 0;
#X connect 19 1 41 0;
#X connect 20 0 4 0;
#X connect 20 1 24 0;
#X connect 23 0 22 0;
#X connect 24 0 22 0;
#X connect 28 0 11 0;
#X connect 29 0 13 0;
#X connect 30 0 12 0;
#X connect 31 0 15 0;
#X connect 32 0 17 0;
#X connect 33 0 16 0;
#X connect 34 0 18 0;
#X connect 35 0 20 0;
#X connect 36 0 19 0;
#X connect 37 0 40 0;
#X connect 38 0 39 0;
#X connect 39 0 5 0;
#X connect 39 1 43 0;
#X connect 40 0 5 0;
#X connect 40 1 42 0;
#X connect 41 0 22 0;
#X connect 42 0 22 0;
#X connect 43 0 22 0;
#X connect 44 0 2 0;
#X connect 44 1 48 0;
#X connect 45 0 1 0;
#X connect 45 1 48 0;
#X connect 46 0 45 0;
#X connect 47 0 44 0;
#X connect 48 0 9 0;
#X connect 49 0 8 0;
#X connect 49 1 54 0;
#X connect 50 0 7 0;
#X connect 50 1 53 0;
#X connect 51 0 49 0;
#X connect 52 0 50 0;
#X connect 53 0 21 0;
#X connect 54 0 21 0;
#X restore 19 68 pd driftpitch;
#X obj 236 299 / 127;
#X msg 235 319 \$1 3000;
#X obj 14 353 *~;
#X obj 161 345 *~;
#X obj 235 340 line~;
#X obj 12 394 throw~ mL;
#X obj 160 386 throw~ mR;
#X obj 236 279 r nf5;
#N canvas 0 0 871 300 resamplepitch 0;
#X obj 100 101 outlet;
#X msg 220 50 0.5 1 2 1;
#X obj 32 32 r tb2-b1;
#X obj 145 32 r tb2-b2;
#X obj 219 31 r tb2-b3;
#X obj 297 29 r tb2-b4;
#X obj 380 27 r tb2-b5;
#X msg 296 53 2 4 2.5 2;
#X msg 379 50 2 4 8 8;
#X obj 420 219 outlet;
#X msg 540 168 0.5 1 2 1;
#X msg 616 171 2 4 2.5 2;
#X msg 699 168 2 4 8 8;
#X obj 303 144 r tb2-c1;
#X obj 427 147 r tb2-c2;
#X obj 539 149 r tb2-c3;
#X obj 617 147 r tb2-c4;
#X obj 700 145 r tb2-c5;
#X msg 427 169 1 0.25 0.5 0.125;
#X msg 145 54 1 0.25 0.5 0.125;
#X msg 298 167 1 1 1 1;
#X msg 27 55 1 1 1 1;
#X connect 1 0 0 0;
#X connect 2 0 21 0;
#X connect 3 0 19 0;
#X connect 4 0 1 0;
#X connect 5 0 7 0;
#X connect 6 0 8 0;
#X connect 7 0 0 0;
#X connect 8 0 0 0;
#X connect 10 0 9 0;
#X connect 11 0 9 0;
#X connect 12 0 9 0;
#X connect 13 0 20 0;
#X connect 14 0 18 0;
#X connect 15 0 10 0;
#X connect 16 0 11 0;
#X connect 17 0 12 0;
#X connect 18 0 9 0;
#X connect 19 0 0 0;
#X connect 20 0 9 0;
#X connect 21 0 0 0;
#X restore 35 289 pd resamplepitch;
#X obj 279 440 r nb5-2;
#X obj 721 292 table resampler 352800;
#X obj 182 213 *~ 0.4;
#X obj 19 212 *~ 0.4;
#X obj 13 373 *~ 0.5;
#X obj 161 365 *~ 0.5;
#X obj 383 441 r nk5;
#X obj 279 463 pip.resampleinputs;
#X obj 895 345 r nf6;
#X obj 824 387 r nk6;
#X obj 745 429 hcj.lib.cross~;
#X obj 646 408 impulse~;
#X obj 651 387 r lfpa;
#X obj 825 406 / 127;
#X obj 745 452 *~ 10;
#X obj 125 311 pip.resample;
#X obj 34 311 pip.resample;
#X obj 625 361 r nb6-2;
#X obj 192 112 r nf7;
#X obj 745 359 r lfp2;
#X obj 794 359 r lfp3;
#X obj 841 358 r lfp4;
#X connect 1 0 0 0;
#X connect 1 1 0 0;
#X connect 5 0 6 0;
#X connect 7 0 17 0;
#X connect 8 0 17 1;
#X connect 10 0 11 0;
#X connect 11 0 14 0;
#X connect 12 0 71 0;
#X connect 13 0 70 0;
#X connect 14 0 12 1;
#X connect 14 0 13 1;
#X connect 17 0 9 0;
#X connect 17 1 9 1;
#X connect 21 0 22 0;
#X connect 21 1 23 0;
#X connect 25 0 12 0;
#X connect 25 1 13 0;
#X connect 28 0 19 0;
#X connect 29 0 19 1;
#X connect 30 0 19 2;
#X connect 32 0 78 1;
#X connect 33 0 36 0;
#X connect 34 0 35 1;
#X connect 35 0 38 0;
#X connect 35 0 39 0;
#X connect 36 0 34 0;
#X connect 37 0 32 0;
#X connect 42 0 56 0;
#X connect 48 0 55 0;
#X connect 55 0 24 0;
#X connect 57 0 25 0;
#X connect 59 0 60 0;
#X connect 60 0 63 0;
#X connect 61 0 72 0;
#X connect 62 0 73 0;
#X connect 63 0 61 1;
#X connect 63 0 62 1;
#X connect 66 0 59 0;
#X connect 67 0 84 0;
#X connect 67 1 83 0;
#X connect 68 0 75 0;
#X connect 70 0 16 0;
#X connect 71 0 15 0;
#X connect 72 0 64 0;
#X connect 73 0 65 0;
#X connect 74 0 75 1;
#X connect 76 0 33 0;
#X connect 77 0 81 0;
#X connect 78 0 82 0;
#X connect 79 0 78 0;
#X connect 80 0 79 0;
#X connect 81 0 78 2;
#X connect 82 0 35 0;
#X connect 83 0 61 0;
#X connect 83 1 62 0;
#X connect 84 0 61 0;
#X connect 84 1 62 0;
#X connect 85 0 32 0;
#X connect 85 0 79 0;
#X connect 86 0 10 0;
#X connect 87 0 32 0;
#X connect 88 0 32 0;
#X connect 89 0 32 0;
