#N canvas 15 67 1009 506 10;
#X declare -path .;
#X declare -path ../hcj.lib;
#X declare -path ../hcj.lib;
#X obj 15 34 s~ master-noise;
#X obj 838 50 declare -path .;
#X obj 838 69 declare -path ../hcj.lib;
#X obj 838 88 hcj.lib.nano;
#X floatatom 838 29 5 0 0 0 - - -;
#X obj 635 13 table wndw;
#X obj 499 13 loadbang;
#X obj 555 13 table phasor;
#X obj 722 77 dac~;
#X obj 706 13 catch~ mL;
#X obj 773 11 catch~ mR;
#X obj 684 55 hcj.lib.limit;
#X obj 728 32 catch~ mM;
#X obj 16 12 adc~ 1 2;
#X obj 15 148 pip.sparklesynth;
#X obj 15 106 throw~ mL;
#X obj 158 106 throw~ mR;
#X obj 182 63 r nf4;
#X obj 16 63 phasor~ 1.01;
#X obj 15 84 hcj.lib.stereograin~ sparkleresamp;
#X obj 377 132 pip.patterns 2000 1;
#X obj 541 113 r nb0-6;
#X obj 541 133 select 1;
#X obj 705 123 r nk5;
#X floatatom 705 184 5 0 0 0 - - -;
#X obj 272 11 r nb4-2;
#X floatatom 691 228 5 0 0 0 - - -;
#X msg 272 31 \; sparkleresamp const 0;
#X obj 807 377 pip.patterns 2000 1;
#X obj 792 443 *~;
#X obj 792 464 hcj.lib.throw~ nf7 10;
#X obj 116 15 r~ master-noise;
#X obj 578 228 s pip_metro_bang;
#X obj 691 245 s pip_metro_speed;
#X obj 419 109 r pip_metro_speed;
#X obj 377 88 r pip_metro_bang;
#X obj 933 295 / 127;
#X obj 931 336 + 1;
#X obj 933 355 int;
#X floatatom 933 374 5 0 0 0 - - -;
#X obj 807 329 r pip_metro_bang;
#X obj 816 352 r pip_metro_speed;
#X obj 934 274 r nk7;
#X obj 932 316 * 7;
#X obj 882 397 r nk8;
#X obj 603 206 pip.metro 2000 4;
#X obj 116 34 delwrite~ noisedel 3000;
#X obj 791 305 delread~ noisedel 3000;
#X obj 791 284 r pip_metro_speed;
#X obj 376 156 impulse~;
#X obj 447 171 z~;
#X obj 377 188 *~ 2;
#X obj 376 212 hcj.lib.throw2~ nf6 100;
#X obj 447 190 *~ 2;
#X obj 462 151 random 20;
#X msg 499 33 \; wndw sinesum 512 1 \; wndw read sine-wndw.txt \; phasor
sinesum 512 1 \; phasor read phasor.txt;
#X obj 283 388 pip.patterns 2000 1;
#X obj 279 445 *~;
#X obj 410 324 / 127;
#X obj 409 366 int;
#X floatatom 409 385 5 0 0 0 - - -;
#X obj 283 340 r pip_metro_bang;
#X obj 292 363 r pip_metro_speed;
#X obj 54 381 pip.patterns 2000 1;
#X obj 181 317 / 127;
#X obj 180 359 int;
#X floatatom 180 378 5 0 0 0 - - -;
#X obj 54 333 r pip_metro_bang;
#X obj 63 356 r pip_metro_speed;
#X obj 181 298 r nk1;
#X obj 411 303 r nk2;
#X obj 180 338 * 8;
#X obj 409 345 * 8;
#X obj 459 315 r pip_metro_bang;
#X obj 459 385 spigot;
#X obj 19 270 random 16;
#X obj 269 269 random 16;
#X obj 129 401 r nk3;
#X obj 358 408 r nk3;
#X obj 459 425 tabwrite~ mastersamp1;
#X obj 510 361 r nb1-1;
#X obj 635 315 r pip_metro_bang;
#X obj 635 385 spigot;
#X obj 635 425 tabwrite~ mastersamp2;
#X obj 686 361 r nb2-1;
#X obj 18 313 tabplay~ mastersamp1;
#X obj 269 314 tabplay~ mastersamp2;
#X obj 24 476 hcj.lib.throw~ nf1 400;
#X obj 268 475 hcj.lib.throw~ nf2 400;
#X obj 210 340 random 16;
#X obj 210 360 + 1;
#X obj 222 320 r nb1-2;
#X obj 390 267 random 16;
#X obj 390 287 + 1;
#X obj 402 247 r nb2-2;
#X obj 459 449 table mastersamp1 88200;
#X obj 635 449 table mastersamp2 88200;
#X obj 19 291 * 5512;
#X obj 269 290 * 5512;
#X obj 529 382 r~ sparklesend;
#X obj 658 341 r~ sparklesend;
#X msg 596 133 stop;
#X obj 51 426 pip.clickadsr;
#X obj 44 446 *~;
#X obj 306 112 r nb9-2;
#X obj 293 170 s killall;
#X obj 297 146 bng 15 250 50 0 empty empty empty 17 7 0 10 -262144
-1 -1;
#X msg 673 163 120;
#X obj 632 133 loadbang;
#X obj 705 162 expr if ($f1 > 150 \, 1000 \, $f1);
#X obj 23 401 *~ 0.4;
#X obj 249 407 *~ 0.4;
#X obj 542 403 hcj.lib.limit;
#X obj 807 418 pip.clickadsr;
#X obj 289 422 pip.clickadsr;
#X obj 705 143 expr if ($f1 > 1 \, ( $f1 / 127 ) * 100 + 51 \, 5);
#X obj 513 581 spigot~;
#X obj 567 558 r nb4-1;
#X obj 518 556 *~ 0.9;
#X obj 506 510 spigot;
#X obj 539 486 r nb4-1;
#X obj 506 608 tabwrite~ sparkleresamp;
#X obj 518 536 tabplay~ sparkleresamp;
#X obj 506 486 bng 15 250 50 0 empty empty empty 17 7 0 10 -262144
-1 -1;
#X obj 506 464 r nb8-2;
#X obj 244 226 r nf8;
#X floatatom 252 254 5 0 0 0 - - -;
#X obj 14 228 hcj.lib.throw2~ nf3 1000;
#X obj 171 159 t b;
#X obj 27 177 delwrite~ terrydel 100;
#X obj 26 201 delread~ terrydel 100;
#X obj 171 179 random 10;
#X msg 719 101 start;
#X msg 775 92 stop;
#X msg 850 119 open /home/hecanjog/Cedar/PeregrineA/rhodes.wav;
#X obj 763 120 writesf~ 2;
#X obj 838 7 hcj.lib.cpu;
#X connect 6 0 55 0;
#X connect 9 0 11 0;
#X connect 10 0 11 1;
#X connect 11 0 8 0;
#X connect 11 0 135 0;
#X connect 11 1 8 1;
#X connect 11 1 135 1;
#X connect 12 0 11 0;
#X connect 12 0 11 1;
#X connect 13 0 0 0;
#X connect 13 1 0 0;
#X connect 14 0 127 0;
#X connect 14 0 129 0;
#X connect 14 1 128 0;
#X connect 17 0 19 1;
#X connect 18 0 19 0;
#X connect 19 0 15 0;
#X connect 19 1 16 0;
#X connect 20 0 49 0;
#X connect 20 0 54 0;
#X connect 21 0 22 0;
#X connect 22 0 45 0;
#X connect 23 0 115 0;
#X connect 24 0 45 0;
#X connect 25 0 27 0;
#X connect 26 0 33 0;
#X connect 28 0 113 0;
#X connect 29 0 30 0;
#X connect 31 0 46 0;
#X connect 34 0 20 1;
#X connect 35 0 20 0;
#X connect 36 0 43 0;
#X connect 37 0 38 0;
#X connect 38 0 39 0;
#X connect 38 0 28 2;
#X connect 40 0 28 0;
#X connect 41 0 28 1;
#X connect 42 0 36 0;
#X connect 43 0 37 0;
#X connect 44 0 113 1;
#X connect 45 0 32 0;
#X connect 45 1 26 0;
#X connect 47 0 29 0;
#X connect 48 0 47 0;
#X connect 49 0 50 0;
#X connect 49 0 51 0;
#X connect 50 0 53 0;
#X connect 51 0 52 0;
#X connect 53 0 52 1;
#X connect 54 0 50 1;
#X connect 56 0 76 0;
#X connect 56 0 114 0;
#X connect 57 0 88 0;
#X connect 58 0 72 0;
#X connect 59 0 60 0;
#X connect 59 0 56 2;
#X connect 61 0 56 0;
#X connect 62 0 56 1;
#X connect 63 0 75 0;
#X connect 63 0 102 0;
#X connect 64 0 71 0;
#X connect 65 0 66 0;
#X connect 65 0 63 2;
#X connect 67 0 63 0;
#X connect 68 0 63 1;
#X connect 69 0 64 0;
#X connect 70 0 58 0;
#X connect 71 0 65 0;
#X connect 72 0 59 0;
#X connect 73 0 74 0;
#X connect 74 0 79 0;
#X connect 75 0 97 0;
#X connect 76 0 98 0;
#X connect 77 0 102 1;
#X connect 78 0 114 1;
#X connect 80 0 74 1;
#X connect 81 0 82 0;
#X connect 82 0 83 0;
#X connect 84 0 82 1;
#X connect 85 0 110 0;
#X connect 86 0 111 0;
#X connect 89 0 90 0;
#X connect 90 0 63 3;
#X connect 91 0 89 0;
#X connect 92 0 93 0;
#X connect 93 0 56 3;
#X connect 94 0 92 0;
#X connect 97 0 85 0;
#X connect 98 0 86 0;
#X connect 99 0 112 0;
#X connect 100 0 112 1;
#X connect 101 0 45 0;
#X connect 102 0 103 1;
#X connect 103 0 87 0;
#X connect 104 0 106 0;
#X connect 106 0 105 0;
#X connect 107 0 24 0;
#X connect 108 0 45 0;
#X connect 109 0 24 0;
#X connect 110 0 103 0;
#X connect 111 0 57 0;
#X connect 112 0 79 0;
#X connect 112 1 83 0;
#X connect 112 1 121 0;
#X connect 113 0 29 1;
#X connect 114 0 57 1;
#X connect 115 0 109 0;
#X connect 116 1 121 0;
#X connect 117 0 116 1;
#X connect 118 0 116 0;
#X connect 119 0 121 0;
#X connect 119 0 122 0;
#X connect 120 0 119 1;
#X connect 122 0 118 0;
#X connect 123 0 119 0;
#X connect 124 0 123 0;
#X connect 125 0 126 0;
#X connect 128 0 131 0;
#X connect 130 0 127 1;
#X connect 131 0 130 0;
#X connect 132 0 135 0;
#X connect 133 0 135 0;
#X connect 134 0 135 0;
#X connect 136 0 4 0;
