#N canvas 228 436 1019 502 10;
#X declare -path .;
#X declare -path ../hcj.lib;
#X declare -path ../hcj.lib;
#X declare -path ../hcj.lib;
#X declare -path ../hcj.lib;
#X declare -path ../hcj.lib;
#X declare -path ../hcj.lib;
#X declare -path ../hcj.lib;
#X declare -path ../hcj.lib;
#X declare -path .;
#X obj 195 44 s~ master-noise;
#X obj 837 65 declare -path .;
#X obj 837 84 declare -path ../hcj.lib;
#X obj 897 103 hcj.lib.nano;
#X floatatom 837 44 5 0 0 0 - - -;
#X obj 837 103 pip.touch;
#N canvas 374 363 1213 464 drifters 0;
#X obj 63 -148 / 127;
#X obj 147 -146 / 127;
#X obj 147 -61 line;
#X msg 147 -80 \$1 1000;
#X obj 148 -103 + 0.003;
#X obj 147 -126 * 0.07;
#X obj 147 -168 inlet;
#X obj 63 -167 inlet;
#X obj 238 -61 line;
#X msg 238 -80 \$1 4000;
#X obj 238 -41 s noise;
#X obj 238 -101 + 0;
#X obj 238 -123 * 1;
#X obj 238 -143 / 127;
#X obj 237 -164 inlet;
#X obj 147 -39 s driftspeed;
#X obj 38 74 / 127;
#X msg 38 93 \$1 3000;
#X obj 123 165 *~;
#X obj 250 167 *~;
#X obj 38 115 line~;
#X obj 105 249 throw~ mL;
#X obj 232 250 throw~ mR;
#X obj 38 54 r nf1;
#X obj 63 -41 s driftwidth;
#X obj 63 -62 line;
#X msg 63 -81 \$1 4000;
#X obj 63 -126 * 50;
#X obj 63 -105 + 0.5;
#X obj 105 229 *~ 0.1;
#X obj 230 229 *~ 0.1;
#X obj 90 61 pip.wavedrift~ low 1;
#X obj 447 65 / 127;
#X msg 447 84 \$1 3000;
#X obj 506 131 *~;
#X obj 627 133 *~;
#X obj 447 106 line~;
#X obj 494 196 throw~ mL;
#X obj 621 192 throw~ mR;
#X obj 494 176 *~ 0.1;
#X obj 619 171 *~ 0.1;
#X obj 810 69 / 127;
#X msg 810 88 \$1 3000;
#X obj 869 135 *~;
#X obj 990 137 *~;
#X obj 810 110 line~;
#X obj 861 198 throw~ mL;
#X obj 988 194 throw~ mR;
#X obj 861 178 *~ 0.1;
#X obj 986 173 *~ 0.1;
#X obj 447 45 r nf2;
#X obj 810 49 r nf3;
#N canvas 129 0 1589 793 driftpitch 0;
#X obj 53 37 t b b;
#X obj 184 40 t b b;
#X obj 128 40 t b b;
#X msg 543 113 2;
#X obj 440 61 t b b;
#X obj 649 34 t b b;
#X obj 571 45 t b b;
#X obj 342 257 t b b;
#X obj 473 260 t b b;
#X obj 417 260 t b b;
#X msg 444 330 2.66666;
#X msg 513 327 3;
#X obj 466 15 r tb1-c1;
#X obj 550 12 r tb1-c2;
#X obj 649 9 r tb1-c3;
#X obj 339 200 r tb1-b1;
#X obj 397 199 r tb1-b2;
#X obj 451 199 r tb1-b3;
#X obj 589 198 r tb1-b4;
#X obj 652 196 r tb1-b5;
#X obj 623 263 t b b;
#X obj 567 263 t b b;
#X msg 555 324 3.33333;
#X msg 619 328 5.33333;
#X msg 685 325 8;
#X obj 329 32 t b b;
#X obj 274 34 t b b;
#X obj 813 28 t b b;
#X obj 703 54 t b b;
#X obj 813 8 r tb1-c5;
#X obj 714 11 r tb1-c4;
#X msg 259 94 3;
#X obj 305 145 key;
#X obj 272 -69 key;
#X obj 272 -48 select 97 115 100 102 103;
#X obj 304 168 select 122 120 99 118 98;
#X obj 437 -49 select 65 83 68 70 71;
#X obj 466 167 select 90 88 67 86 66;
#X msg 185 95 4;
#X msg 667 110 4;
#X msg 740 104 6;
#X msg 109 95 1;
#X msg 142 94 2;
#X obj 639 148 s tonic-high;
#X obj 207 144 s tonic-low;
#X obj 497 363 s tonic-mid;
#X obj 1268 190 r nb1-2;
#X obj 1319 187 r nb2-2;
#X obj 1377 188 r nb3-2;
#X obj 1426 187 r nb4-2;
#X obj 1264 360 * 1;
#X obj 1240 271 t b f;
#X obj 1183 79 select 0 1;
#X obj 1183 227 float 5;
#X obj 1238 229 float 4;
#X obj 1308 230 float 6;
#X obj 1363 229 float 8;
#X obj 1163 190 unpack 5 4 6 8;
#X obj 1177 30 r nb4-1;
#X msg 1060 143 1 1.25 1.3333 1.5;
#X msg 1195 142 1.6666 1.875 2 4;
#X obj 1263 27 loadbang;
#X msg 1263 47 0;
#X obj 1203 449 s tonic;
#X connect 0 1 41 0;
#X connect 1 1 38 0;
#X connect 2 1 42 0;
#X connect 3 0 43 0;
#X connect 4 1 3 0;
#X connect 5 1 39 0;
#X connect 6 1 3 0;
#X connect 7 1 10 0;
#X connect 8 1 22 0;
#X connect 9 1 11 0;
#X connect 10 0 45 0;
#X connect 11 0 45 0;
#X connect 12 0 4 0;
#X connect 13 0 6 0;
#X connect 14 0 5 0;
#X connect 15 0 7 0;
#X connect 16 0 9 0;
#X connect 17 0 8 0;
#X connect 18 0 21 0;
#X connect 19 0 20 0;
#X connect 20 1 24 0;
#X connect 21 1 23 0;
#X connect 22 0 45 0;
#X connect 23 0 45 0;
#X connect 24 0 45 0;
#X connect 25 1 31 0;
#X connect 26 1 38 0;
#X connect 27 1 40 0;
#X connect 28 1 39 0;
#X connect 29 0 27 0;
#X connect 30 0 28 0;
#X connect 31 0 44 0;
#X connect 32 0 35 0;
#X connect 32 0 37 0;
#X connect 33 0 34 0;
#X connect 33 0 36 0;
#X connect 34 0 4 0;
#X connect 34 0 0 0;
#X connect 34 1 6 0;
#X connect 34 1 2 0;
#X connect 34 2 5 0;
#X connect 34 2 1 0;
#X connect 34 3 28 0;
#X connect 34 3 26 0;
#X connect 34 4 27 0;
#X connect 34 4 25 0;
#X connect 35 0 7 0;
#X connect 35 1 9 0;
#X connect 35 2 8 0;
#X connect 35 3 21 0;
#X connect 35 4 20 0;
#X connect 36 0 0 0;
#X connect 36 0 4 0;
#X connect 36 1 2 0;
#X connect 36 1 6 0;
#X connect 36 2 1 0;
#X connect 36 2 5 0;
#X connect 36 3 26 0;
#X connect 36 3 28 0;
#X connect 36 4 25 0;
#X connect 36 4 27 0;
#X connect 37 0 7 0;
#X connect 37 1 9 0;
#X connect 37 2 8 0;
#X connect 37 3 21 0;
#X connect 37 4 20 0;
#X connect 38 0 44 0;
#X connect 39 0 43 0;
#X connect 40 0 43 0;
#X connect 41 0 44 0;
#X connect 42 0 44 0;
#X connect 46 0 53 0;
#X connect 47 0 54 0;
#X connect 48 0 55 0;
#X connect 49 0 56 0;
#X connect 51 1 50 1;
#X connect 52 0 59 0;
#X connect 52 1 60 0;
#X connect 53 0 51 0;
#X connect 54 0 51 0;
#X connect 55 0 51 0;
#X connect 56 0 51 0;
#X connect 57 0 53 1;
#X connect 57 1 54 1;
#X connect 57 2 55 1;
#X connect 57 3 56 1;
#X connect 58 0 52 0;
#X connect 59 0 57 0;
#X connect 60 0 57 0;
#X connect 61 0 62 0;
#X connect 62 0 52 0;
#X restore 437 -89 pd driftpitch;
#X obj 283 70 pip.wavedrift~ low 2;
#X obj 506 102 pip.wavedrift~ high 1;
#X obj 645 100 pip.wavedrift~ high 2;
#X obj 869 106 pip.wavedrift~ mid 1;
#X obj 998 106 pip.wavedrift~ mid 2;
#X obj 221 85 pip.clickadsr;
#X obj 174 121 *~;
#X obj 294 121 *~;
#X obj 222 7 r nb1-2;
#X obj 532 62 *~;
#X obj 646 63 *~;
#X obj 585 -21 r nb1-2;
#X obj 916 72 *~;
#X obj 1030 73 *~;
#X obj 965 3 r nb1-2;
#X obj 242 37 spigot;
#X obj 283 13 r nb1-1;
#X obj 601 9 spigot;
#X obj 979 24 spigot;
#X obj 642 -15 r nb2-1;
#X obj 1020 4 r nb3-1;
#X obj 376 141 / 127;
#X msg 376 160 \$1 3000;
#X obj 376 182 line~;
#X obj 376 121 r nf4;
#X obj 302 202 *~;
#X obj 170 204 *~;
#X obj 714 157 / 127;
#X msg 714 176 \$1 3000;
#X obj 714 198 line~;
#X obj 714 137 r nf4;
#X obj 640 218 *~;
#X obj 508 220 *~;
#X obj 1113 163 / 127;
#X msg 1113 182 \$1 3000;
#X obj 1113 204 line~;
#X obj 1113 143 r nf4;
#X obj 1039 224 *~;
#X obj 907 226 *~;
#X obj 451 -16 r nb4-1;
#X obj 418 5 spigot;
#X obj 403 -18 r lfp1;
#X obj 420 -45 r lfp2;
#X obj 467 -47 r lfp3;
#X obj 518 -45 r lfp4;
#X obj 594 35 pip.clickadsr;
#X obj 978 45 pip.clickadsr;
#X connect 0 0 27 0;
#X connect 1 0 5 0;
#X connect 2 0 15 0;
#X connect 3 0 2 0;
#X connect 4 0 3 0;
#X connect 5 0 4 0;
#X connect 6 0 1 0;
#X connect 7 0 0 0;
#X connect 8 0 10 0;
#X connect 9 0 8 0;
#X connect 11 0 9 0;
#X connect 12 0 11 0;
#X connect 13 0 12 0;
#X connect 14 0 13 0;
#X connect 16 0 17 0;
#X connect 17 0 20 0;
#X connect 18 0 29 0;
#X connect 19 0 30 0;
#X connect 20 0 19 1;
#X connect 20 0 18 1;
#X connect 23 0 16 0;
#X connect 25 0 24 0;
#X connect 26 0 25 0;
#X connect 27 0 28 0;
#X connect 28 0 26 0;
#X connect 29 0 21 0;
#X connect 30 0 22 0;
#X connect 31 0 18 0;
#X connect 31 1 59 0;
#X connect 32 0 33 0;
#X connect 33 0 36 0;
#X connect 34 0 39 0;
#X connect 35 0 40 0;
#X connect 36 0 35 1;
#X connect 36 0 34 1;
#X connect 39 0 37 0;
#X connect 40 0 38 0;
#X connect 41 0 42 0;
#X connect 42 0 45 0;
#X connect 43 0 48 0;
#X connect 44 0 49 0;
#X connect 45 0 44 1;
#X connect 45 0 43 1;
#X connect 48 0 46 0;
#X connect 49 0 47 0;
#X connect 50 0 32 0;
#X connect 51 0 41 0;
#X connect 53 0 19 0;
#X connect 53 1 60 0;
#X connect 54 0 34 0;
#X connect 54 1 62 0;
#X connect 55 0 35 0;
#X connect 55 1 63 0;
#X connect 56 0 43 0;
#X connect 56 1 65 0;
#X connect 57 0 44 0;
#X connect 57 1 66 0;
#X connect 58 0 59 1;
#X connect 58 0 60 1;
#X connect 59 0 79 0;
#X connect 60 0 78 0;
#X connect 61 0 68 0;
#X connect 62 0 85 0;
#X connect 63 0 84 0;
#X connect 64 0 70 0;
#X connect 65 0 91 0;
#X connect 66 0 90 0;
#X connect 67 0 71 0;
#X connect 68 0 58 0;
#X connect 69 0 68 1;
#X connect 70 0 98 0;
#X connect 71 0 99 0;
#X connect 72 0 70 1;
#X connect 73 0 71 1;
#X connect 74 0 75 0;
#X connect 75 0 76 0;
#X connect 76 0 78 1;
#X connect 76 0 79 1;
#X connect 77 0 74 0;
#X connect 78 0 30 0;
#X connect 79 0 29 0;
#X connect 80 0 81 0;
#X connect 81 0 82 0;
#X connect 82 0 84 1;
#X connect 82 0 85 1;
#X connect 83 0 80 0;
#X connect 84 0 40 0;
#X connect 85 0 39 0;
#X connect 86 0 87 0;
#X connect 87 0 88 0;
#X connect 88 0 90 1;
#X connect 88 0 91 1;
#X connect 89 0 86 0;
#X connect 90 0 49 0;
#X connect 91 0 48 0;
#X connect 92 0 93 1;
#X connect 93 0 68 0;
#X connect 93 0 70 0;
#X connect 93 0 71 0;
#X connect 94 0 93 0;
#X connect 95 0 93 0;
#X connect 96 0 93 0;
#X connect 97 0 93 0;
#X connect 98 0 62 1;
#X connect 98 0 63 1;
#X connect 99 0 65 1;
#X connect 99 0 66 1;
#X restore 19 48 pd drifters;
#X obj 20 109 pip.timing;
#X obj 839 169 s tonic;
#X obj 19 27 r nk1;
#X obj 59 27 r nk2;
#X obj 97 27 r nk3;
#X obj 930 299 impulse~;
#X obj 1028 319 / 127;
#X obj 1028 358 line~;
#X obj 983 409 *~;
#X msg 1028 338 \$1 30;
#X obj 930 280 r lfp1;
#X obj 702 40 table wndw;
#X obj 342 12 loadbang;
#X obj 702 58 table monosynth;
#X obj 702 21 table phasor;
#X obj 839 128 loadbang;
#X obj 987 299 r nk6;
#X obj 882 320 impulse~;
#X obj 887 299 r lfpa;
#X obj 988 318 / 127;
#X obj 881 280 r nb6-2;
#X obj 837 22 dsp;
#X floatatom 875 44 5 0 0 0 - - -;
#X obj 592 126 r lfp1t;
#X floatatom 592 145 5 0 0 0 - - -;
#X floatatom 593 51 5 0 0 0 - - -;
#X obj 593 33 r lfpat;
#X floatatom 642 51 5 0 0 0 - - -;
#X obj 642 32 /;
#X obj 581 14 t b f;
#X msg 642 13 60000;
#X floatatom 644 145 5 0 0 0 - - -;
#X obj 644 126 /;
#X obj 554 118 t b f;
#X msg 644 107 60000;
#X obj 629 485 dac~;
#X obj 673 301 catch~ mL;
#X obj 799 301 catch~ mR;
#X obj 729 326 hcj.lib.limit;
#X obj 738 301 catch~ mM;
#X text 59 13 speed;
#X text 20 12 width;
#X text 98 10 noise;
#X obj 882 341 hcj.lib.cross~;
#X obj 933 376 *~ 20;
#X obj 863 379 *~ 2;
#X obj 775 432 clip~ -1 1;
#X obj 747 418 *~;
#X obj 675 351 / 127;
#X obj 675 390 line~;
#X msg 675 370 \$1 3000;
#X obj 675 331 r nk8;
#X obj 758 369 *~ 10;
#X obj 855 429 clip~ -1 1;
#X obj 827 415 *~;
#X obj 838 366 *~ 10;
#X obj 747 395 +~ 0.9;
#X obj 827 392 +~ 0.9;
#X msg 342 32 \; wndw sinesum 512 1 \; wndw read sine-wndw.txt \; monosynth
sinesum 512 0.75 0.25 \; phasor sinesum 512 1 \; phasor read phasor.txt
;
#X obj 702 90 table drift-low-1;
#X obj 702 109 table drift-low-2;
#X obj 701 138 table drift-high-1;
#X obj 701 156 table drift-high-2;
#X obj 702 183 table drift-mid-1;
#X obj 701 205 table drift-mid-2;
#X obj 167 20 adc~ 1 2;
#X obj 166 194 tabwrite~ lapsteel;
#X obj 594 214 float;
#X obj 594 235 s onset;
#X obj 547 77 tgl 15 0 empty empty empty 17 7 0 10 -262144 -1 -1 1
1;
#X obj 897 122 hcj.footpedal;
#X obj 183 148 r fb1;
#X obj 183 169 t b;
#X obj 300 168 t b;
#X obj 283 193 tabwrite~ lapsteel2;
#X obj 1028 299 r nf7;
#X obj 594 194 t b f;
#X obj 547 95 metro 4000;
#X obj 76 438 throw~ mL;
#X obj 194 434 throw~ mR;
#X obj 237 378 r nf4;
#X obj 243 336 throw~ mL;
#X obj 384 338 throw~ mR;
#X obj 451 338 throw~ mL;
#X obj 592 340 throw~ mR;
#X obj 431 213 t b;
#X obj 300 147 r fb3;
#X obj 195 237 bng 15 250 50 0 empty empty empty 17 7 0 10 -262144
-1 -1;
#X obj 294 235 bng 15 250 50 0 empty empty empty 17 7 0 10 -262144
-1 -1;
#X obj 395 258 bng 15 250 50 0 empty empty empty 17 7 0 10 -262144
-1 -1;
#X obj 414 238 tabwrite~ lapsteel3;
#X obj 431 192 r fb5;
#X obj 408 292 r nf5;
#X obj 616 280 r nf6;
#X obj 595 174 * 4;
#X obj 338 117 table lapsteel2 88200;
#X obj 343 137 table lapsteel 88200;
#X obj 367 160 table lapsteel3 88200;
#X obj 63 380 phasor~ 1;
#X obj 68 403 hcj.lib.stereograin~ lapsteel;
#X obj 243 315 hcj.lib.stereograin~ lapsteel2;
#X obj 468 313 hcj.lib.stereograin~ lapsteel3;
#X obj 237 275 phasor~ 0.5;
#X obj 481 285 phasor~ 0.25;
#X msg 839 148 30;
#X connect 9 0 6 0;
#X connect 10 0 6 1;
#X connect 11 0 6 2;
#X connect 12 0 50 1;
#X connect 13 0 16 0;
#X connect 14 0 15 1;
#X connect 15 0 52 0;
#X connect 15 0 51 0;
#X connect 16 0 14 0;
#X connect 17 0 12 0;
#X connect 19 0 65 0;
#X connect 22 0 111 0;
#X connect 23 0 26 0;
#X connect 24 0 50 0;
#X connect 25 0 24 0;
#X connect 26 0 50 2;
#X connect 27 0 12 0;
#X connect 27 0 24 0;
#X connect 28 0 4 0;
#X connect 28 1 29 0;
#X connect 30 0 31 0;
#X connect 31 0 40 0;
#X connect 31 0 101 0;
#X connect 32 0 36 0;
#X connect 33 0 32 0;
#X connect 35 0 34 0;
#X connect 36 0 37 0;
#X connect 36 1 35 1;
#X connect 37 0 35 0;
#X connect 39 0 38 0;
#X connect 40 0 41 0;
#X connect 40 1 39 1;
#X connect 41 0 39 0;
#X connect 43 0 45 0;
#X connect 44 0 45 1;
#X connect 45 0 54 0;
#X connect 45 1 61 0;
#X connect 46 0 45 0;
#X connect 46 0 45 1;
#X connect 50 0 15 0;
#X connect 51 0 42 0;
#X connect 51 0 42 1;
#X connect 52 0 45 1;
#X connect 52 0 45 0;
#X connect 53 0 42 0;
#X connect 54 0 53 0;
#X connect 55 0 57 0;
#X connect 56 0 59 0;
#X connect 56 0 62 0;
#X connect 57 0 56 0;
#X connect 58 0 55 0;
#X connect 59 0 63 0;
#X connect 60 0 42 1;
#X connect 61 0 60 0;
#X connect 62 0 64 0;
#X connect 63 0 54 1;
#X connect 64 0 61 1;
#X connect 72 0 0 0;
#X connect 72 0 73 0;
#X connect 72 0 81 0;
#X connect 72 0 97 0;
#X connect 74 0 75 0;
#X connect 76 0 84 0;
#X connect 78 0 79 0;
#X connect 79 0 73 0;
#X connect 79 0 94 0;
#X connect 80 0 81 0;
#X connect 80 0 95 0;
#X connect 82 0 13 0;
#X connect 83 0 74 0;
#X connect 83 1 74 1;
#X connect 84 0 74 0;
#X connect 87 0 106 1;
#X connect 92 0 96 0;
#X connect 92 0 97 0;
#X connect 93 0 80 0;
#X connect 98 0 92 0;
#X connect 99 0 107 1;
#X connect 100 0 108 1;
#X connect 101 0 83 0;
#X connect 105 0 106 0;
#X connect 106 0 85 0;
#X connect 106 1 86 0;
#X connect 107 0 88 0;
#X connect 107 1 89 0;
#X connect 108 0 90 0;
#X connect 108 1 91 0;
#X connect 109 0 107 0;
#X connect 110 0 108 0;
#X connect 111 0 8 0;
