#N canvas 0 27 1001 502 10;
#X declare -path .;
#X declare -path ../hcj.lib;
#X declare -path ../hcj.lib;
#X declare -path ../hcj.lib;
#X declare -path ../hcj.lib;
#X declare -path ../hcj.lib;
#X declare -path .;
#X declare -path ../hcj.lib;
#X declare -path .;
#X obj 837 255 s~ master-noise;
#X obj 838 234 adc~;
#X obj 835 106 declare -path .;
#X obj 835 125 declare -path ../hcj.lib;
#X obj 895 144 hcj.lib.nano;
#X floatatom 835 85 5 0 0 0 - - -;
#X obj 835 144 pip.touch;
#N canvas 0 64 1001 384 drifters 0;
#X obj 146 330 / 127;
#X obj 230 332 / 127;
#X obj 230 417 line;
#X msg 230 398 \$1 1000;
#X obj 231 375 + 0.003;
#X obj 230 352 * 0.07;
#X obj 230 310 inlet;
#X obj 146 311 inlet;
#X obj 321 417 line;
#X msg 321 398 \$1 4000;
#X obj 321 437 s noise;
#X obj 321 377 + 0;
#X obj 321 355 * 1;
#X obj 321 335 / 127;
#X obj 320 314 inlet;
#X obj 230 439 s driftspeed;
#X obj 255 114 / 127;
#X msg 255 133 \$1 3000;
#X obj 169 187 *~;
#X obj 231 184 *~;
#X obj 255 155 line~;
#X obj 163 232 throw~ mL;
#X obj 231 223 throw~ mR;
#X obj 255 94 r nf1;
#X obj 177 82 r noise;
#X obj 143 37 r driftspeed;
#X obj 565 75 r noise;
#X obj 472 54 r driftspeed;
#X obj 879 80 r noise;
#X obj 785 58 r driftspeed;
#X obj 146 437 s driftwidth;
#X obj 165 61 r driftwidth;
#X obj 554 53 r driftwidth;
#X obj 869 55 r driftwidth;
#X obj 625 113 / 127;
#X msg 625 132 \$1 3000;
#X obj 539 186 *~;
#X obj 601 183 *~;
#X obj 625 154 line~;
#X obj 910 133 / 127;
#X msg 910 152 \$1 3000;
#X obj 824 206 *~;
#X obj 886 203 *~;
#X obj 910 174 line~;
#X obj 625 93 r nf2;
#X obj 910 113 r nf3;
#X obj 146 416 line;
#X msg 146 397 \$1 4000;
#X obj 692 67 r highwave;
#X obj 382 51 r midwave;
#X obj 31 47 r lowwave;
#X obj 758 35 r hightonic;
#X obj 453 30 r midtonic;
#X obj 58 71 r lowtonic;
#X obj 533 228 throw~ mL;
#X obj 600 225 throw~ mR;
#X obj 818 247 throw~ mL;
#X obj 889 244 throw~ mR;
#X obj 45 106 pip.tabledrifter 550 0.2 0.5;
#X obj 406 108 pip.tabledrifter 550 0.2 0.5;
#X obj 729 104 pip.tabledrifter 550 0.2 0.5;
#X obj 229 202 *~ 0.3;
#X obj 163 212 *~ 0.3;
#X obj 533 208 *~ 0.3;
#X obj 601 205 *~ 0.3;
#X obj 821 226 *~ 0.3;
#X obj 886 225 *~ 0.3;
#X obj 146 352 * 50;
#X obj 146 373 + 0.5;
#X obj 364 238 s~ driftermix;
#X obj 365 215 *~ 0.1;
#X obj 387 353 switch~;
#X obj 387 332 inlet;
#X connect 0 0 67 0;
#X connect 1 0 5 0;
#X connect 2 0 15 0;
#X connect 3 0 2 0;
#X connect 4 0 3 0;
#X connect 5 0 4 0;
#X connect 6 0 1 0;
#X connect 7 0 0 0;
#X connect 8 0 10 0;
#X connect 9 0 8 0;
#X connect 11 0 9 0;
#X connect 12 0 11 0;
#X connect 13 0 12 0;
#X connect 14 0 13 0;
#X connect 16 0 17 0;
#X connect 17 0 20 0;
#X connect 18 0 62 0;
#X connect 19 0 61 0;
#X connect 20 0 19 1;
#X connect 20 0 18 1;
#X connect 23 0 16 0;
#X connect 24 0 58 4;
#X connect 25 0 58 2;
#X connect 26 0 59 4;
#X connect 27 0 59 2;
#X connect 28 0 60 4;
#X connect 29 0 60 2;
#X connect 31 0 58 3;
#X connect 32 0 59 3;
#X connect 33 0 60 3;
#X connect 34 0 35 0;
#X connect 35 0 38 0;
#X connect 36 0 63 0;
#X connect 37 0 64 0;
#X connect 38 0 37 1;
#X connect 38 0 36 1;
#X connect 39 0 40 0;
#X connect 40 0 43 0;
#X connect 41 0 65 0;
#X connect 42 0 66 0;
#X connect 43 0 42 1;
#X connect 43 0 41 1;
#X connect 44 0 34 0;
#X connect 45 0 39 0;
#X connect 46 0 30 0;
#X connect 47 0 46 0;
#X connect 48 0 60 0;
#X connect 49 0 59 0;
#X connect 50 0 58 0;
#X connect 51 0 60 1;
#X connect 52 0 59 1;
#X connect 53 0 58 1;
#X connect 58 0 18 0;
#X connect 58 0 70 0;
#X connect 58 1 19 0;
#X connect 58 1 70 0;
#X connect 59 0 36 0;
#X connect 59 0 70 0;
#X connect 59 1 37 0;
#X connect 59 1 70 0;
#X connect 60 0 41 0;
#X connect 60 0 70 0;
#X connect 60 1 42 0;
#X connect 60 1 70 0;
#X connect 61 0 22 0;
#X connect 62 0 21 0;
#X connect 63 0 54 0;
#X connect 64 0 55 0;
#X connect 65 0 56 0;
#X connect 66 0 57 0;
#X connect 67 0 68 0;
#X connect 68 0 47 0;
#X connect 70 0 69 0;
#X connect 72 0 71 0;
#X restore 19 48 pd drifters;
#X obj 135 74 pip.timing;
#X obj 837 210 s tonic;
#X obj 19 27 r nk1;
#X obj 59 27 r nk2;
#X obj 97 27 r nk3;
#X obj 775 317 impulse~;
#X obj 873 337 / 127;
#X obj 873 376 line~;
#X obj 805 397 *~;
#X msg 873 356 \$1 30;
#X obj 775 298 r lfp1;
#X obj 18 93 pip.monosynth;
#X obj 718 37 table wndw;
#X obj 342 12 loadbang;
#X obj 718 55 table monosynth;
#X obj 718 18 table phasor;
#X obj 718 85 table driftlow1;
#X obj 719 106 table driftlow2;
#X obj 719 126 table driftlow3;
#X obj 837 169 loadbang;
#X obj 719 161 table driftmid1;
#X obj 720 182 table driftmid2;
#X obj 720 202 table driftmid3;
#X obj 720 230 table drifthigh1;
#X obj 721 251 table drifthigh2;
#X obj 721 271 table drifthigh3;
#X msg 837 189 60;
#N canvas 129 0 895 476 driftpitch 1;
#X msg 23 77 driftlow1;
#X msg 104 78 driftlow2;
#X msg 178 76 driftlow3;
#X msg 287 297 driftmid1;
#X msg 368 298 driftmid2;
#X msg 442 296 driftmid3;
#X msg 483 83 drifthigh1;
#X msg 564 84 drifthigh2;
#X msg 638 82 drifthigh3;
#X obj 255 100 s lowtonic;
#X msg 255 81 2;
#X obj 53 37 t b b;
#X obj 184 40 t b b;
#X obj 128 40 t b b;
#X msg 672 105 2;
#X obj 450 46 t b b;
#X obj 640 34 t b b;
#X obj 571 45 t b b;
#X obj 342 257 t b b;
#X obj 473 260 t b b;
#X obj 417 260 t b b;
#X obj 672 130 s hightonic;
#X obj 497 363 s midtonic;
#X msg 444 330 2.66666;
#X msg 513 327 3;
#X obj 468 122 s highwave;
#X obj 300 337 s midwave;
#X obj 36 117 s lowwave;
#X obj 466 15 r tb1-c1;
#X obj 550 12 r tb1-c2;
#X obj 649 9 r tb1-c3;
#X obj 339 200 r tb1-b1;
#X obj 397 199 r tb1-b2;
#X obj 451 199 r tb1-b3;
#X obj 589 198 r tb1-b4;
#X obj 652 196 r tb1-b5;
#X obj 623 263 t b b;
#X obj 567 263 t b b;
#X msg 555 324 3.33333;
#X msg 619 328 5.33333;
#X msg 685 325 8;
#X obj 329 32 t b b;
#X obj 274 34 t b b;
#X obj 804 33 t b b;
#X obj 735 44 t b b;
#X obj 813 8 r tb1-c5;
#X obj 714 11 r tb1-c4;
#X msg 725 101 6;
#X msg 792 100 8;
#X msg 294 74 3;
#X obj 110 -68 key;
#X obj 110 -47 select 113 119 101 114 116;
#X obj 305 145 key;
#X obj 460 -58 key;
#X obj 460 -37 select 97 115 100 102 103;
#X obj 304 168 select 122 120 99 118 98;
#X connect 0 0 27 0;
#X connect 1 0 27 0;
#X connect 2 0 27 0;
#X connect 3 0 26 0;
#X connect 4 0 26 0;
#X connect 5 0 26 0;
#X connect 6 0 25 0;
#X connect 7 0 25 0;
#X connect 8 0 25 0;
#X connect 10 0 9 0;
#X connect 11 0 0 0;
#X connect 11 1 10 0;
#X connect 12 0 2 0;
#X connect 12 1 10 0;
#X connect 13 0 1 0;
#X connect 13 1 10 0;
#X connect 14 0 21 0;
#X connect 15 0 6 0;
#X connect 15 1 14 0;
#X connect 16 0 8 0;
#X connect 16 1 14 0;
#X connect 17 0 7 0;
#X connect 17 1 14 0;
#X connect 18 0 3 0;
#X connect 18 1 23 0;
#X connect 19 0 5 0;
#X connect 19 1 38 0;
#X connect 20 0 4 0;
#X connect 20 1 24 0;
#X connect 23 0 22 0;
#X connect 24 0 22 0;
#X connect 28 0 15 0;
#X connect 29 0 17 0;
#X connect 30 0 16 0;
#X connect 31 0 18 0;
#X connect 32 0 20 0;
#X connect 33 0 19 0;
#X connect 34 0 37 0;
#X connect 35 0 36 0;
#X connect 36 0 5 0;
#X connect 36 1 40 0;
#X connect 37 0 5 0;
#X connect 37 1 39 0;
#X connect 38 0 22 0;
#X connect 39 0 22 0;
#X connect 40 0 22 0;
#X connect 41 0 2 0;
#X connect 41 1 49 0;
#X connect 42 0 1 0;
#X connect 42 1 49 0;
#X connect 43 0 8 0;
#X connect 43 1 48 0;
#X connect 44 0 7 0;
#X connect 44 1 47 0;
#X connect 45 0 43 0;
#X connect 46 0 44 0;
#X connect 47 0 21 0;
#X connect 48 0 21 0;
#X connect 49 0 9 0;
#X connect 50 0 51 0;
#X connect 52 0 55 0;
#X connect 53 0 54 0;
#X connect 54 0 15 0;
#X connect 54 0 11 0;
#X connect 54 1 17 0;
#X connect 54 1 13 0;
#X connect 54 2 16 0;
#X connect 54 2 12 0;
#X connect 54 3 44 0;
#X connect 54 3 42 0;
#X connect 54 4 43 0;
#X connect 54 4 41 0;
#X connect 55 0 18 0;
#X connect 55 1 20 0;
#X connect 55 2 19 0;
#X connect 55 3 37 0;
#X connect 55 4 36 0;
#X restore 18 74 pd driftpitch;
#X obj 873 317 r nf6;
#X obj 832 317 r nk6;
#X obj 727 359 hcj.lib.cross~;
#X obj 727 338 impulse~;
#X obj 732 317 r lfpa;
#X obj 833 336 / 127;
#X obj 726 298 r nb6-2;
#N canvas 305 316 719 284 output 0;
#X restore 835 40 pd output;
#X obj 835 63 dsp;
#X floatatom 873 85 5 0 0 0 - - -;
#X obj 133 135 bng 15 250 50 0 empty empty empty 17 7 0 10 -262144
-1 -1;
#X obj 17 136 bng 15 250 50 0 empty empty empty 17 7 0 10 -262144 -1
-1;
#X obj 133 116 r metro1-to-jason;
#X obj 17 117 r metro2-to-jason;
#X obj 493 267 r lfp1t;
#X floatatom 493 286 5 0 0 0 - - -;
#X floatatom 354 285 5 0 0 0 - - -;
#X obj 354 267 r lfpat;
#X floatatom 403 285 5 0 0 0 - - -;
#X obj 403 266 /;
#X obj 342 248 t b f;
#X msg 403 247 60000;
#X floatatom 545 286 5 0 0 0 - - -;
#X obj 545 267 /;
#X obj 455 259 t b f;
#X msg 545 248 60000;
#X obj 623 248 r melody-hz;
#X floatatom 623 267 5 0 0 0 - - -;
#X obj 623 299 s melody-hz;
#X floatatom 623 283 5 0 0 0 - - -;
#X obj 714 429 dac~;
#X obj 521 368 catch~ mL;
#X obj 647 368 catch~ mR;
#X obj 577 393 hcj.lib.limit;
#X obj 354 406 pip.440;
#X obj 252 372 r~ master-noise;
#X obj 586 368 catch~ mM;
#X obj 354 468 throw~ mM;
#X obj 450 390 / 127;
#X obj 450 429 line~;
#X obj 354 449 *~;
#X msg 450 409 \$1 3000;
#X obj 450 370 r nf5;
#X obj 390 362 r nk5;
#X obj 390 381 / 127;
#X text 59 13 speed;
#X text 20 12 width;
#X text 98 10 noise;
#X obj 136 47 tgl 15 0 empty empty empty 17 7 0 10 -262144 -1 -1 0
1;
#X obj 136 27 r nb1-1;
#X text 154 47 drift dsp;
#X obj 428 347 r nb5-1;
#X obj 428 366 tgl 15 0 empty empty empty 17 7 0 10 -262144 -1 -1 0
1;
#X obj 351 382 / 127;
#X obj 351 363 r nk4;
#X obj 354 425 *~ 1;
#X text 362 345 d;
#X text 399 344 q;
#X obj 727 382 *~ 200;
#X obj 16 166 r lowtonic;
#X obj 16 334 r midtonic;
#X obj 190 169 r hightonic;
#X floatatom 16 189 5 0 0 0 - - -;
#X floatatom 16 357 5 0 0 0 - - -;
#X floatatom 190 192 5 0 0 0 - - -;
#X obj 16 229 prepend set;
#X obj 16 211 r lowwave;
#X msg 54 188 driftlow2;
#X obj 190 232 prepend set;
#X msg 229 190 drifthigh2;
#X obj 190 214 r highwave;
#X obj 16 396 prepend set;
#X msg 56 356 driftmid3;
#X obj 16 378 r midwave;
#X text 101 269 1 3 5 7;
#X text 101 283 1 2 3 4 5 7;
#X msg 342 32 \; wndw sinesum 512 1 \; wndw read sine-wndw.txt \; monosynth
sinesum 512 0.75 0.25 \; phasor sinesum 512 1 \; driftlow1 sinesum
512 0.25 0 0.25 0 0.25 0 0.1 \; driftlow2 sinesum 512 0.25 0.125 0.125
0.125 0.25 0 0.1 \; driftlow3 sinesum 512 0.5 0.25 0.1 0.125 0 0 0.1
\; driftmid1 sinesum 512 0.75 0.25 \; driftmid2 sinesum 512 0.5 0.25
0.25 \; driftmid3 sinesum 512 0.6 0.2 0.1 0.1 \; drifthigh1 sinesum
512 0.25 0.5 0 0.5 \; drifthigh2 sinesum 512 0 0.125 0 0.25 0 0.125
0 0.25 0 0 0 0.25 \; drifthigh3 sinesum 512 0.25 0.125 0.125 0.25 0
0.125 0 0.125 0.125 \; phasor read phasor.txt;
#X text 101 297 1 2 3 4 7;
#X connect 1 0 0 0;
#X connect 1 1 0 0;
#X connect 10 0 7 0;
#X connect 11 0 7 1;
#X connect 12 0 7 2;
#X connect 13 0 38 1;
#X connect 14 0 17 0;
#X connect 15 0 16 1;
#X connect 16 0 66 0;
#X connect 16 0 66 1;
#X connect 17 0 15 0;
#X connect 18 0 13 0;
#X connect 21 0 112 0;
#X connect 27 0 34 0;
#X connect 34 0 9 0;
#X connect 36 0 14 0;
#X connect 37 0 41 0;
#X connect 38 0 94 0;
#X connect 39 0 38 0;
#X connect 40 0 39 0;
#X connect 41 0 38 2;
#X connect 42 0 13 0;
#X connect 42 0 39 0;
#X connect 44 0 5 0;
#X connect 44 1 45 0;
#X connect 48 0 46 0;
#X connect 49 0 47 0;
#X connect 50 0 51 0;
#X connect 51 0 60 0;
#X connect 52 0 56 0;
#X connect 53 0 52 0;
#X connect 55 0 54 0;
#X connect 56 0 57 0;
#X connect 56 1 55 1;
#X connect 57 0 55 0;
#X connect 59 0 58 0;
#X connect 60 0 61 0;
#X connect 60 1 59 1;
#X connect 61 0 59 0;
#X connect 62 0 63 0;
#X connect 65 0 64 0;
#X connect 67 0 69 0;
#X connect 68 0 69 1;
#X connect 69 0 66 0;
#X connect 69 1 66 1;
#X connect 70 0 91 0;
#X connect 71 0 70 0;
#X connect 72 0 69 0;
#X connect 72 0 69 1;
#X connect 74 0 77 0;
#X connect 75 0 76 1;
#X connect 76 0 73 0;
#X connect 77 0 75 0;
#X connect 78 0 74 0;
#X connect 79 0 80 0;
#X connect 80 0 70 2;
#X connect 84 0 7 3;
#X connect 85 0 84 0;
#X connect 87 0 88 0;
#X connect 88 0 70 3;
#X connect 89 0 70 1;
#X connect 90 0 89 0;
#X connect 91 0 76 0;
#X connect 94 0 16 0;
#X connect 95 0 98 0;
#X connect 96 0 99 0;
#X connect 97 0 100 0;
#X connect 101 0 103 0;
#X connect 102 0 101 0;
#X connect 104 0 105 0;
#X connect 106 0 104 0;
#X connect 107 0 108 0;
#X connect 109 0 107 0;
