#N canvas 832 455 1009 506 10;
#X declare -path .;
#X declare -path ../hcj.lib;
#X obj 800 34 declare -path .;
#X obj 800 53 declare -path ../hcj.lib;
#X obj 800 72 hcj.lib.nano;
#X floatatom 905 30 5 0 0 0 - - -;
#X obj 774 12 table wndw;
#X obj 638 12 loadbang;
#X obj 694 12 table phasor;
#X obj 748 452 dac~;
#X obj 707 363 catch~ mL;
#X obj 831 364 catch~ mR;
#X obj 738 389 hcj.lib.limit;
#X obj 770 364 catch~ mM;
#X obj 881 170 adc~ 1 2;
#X obj 9 31 phasor~ 1.01;
#X msg 638 32 \; wndw sinesum 512 1 \; wndw read sine-wndw.txt \; phasor
sinesum 512 1 \; phasor read phasor.txt;
#X obj 917 112 r nb9-2;
#X obj 917 133 s killall;
#X obj 881 191 hcj.lib.limit;
#X obj 905 12 hcj.lib.cpu;
#X obj 747 427 pip.rainbow~;
#X obj 839 384 r nf8;
#X obj 839 403 / 127;
#X obj 7 77 hcj.lib.throw2~ nf1 1000;
#X obj 8 52 hcj.lib.stereograin~ mic;
#X obj 880 213 s~ inputs;
#X obj 8 100 r~ inputs;
#X obj 166 75 hcj.lib.throw2~ nf1 1000;
#X obj 167 50 hcj.lib.stereograin~ mic;
#X obj 11 185 phasor~ 1.01;
#X obj 10 254 r~ inputs;
#X obj 10 206 hcj.lib.stereograin~ mic2;
#X obj 169 204 hcj.lib.stereograin~ mic2;
#X obj 168 229 hcj.lib.throw2~ nf2 1000;
#X obj 9 231 hcj.lib.throw2~ nf2 1000;
#X obj 168 29 phasor~ 0.5;
#X obj 7 120 hcj.lib.overdub~ mic 88200 0.9 nb1-1 nb1-2;
#X obj 9 274 hcj.lib.overdub~ mic2 88200 0.9 nb2-1 nb2-2;
#X obj 170 183 phasor~ 0.75;
#X obj 390 232 osc~ 220;
#X obj 459 234 osc~ 110;
#X obj 409 315 dac~ 1 2 3 4;
#X obj 539 234 osc~ 330;
#X obj 623 221 osc~ 440;
#X connect 5 0 14 0;
#X connect 8 0 10 0;
#X connect 9 0 10 1;
#X connect 10 0 19 0;
#X connect 10 1 19 1;
#X connect 11 0 10 0;
#X connect 11 0 10 1;
#X connect 12 0 17 0;
#X connect 12 1 17 1;
#X connect 13 0 23 0;
#X connect 15 0 16 0;
#X connect 17 0 24 0;
#X connect 17 1 24 0;
#X connect 18 0 3 0;
#X connect 19 0 7 0;
#X connect 19 1 7 1;
#X connect 20 0 21 0;
#X connect 21 0 19 2;
#X connect 23 0 22 0;
#X connect 23 1 22 1;
#X connect 25 0 35 0;
#X connect 27 0 26 0;
#X connect 27 1 26 1;
#X connect 28 0 30 0;
#X connect 29 0 36 0;
#X connect 30 0 33 0;
#X connect 30 1 33 1;
#X connect 31 0 32 0;
#X connect 31 1 32 1;
#X connect 34 0 27 0;
#X connect 37 0 31 0;
#X connect 38 0 40 0;
#X connect 39 0 40 1;
#X connect 41 0 40 2;
#X connect 42 0 40 3;
