#N canvas 31 87 450 400 10;
#X obj 71 216 s foo;
#X obj 117 215 s bar;
#X obj 164 218 s baz;
#X obj 64 45 r foo;
#X obj 64 84 print foo;
#X obj 165 87 print bar;
#X obj 238 86 print baz;
#X obj 165 48 r bar;
#X obj 238 47 r baz;
#X obj 85 181 route foo bar baz;
#X obj 85 161 netreceive 3000;
#X floatatom 217 188 5 0 0 0 - - -;
#X connect 3 0 4 0;
#X connect 7 0 5 0;
#X connect 8 0 6 0;
#X connect 9 0 0 0;
#X connect 9 1 1 0;
#X connect 9 2 2 0;
#X connect 10 0 9 0;
#X connect 10 1 11 0;
