#N canvas 550 283 1314 455 10;
#X obj 613 331 s \$1;
#X obj 613 288 netreceive 3005;
#X obj 613 309 route partial;
#X obj 500 333 print partials;
#X connect 1 0 2 0;
#X connect 1 0 3 0;
#X connect 2 0 0 0;
