#N canvas 1106 561 992 417 10;
#X declare -path ../hcj.lib;
#X obj 809 22 declare -path ../hcj.lib;
#X obj 34 345 outlet~;
#X obj 582 325 outlet~;
#X obj 457 34 inlet;
#X text 51 33 inlets: p1 offset \, p2 offset \, p3 offset \, auto on/off
\, speed;
#X obj 24 216 *~ 0.8;
#X obj 575 188 *~ 0.8;
#X obj 801 169 random 8000;
#X obj 801 215 float;
#X obj 801 191 t b f;
#X obj 802 147 loadbang;
#X obj 614 267 delwrite~ \$0-delaylineR 8000;
#X obj 375 159 random 8000;
#X obj 375 206 float;
#X obj 375 182 t b f;
#X obj 376 137 loadbang;
#X obj 801 235 delread~ \$0-delaylineL 8000;
#X obj 49 251 delwrite~ \$0-delaylineL 8000;
#X obj 797 284 random 8000;
#X obj 797 331 float;
#X obj 797 307 t b f;
#X obj 798 262 loadbang;
#X obj 367 280 random 8000;
#X obj 367 326 float;
#X obj 367 302 t b f;
#X obj 368 258 loadbang;
#X obj 367 346 delread~ \$0-delaylineL 8000;
#X obj 370 231 delread~ \$0-delaylineR 4000;
#X obj 794 352 delread~ \$0-delaylineR 4000;
#X obj 457 59 unpack 1 1 1 1;
#X obj 76 58 r lfp1t;
#X obj 541 134 hcj.lib.sample resampler;
#X obj 303 64 r lfp1t;
#X obj 674 74 r lfp1t;
#X obj 906 73 r lfp1t;
#X obj 26 160 hcj.lib.sample resampler;
#X obj 182 158 hcj.lib.sample resampler;
#X obj 767 123 hcj.lib.sample resampler;
#X connect 3 0 29 0;
#X connect 5 0 1 0;
#X connect 5 0 17 0;
#X connect 6 0 2 0;
#X connect 6 0 11 0;
#X connect 7 0 9 0;
#X connect 8 0 16 0;
#X connect 9 0 8 0;
#X connect 9 1 8 1;
#X connect 10 0 7 0;
#X connect 12 0 14 0;
#X connect 13 0 27 0;
#X connect 14 0 13 0;
#X connect 14 1 13 1;
#X connect 15 0 12 0;
#X connect 16 0 2 0;
#X connect 18 0 20 0;
#X connect 19 0 28 0;
#X connect 20 0 19 0;
#X connect 20 1 19 1;
#X connect 21 0 18 0;
#X connect 22 0 24 0;
#X connect 23 0 26 0;
#X connect 24 0 23 0;
#X connect 24 1 23 1;
#X connect 25 0 22 0;
#X connect 26 0 1 0;
#X connect 27 0 1 0;
#X connect 28 0 2 0;
#X connect 29 0 35 0;
#X connect 29 1 36 0;
#X connect 29 2 31 0;
#X connect 29 3 37 0;
#X connect 30 0 35 1;
#X connect 31 0 6 0;
#X connect 32 0 36 1;
#X connect 33 0 31 1;
#X connect 34 0 37 1;
#X connect 35 0 5 0;
#X connect 36 0 5 0;
#X connect 37 0 6 0;
