#N canvas 35 24 978 478 10;
#X declare -path ../hcj.lib;
#X obj 107 519 outlet~;
#X obj 342 78 inlet;
#X obj 8 80 inlet;
#X obj 232 83 inlet;
#X obj 159 429 clip~ -1 1;
#X obj 159 409 max~;
#X obj 483 79 inlet;
#X obj 179 385 r~ master-noise;
#X obj 374 11 declare -path ../hcj.lib;
#X obj 147 294 *~ \$3;
#X obj 147 233 osc~ \$2;
#X obj 147 274 /~ 2;
#X obj 147 252 +~ 1;
#X obj 186 177 loadbang;
#X obj 186 195 random 100;
#X obj 186 213 / 100;
#X text 18 8 inlets: base freq (hz) \, drift speed (ms) \, drift width
(hz*0-1) \, noise mix;
#X text 23 48 args: base freq (hz) \, drift speed (cps) \, drift amount
(*hz);
#X obj 108 497 *~;
#X text 1289 45 amplitude modulation;
#X obj 147 156 r \$0-driftspeed;
#X obj 232 101 s \$0-driftspeed;
#X obj 342 101 s \$0-driftwidth;
#X obj 181 274 r \$0-driftwidth;
#X obj 230 429 r \$0-noisemix;
#X obj 483 100 s \$0-noisemix;
#X obj 107 322 +~;
#X obj -95 252 sig~ 60;
#X obj -95 230 * 2;
#X obj 8 98 s \$0-waveform;
#X obj 153 318 r \$0-waveform;
#X obj -50 184 r tonic;
#X obj 99 85 inlet;
#X obj 99 104 s \$0-tonicmultiplier;
#X obj -85 135 r \$0-tonicmultiplier;
#X obj -95 207 float 60;
#X obj -95 185 t b f;
#X obj -162 403 random 8000;
#X obj -162 442 float;
#X obj -162 422 t b f;
#X obj -162 384 loadbang;
#X obj -81 354 random 8000;
#X obj -81 393 float;
#X obj -81 373 t b f;
#X obj -81 336 loadbang;
#X obj 108 364 tabosc4~ monosynth;
#X obj -15 211 r melody-hz;
#X obj -15 248 line~;
#X msg -15 229 \$1 2000;
#X obj 36 164 r nk4;
#X obj 36 185 / 127;
#X obj -95 279 hcj.lib.cross~ 6000;
#X obj 107 453 hcj.lib.cross~ 500;
#X obj 59 236 random 10000;
#X obj 59 254 + 5000;
#X obj 96 132 hcj.lib.randmetro 8000 1500;
#X obj 366 401 tabread4~ wndw;
#X obj 372 513 outlet;
#X obj -71 518 delwrite~ \$0-delayline 8000;
#X obj -81 412 delread~ \$0-delayline 4000;
#X obj -162 464 delread~ \$0-delayline 4000;
#X obj 125 475 r~ \$0-am;
#X obj 421 179 r \$0-amBang;
#X obj 366 423 s~ \$0-am;
#X obj 353 231 s \$0-amBang;
#X obj 372 494 r \$0-amBang;
#X obj 367 376 *~ 512;
#X obj 366 354 line~;
#X obj 315 161 loadbang;
#X msg 315 183 1;
#X obj 438 226 + 5000;
#X obj 365 311 float 8000;
#X msg 366 333 0 \, 1 \$1;
#X obj 436 246 t f f;
#X obj 438 205 random 10000;
#X obj -122 108 r \$0-amBang;
#X obj -95 163 float;
#X obj 583 209 * 5000;
#X obj 604 167 + 500;
#X obj 583 229 + 80;
#X obj 604 145 * 10000;
#X obj 680 60 r nk9;
#X obj 684 132 / 127;
#X obj 684 90 - 127;
#X obj 685 111 * -1;
#X obj 465 268 + 100;
#X obj 315 204 metro 8100;
#X obj 350 284 del 100;
#X connect 1 0 22 0;
#X connect 2 0 29 0;
#X connect 3 0 21 0;
#X connect 4 0 52 1;
#X connect 5 0 4 0;
#X connect 6 0 25 0;
#X connect 7 0 5 1;
#X connect 9 0 26 1;
#X connect 10 0 12 0;
#X connect 11 0 9 0;
#X connect 12 0 11 0;
#X connect 13 0 14 0;
#X connect 14 0 15 0;
#X connect 15 0 10 1;
#X connect 18 0 0 0;
#X connect 18 0 58 0;
#X connect 20 0 10 0;
#X connect 23 0 9 1;
#X connect 24 0 52 2;
#X connect 26 0 45 0;
#X connect 27 0 51 0;
#X connect 28 0 27 0;
#X connect 30 0 45 0;
#X connect 31 0 35 1;
#X connect 32 0 33 0;
#X connect 34 0 76 1;
#X connect 35 0 28 0;
#X connect 36 0 35 0;
#X connect 36 1 28 1;
#X connect 37 0 39 0;
#X connect 38 0 60 0;
#X connect 39 0 38 0;
#X connect 39 1 38 1;
#X connect 40 0 37 0;
#X connect 41 0 43 0;
#X connect 42 0 59 0;
#X connect 43 0 42 0;
#X connect 43 1 42 1;
#X connect 44 0 41 0;
#X connect 45 0 5 0;
#X connect 45 0 52 0;
#X connect 46 0 48 0;
#X connect 47 0 51 1;
#X connect 48 0 47 0;
#X connect 49 0 50 0;
#X connect 50 0 51 2;
#X connect 51 0 26 0;
#X connect 52 0 18 0;
#X connect 53 0 54 0;
#X connect 54 0 51 3;
#X connect 55 0 53 0;
#X connect 56 0 63 0;
#X connect 59 0 0 0;
#X connect 60 0 0 0;
#X connect 61 0 18 1;
#X connect 62 0 74 0;
#X connect 65 0 57 0;
#X connect 66 0 56 0;
#X connect 67 0 66 0;
#X connect 68 0 69 0;
#X connect 69 0 86 0;
#X connect 70 0 73 0;
#X connect 71 0 72 0;
#X connect 72 0 67 0;
#X connect 73 0 71 1;
#X connect 73 1 85 0;
#X connect 74 0 70 0;
#X connect 75 0 76 0;
#X connect 76 0 36 0;
#X connect 77 0 79 0;
#X connect 78 0 74 1;
#X connect 79 0 70 1;
#X connect 80 0 78 0;
#X connect 81 0 83 0;
#X connect 82 0 80 0;
#X connect 82 0 77 0;
#X connect 83 0 84 0;
#X connect 84 0 82 0;
#X connect 85 0 86 1;
#X connect 86 0 64 0;
#X connect 86 0 87 0;
#X connect 87 0 71 0;
