#N canvas 191 126 741 300 10;
#X obj 74 187 tabread4~ \$0-rainbowL;
#X obj 38 249 outlet~;
#X obj 250 241 outlet~;
#X obj 39 229 hcj.lib.cross~ 100;
#X obj 250 222 hcj.lib.cross~ 100;
#X obj 5 1 inlet~;
#X obj 74 1 inlet~;
#X obj 5 20 s~ \$0-inL;
#X obj 74 20 s~ \$0-inR;
#X obj 5 203 r~ \$0-inL;
#X obj 215 188 r~ \$0-inR;
#X obj 160 1 inlet;
#X obj 160 20 s \$0-mix;
#X obj 320 204 r \$0-mix;
#X obj 109 207 r \$0-mix;
#X obj 284 186 tabread4~ \$0-rainbowR;
#X obj 314 53 tabwrite~ \$0-rainbowL;
#X obj 317 11 tabwrite~ \$0-rainbowR;
#X obj 500 211 s~ \$0-phasor;
#X obj 74 143 r~ \$0-phasor;
#X obj 492 95 s \$0-writeL;
#X obj 515 117 s \$0-writeR;
#X obj 591 118 s \$0-phase;
#X obj 315 33 r~ \$0-inL;
#X obj 317 -10 r~ \$0-inR;
#X obj 380 -10 r \$0-writeR;
#X obj 378 32 r \$0-writeL;
#X obj 500 190 line~;
#X obj 498 148 r \$0-phase;
#X obj 265 113 r~ \$0-phasor;
#X obj 519 9 loadbang;
#X obj 160 -18 table \$0-rainbowR 441000;
#X obj 5 -18 table \$0-rainbowL 441000;
#X obj 386 103 +~ 1;
#X obj 386 122 /~ 2;
#X obj 157 113 +~ 1;
#X obj 157 132 /~ 2;
#X obj 155 168 +~ 1;
#X obj 74 167 *~;
#X obj 284 165 *~;
#X obj 386 161 +~ 1;
#X obj 156 94 osc~ 0.4;
#X obj 386 83 osc~ 0.3;
#X obj 157 151 *~ 0.001;
#X obj 385 141 *~ 0.001;
#X obj 591 99 del 10;
#X msg 499 170 0 \, 441000 10000;
#X obj 519 29 float 1;
#X obj 520 71 t b b b;
#X obj 519 49 metro 10010;
#X connect 0 0 3 1;
#X connect 3 0 1 0;
#X connect 4 0 2 0;
#X connect 5 0 7 0;
#X connect 6 0 8 0;
#X connect 9 0 3 0;
#X connect 10 0 4 0;
#X connect 11 0 12 0;
#X connect 13 0 4 2;
#X connect 14 0 3 2;
#X connect 15 0 4 1;
#X connect 19 0 38 0;
#X connect 23 0 16 0;
#X connect 24 0 17 0;
#X connect 25 0 17 0;
#X connect 26 0 16 0;
#X connect 27 0 18 0;
#X connect 28 0 46 0;
#X connect 29 0 39 0;
#X connect 30 0 47 0;
#X connect 33 0 34 0;
#X connect 34 0 44 0;
#X connect 35 0 36 0;
#X connect 36 0 43 0;
#X connect 37 0 38 1;
#X connect 38 0 0 0;
#X connect 39 0 15 0;
#X connect 40 0 39 1;
#X connect 41 0 35 0;
#X connect 42 0 33 0;
#X connect 43 0 37 0;
#X connect 44 0 40 0;
#X connect 45 0 22 0;
#X connect 46 0 27 0;
#X connect 47 0 49 0;
#X connect 48 0 20 0;
#X connect 48 1 21 0;
#X connect 48 2 45 0;
#X connect 49 0 48 0;
