#N canvas 0 0 992 417 10;
#X declare -path ../hcj.lib;
#X obj 235 224 pack 0 5000 1.25;
#X obj 811 366 declare -path ../hcj.lib;
#X obj 52 357 outlet~;
#X obj 605 359 outlet~;
#X obj 53 222 pack 0 5000 1.25;
#X obj 604 214 pack 0 5000 1.25;
#X obj 482 18 inlet;
#X obj 53 187 float 0;
#X obj 233 195 float 0;
#X obj 604 180 float 0;
#X obj 595 119 t b f;
#X obj 245 132 t b f;
#X obj 57 125 t b f;
#X text 51 33 inlets: p1 offset \, p2 offset \, p3 offset \, auto on/off
\, speed;
#X obj 432 230 pack 0 5000 1.25;
#X obj 432 196 float 0;
#X obj 21 300 hcj.lib.aaaa 10000 50 35 15;
#X obj 481 39 unpack 2.5 1.25 0.625 2.5;
#X obj 498 78 hcj.lib.randmetro 4000 300;
#X obj 180 74 hcj.lib.randmetro 4000 300;
#X obj 14 75 hcj.lib.randmetro 4000 300;
#X obj 53 241 hcj.lib.play \$1;
#X obj 235 243 hcj.lib.play \$1;
#X obj 432 249 hcj.lib.play \$1;
#X obj 604 233 hcj.lib.play \$1;
#X obj 14 94 random \$2;
#X obj 180 96 random \$2;
#X obj 496 100 random \$2;
#X obj 121 157 r lfp1;
#X obj 285 164 r lfp2;
#X obj 434 157 r lfp3;
#X obj 558 151 r lfp4;
#X obj 348 69 hcj.lib.randmetro 4000 300;
#X obj 346 91 random \$2;
#X obj 349 122 t b f;
#X obj 214 299 hcj.lib.aaaa 10000 500 35 15;
#X obj 408 301 hcj.lib.aaaa 10000 50 35 15;
#X obj 601 300 hcj.lib.aaaa 10000 500 35 15;
#X obj 167 269 r lfp1;
#X obj 378 276 r lfp2;
#X obj 559 273 r lfp3;
#X obj 765 272 r lfp4;
#X obj 243 274 r~ master-noise;
#X obj 60 272 r~ master-noise;
#X obj 450 274 r~ master-noise;
#X obj 638 271 r~ master-noise;
#X connect 0 0 22 0;
#X connect 4 0 21 0;
#X connect 5 0 24 0;
#X connect 6 0 17 0;
#X connect 7 0 4 0;
#X connect 8 0 0 0;
#X connect 9 0 5 0;
#X connect 10 0 9 0;
#X connect 10 1 9 1;
#X connect 11 0 8 0;
#X connect 11 1 8 1;
#X connect 12 0 7 0;
#X connect 12 1 7 1;
#X connect 14 0 23 0;
#X connect 15 0 14 0;
#X connect 16 0 2 0;
#X connect 16 1 2 0;
#X connect 17 0 4 2;
#X connect 17 1 0 2;
#X connect 17 2 14 2;
#X connect 17 3 5 2;
#X connect 18 0 27 0;
#X connect 19 0 26 0;
#X connect 20 0 25 0;
#X connect 21 0 16 0;
#X connect 22 0 35 0;
#X connect 23 0 36 0;
#X connect 24 0 37 0;
#X connect 25 0 12 0;
#X connect 26 0 11 0;
#X connect 27 0 10 0;
#X connect 28 0 7 0;
#X connect 29 0 8 0;
#X connect 30 0 15 0;
#X connect 31 0 9 0;
#X connect 32 0 33 0;
#X connect 33 0 34 0;
#X connect 34 0 15 0;
#X connect 34 1 15 1;
#X connect 35 0 2 0;
#X connect 35 1 2 0;
#X connect 36 0 3 0;
#X connect 36 1 3 0;
#X connect 37 0 3 0;
#X connect 37 1 3 0;
#X connect 38 0 16 2;
#X connect 39 0 35 2;
#X connect 40 0 36 2;
#X connect 41 0 37 2;
#X connect 42 0 35 1;
#X connect 43 0 16 1;
#X connect 44 0 36 1;
#X connect 45 0 37 1;
