#N canvas 27 85 992 417 10;
#X declare -path ../hcj.lib;
#X obj 809 22 declare -path ../hcj.lib;
#X obj 145 384 outlet~;
#X obj 600 384 outlet~;
#X obj 504 21 inlet;
#X text 51 33 inlets: p1 offset \, p2 offset \, p3 offset \, auto on/off
\, speed;
#X obj 26 92 r lfp1;
#X obj 182 92 r lfp2;
#X obj 575 89 r lfp3;
#X obj 767 53 r lfp4;
#X obj 504 46 unpack 2 1 0.5 1;
#X obj 182 114 hcj.lib.mask 8;
#X obj 25 112 hcj.lib.mask 4;
#X obj 767 73 hcj.lib.mask 8;
#X obj 24 216 *~ 0.8;
#X obj 575 188 *~ 0.8;
#X obj 182 158 hcj.lib.sample resampler;
#X obj 350 164 random 8000;
#X obj 350 210 float;
#X obj 350 186 t b f;
#X obj 351 142 loadbang;
#X obj 598 215 delwrite~ \$0-delaylineR 8000;
#X obj 792 172 random 8000;
#X obj 792 219 float;
#X obj 792 195 t b f;
#X obj 793 150 loadbang;
#X obj 794 242 delread~ \$0-delaylineR 8000;
#X obj 350 230 delread~ \$0-delaylineL 8000;
#X obj 61 243 delwrite~ \$0-delaylineL 8000;
#X obj 797 284 random 8000;
#X obj 797 331 float;
#X obj 797 307 t b f;
#X obj 798 262 loadbang;
#X obj 799 354 delread~ \$0-delaylineR 8000;
#X obj 352 276 random 8000;
#X obj 352 322 float;
#X obj 352 298 t b f;
#X obj 353 254 loadbang;
#X obj 352 342 delread~ \$0-delaylineL 8000;
#X obj 26 160 hcj.lib.sample resampler;
#X obj 575 160 hcj.lib.sample resampler;
#X obj 766 121 hcj.lib.sample resampler;
#X obj 24 138 float;
#X obj 182 137 float;
#X obj 575 136 float;
#X obj 768 98 float;
#X obj 575 110 hcj.lib.mask 4;
#X connect 3 0 9 0;
#X connect 5 0 11 0;
#X connect 6 0 10 0;
#X connect 7 0 45 0;
#X connect 8 0 12 0;
#X connect 9 0 41 1;
#X connect 9 1 42 1;
#X connect 9 2 43 1;
#X connect 9 3 44 1;
#X connect 10 0 42 0;
#X connect 11 0 41 0;
#X connect 12 0 44 0;
#X connect 13 0 1 0;
#X connect 13 0 27 0;
#X connect 14 0 2 0;
#X connect 14 0 20 0;
#X connect 15 0 13 0;
#X connect 16 0 18 0;
#X connect 17 0 26 0;
#X connect 18 0 17 0;
#X connect 18 1 17 1;
#X connect 19 0 16 0;
#X connect 21 0 23 0;
#X connect 22 0 25 0;
#X connect 23 0 22 0;
#X connect 23 1 22 1;
#X connect 24 0 21 0;
#X connect 25 0 2 0;
#X connect 26 0 1 0;
#X connect 28 0 30 0;
#X connect 29 0 32 0;
#X connect 30 0 29 0;
#X connect 30 1 29 1;
#X connect 31 0 28 0;
#X connect 32 0 2 0;
#X connect 33 0 35 0;
#X connect 34 0 37 0;
#X connect 35 0 34 0;
#X connect 35 1 34 1;
#X connect 36 0 33 0;
#X connect 37 0 1 0;
#X connect 38 0 13 0;
#X connect 39 0 14 0;
#X connect 40 0 14 0;
#X connect 41 0 38 0;
#X connect 42 0 15 0;
#X connect 43 0 39 0;
#X connect 44 0 40 0;
#X connect 45 0 43 0;
