#N canvas 335 214 1415 595 10;
#X obj 35 350 tabosc4~ \$0-overtone;
#X obj 591 120 table \$0-overtone;
#X obj 591 19 loadbang;
#X obj 423 305 s \$0-setwave;
#X obj 268 304 s \$0-setwave;
#X obj 590 249 tabdump \$0-overtone;
#X obj 389 218 t b b b b;
#X obj 590 269 tabset \$0-overtone-tmp;
#X text 656 19 init wavetables;
#X obj 591 141 table \$0-overtone-tmp;
#X obj 111 305 r \$0-setwave;
#X obj 406 476 s \$0-overtone;
#X obj 610 393 / 100;
#X obj 542 393 / 100;
#X obj 474 393 / 100;
#X obj 406 393 / 100;
#X obj 423 248 del 1;
#X obj 267 245 del 2;
#X obj 88 422 clip~ -1 1;
#X obj 88 402 max~;
#X obj 159 422 r \$0-noisemix;
#X obj 36 446 hcj.lib.cross~ 500;
#X obj 51 468 r~ \$0-am;
#X obj 108 378 r~ inputs;
#X obj 862 290 tabread4~ wndw;
#X obj 862 144 r \$0-amBang;
#X obj 862 312 s~ \$0-am;
#X obj 966 316 s \$0-amBang;
#X obj 862 267 line~;
#X obj 966 254 loadbang;
#X msg 966 275 1;
#X obj 862 208 t f f;
#X obj 1023 253 + 100;
#X obj 966 296 metro 8100;
#X obj 862 187 + 3000;
#X obj 862 166 random 4000;
#X text 41 10 NOTE: relies on wndw table with 512 sample sinewave;
#X msg 406 454 sinesum 512 \$1 \$2 \$3 \$4 \$5 \$6;
#X obj 406 374 random 16;
#X obj 474 374 random 16;
#X obj 542 374 random 16;
#X obj 610 374 random 16;
#X obj 745 393 / 100;
#X obj 677 393 / 100;
#X obj 677 374 random 16;
#X obj 745 374 random 16;
#X obj 406 333 t b b b b b b;
#X obj 406 432 pack 1 2 3 4 5 6;
#X obj 389 197 r \$0-amBang;
#X obj 125 195 /~ 2;
#X obj 125 173 +~ 1;
#X obj 170 99 loadbang;
#X obj 170 117 random 100;
#X obj 170 135 / 100;
#X obj 125 79 r \$0-driftspeed;
#X obj 159 195 r \$0-driftwidth;
#X obj 13 152 r \$0-amBang;
#X obj 125 154 osc~ 0.3;
#X obj 13 218 sig~ 220;
#X obj 64 173 r \$0-hz;
#X obj 267 285 route symbol;
#X obj 591 57 route symbol;
#X obj 423 286 route symbol;
#X obj 267 265 symbol \$0-overtone;
#X obj 423 267 symbol \$0-overtone-tmp;
#X msg 111 324 set \$1;
#X obj 591 37 symbol \$0-overtone;
#X msg 591 77 \; \$1 sinesum 512 1 \; \$1-tmp sinesum 512 1 \;;
#X obj 36 311 +~;
#X obj 125 215 *~ 2;
#X msg 862 246 0 \, 512 \$1;
#X obj 36 488 *~;
#X obj 13 194 float 220;
#X obj 1103 24 r overtones;
#X obj 1103 45 route v f;
#X obj 1128 70 s \$0-hz;
#X obj 1103 114 s \$0-volume;
#X obj 1103 92 / 9;
#X obj 114 515 line~;
#X obj 35 540 *~;
#X obj 35 560 throw~ mM;
#X obj 114 493 pack 0 2000;
#X obj 114 470 r \$0-volume;
#X connect 0 0 19 0;
#X connect 0 0 21 0;
#X connect 2 0 66 0;
#X connect 5 0 7 0;
#X connect 6 0 17 0;
#X connect 6 1 46 0;
#X connect 6 2 16 0;
#X connect 6 3 5 0;
#X connect 10 0 65 0;
#X connect 12 0 47 3;
#X connect 13 0 47 2;
#X connect 14 0 47 1;
#X connect 15 0 47 0;
#X connect 16 0 64 0;
#X connect 17 0 63 0;
#X connect 18 0 21 1;
#X connect 19 0 18 0;
#X connect 20 0 21 2;
#X connect 21 0 71 0;
#X connect 22 0 71 1;
#X connect 23 0 19 1;
#X connect 24 0 26 0;
#X connect 25 0 35 0;
#X connect 28 0 24 0;
#X connect 29 0 30 0;
#X connect 30 0 33 0;
#X connect 31 0 70 0;
#X connect 31 1 32 0;
#X connect 32 0 33 1;
#X connect 33 0 27 0;
#X connect 34 0 31 0;
#X connect 35 0 34 0;
#X connect 37 0 11 0;
#X connect 38 0 15 0;
#X connect 39 0 14 0;
#X connect 40 0 13 0;
#X connect 41 0 12 0;
#X connect 42 0 47 5;
#X connect 43 0 47 4;
#X connect 44 0 43 0;
#X connect 45 0 42 0;
#X connect 46 0 38 0;
#X connect 46 1 39 0;
#X connect 46 2 40 0;
#X connect 46 3 41 0;
#X connect 46 4 44 0;
#X connect 46 5 45 0;
#X connect 47 0 37 0;
#X connect 48 0 6 0;
#X connect 49 0 69 0;
#X connect 50 0 49 0;
#X connect 51 0 52 0;
#X connect 52 0 53 0;
#X connect 53 0 57 1;
#X connect 54 0 57 0;
#X connect 55 0 69 1;
#X connect 56 0 72 0;
#X connect 57 0 50 0;
#X connect 58 0 68 0;
#X connect 59 0 72 1;
#X connect 60 0 4 0;
#X connect 61 0 67 0;
#X connect 62 0 3 0;
#X connect 63 0 60 0;
#X connect 64 0 62 0;
#X connect 65 0 0 0;
#X connect 66 0 61 0;
#X connect 68 0 0 0;
#X connect 69 0 68 1;
#X connect 70 0 28 0;
#X connect 71 0 79 0;
#X connect 72 0 58 0;
#X connect 73 0 74 0;
#X connect 74 0 77 0;
#X connect 74 1 75 0;
#X connect 77 0 76 0;
#X connect 78 0 79 1;
#X connect 79 0 80 0;
#X connect 81 0 78 0;
#X connect 82 0 81 0;
