#N canvas 1403 150 1187 586 10;
#X obj 213 455 adsr~;
#X msg 528 307 set_r \$1;
#X obj 528 287 + 1000;
#X obj 528 267 random 3000;
#X msg 211 331 set_d \$1;
#X obj 209 259 random 10;
#X msg 299 324 set_s \$1;
#X msg 682 337 set_gain1 \$1;
#X msg 771 335 set_gain2 \$1;
#X obj 300 257 random 10;
#X obj 774 240 random 100;
#X obj 774 260 / 100;
#X obj 773 282 * 0.2;
#X obj 772 302 + 0.005;
#X obj 694 236 random 100;
#X obj 694 259 / 100;
#X obj 692 301 + 0.6;
#X obj 693 281 * 0.3;
#X obj 706 81 t b b b b b b b;
#X obj 706 58 inlet;
#X obj 214 483 outlet~;
#X msg 57 317 set_a \$1;
#X obj 57 295 + 1;
#X obj 59 274 random 8;
#X obj 211 307 + 1;
#X obj 299 301 + 0;
#X connect 0 0 20 0;
#X connect 1 0 0 0;
#X connect 2 0 1 0;
#X connect 3 0 2 0;
#X connect 4 0 0 0;
#X connect 5 0 24 0;
#X connect 6 0 0 0;
#X connect 7 0 0 0;
#X connect 8 0 0 0;
#X connect 9 0 25 0;
#X connect 10 0 11 0;
#X connect 11 0 12 0;
#X connect 12 0 13 0;
#X connect 13 0 8 0;
#X connect 14 0 15 0;
#X connect 15 0 17 0;
#X connect 16 0 7 0;
#X connect 17 0 16 0;
#X connect 18 0 0 0;
#X connect 18 1 3 0;
#X connect 18 2 5 0;
#X connect 18 3 9 0;
#X connect 18 4 14 0;
#X connect 18 5 10 0;
#X connect 18 6 23 0;
#X connect 19 0 18 0;
#X connect 21 0 0 0;
#X connect 22 0 21 0;
#X connect 23 0 22 0;
#X connect 24 0 4 0;
#X connect 25 0 6 0;
