#N canvas 1589 97 992 752 10;
#X declare -path ../hcj.lib;
#X obj 241 316 pack 0 5000 1.25;
#X obj 816 17 declare -path ../hcj.lib;
#X obj 28 547 outlet~;
#X obj 605 550 outlet~;
#X obj 59 314 pack 0 5000 1.25;
#X obj 610 306 pack 0 5000 1.25;
#X obj 482 18 inlet;
#X obj 59 279 float 0;
#X obj 239 287 float 0;
#X obj 610 272 float 0;
#X obj 611 248 t b f;
#X obj 241 264 t b f;
#X obj 61 242 t b f;
#X text 51 33 inlets: p1 offset \, p2 offset \, p3 offset \, auto on/off
\, speed;
#X obj 438 322 pack 0 5000 1.25;
#X obj 438 288 float 0;
#X obj 27 392 hcj.lib.aaaa 10000 50 35 15;
#X obj 481 39 unpack 2.5 1.25 0.625 2.5;
#X obj 59 333 hcj.lib.play \$1;
#X obj 241 335 hcj.lib.play \$1;
#X obj 438 341 hcj.lib.play \$1;
#X obj 610 325 hcj.lib.play \$1;
#X obj 61 219 random \$2;
#X obj 239 241 random \$2;
#X obj 611 227 random \$2;
#X obj 443 245 random \$2;
#X obj 441 266 t b f;
#X obj 220 391 hcj.lib.aaaa 10000 500 35 15;
#X obj 414 393 hcj.lib.aaaa 10000 50 35 15;
#X obj 607 392 hcj.lib.aaaa 10000 500 35 15;
#X obj 173 361 r lfp1;
#X obj 384 368 r lfp2;
#X obj 565 365 r lfp3;
#X obj 771 364 r lfp4;
#X obj 249 366 r~ master-noise;
#X obj 66 364 r~ master-noise;
#X obj 456 366 r~ master-noise;
#X obj 644 363 r~ master-noise;
#X obj 26 105 r lfp1;
#X obj 209 109 r lfp2;
#X obj 436 108 r lfp3;
#X obj 564 95 r lfp4;
#X obj 615 96 r lfp1;
#X obj 611 206 spigot;
#X obj 443 224 spigot;
#X obj 237 218 spigot;
#X obj 112 168 r nb1-1;
#X obj 607 420 *~ 0.4;
#X obj 413 417 *~ 0.4;
#X obj 220 416 *~ 0.4;
#X obj 28 418 *~ 0.4;
#X obj 61 197 spigot;
#X obj 349 175 r nb2-1;
#X obj 733 166 r nb3-1;
#X obj 592 142 spigot;
#X obj 436 149 spigot;
#X obj 222 141 spigot;
#X obj 28 133 spigot;
#X obj 641 143 spigot;
#X obj 485 150 spigot;
#X obj 271 142 spigot;
#X obj 77 134 spigot;
#X obj 515 123 == 0;
#X obj 677 119 == 0;
#X obj 109 112 == 0;
#X obj 302 117 == 0;
#X obj 96 74 r nb7-1;
#X obj 77 52 r lfpa;
#X obj 302 93 r nb7-1;
#X obj 257 88 r lfpa;
#X obj 514 102 r nb7-1;
#X obj 491 80 r lfpa;
#X obj 677 99 r nb7-1;
#X obj 667 75 r lfpa;
#X connect 0 0 19 0;
#X connect 4 0 18 0;
#X connect 5 0 21 0;
#X connect 6 0 17 0;
#X connect 7 0 4 0;
#X connect 8 0 0 0;
#X connect 9 0 5 0;
#X connect 10 0 9 0;
#X connect 10 1 9 1;
#X connect 11 0 8 0;
#X connect 11 1 8 1;
#X connect 12 0 7 0;
#X connect 12 1 7 1;
#X connect 14 0 20 0;
#X connect 15 0 14 0;
#X connect 16 0 50 0;
#X connect 16 1 50 0;
#X connect 17 0 4 2;
#X connect 17 1 0 2;
#X connect 17 2 14 2;
#X connect 17 3 5 2;
#X connect 18 0 16 0;
#X connect 19 0 27 0;
#X connect 20 0 28 0;
#X connect 21 0 29 0;
#X connect 22 0 12 0;
#X connect 23 0 11 0;
#X connect 24 0 10 0;
#X connect 25 0 26 0;
#X connect 26 0 15 0;
#X connect 26 1 15 1;
#X connect 27 0 49 0;
#X connect 27 1 49 0;
#X connect 28 0 48 0;
#X connect 28 1 48 0;
#X connect 29 0 47 0;
#X connect 29 1 47 0;
#X connect 30 0 16 2;
#X connect 31 0 27 2;
#X connect 32 0 28 2;
#X connect 33 0 29 2;
#X connect 34 0 27 1;
#X connect 35 0 16 1;
#X connect 36 0 28 1;
#X connect 37 0 29 1;
#X connect 38 0 57 0;
#X connect 39 0 56 0;
#X connect 40 0 55 0;
#X connect 41 0 54 0;
#X connect 42 0 54 0;
#X connect 43 0 24 0;
#X connect 44 0 25 0;
#X connect 45 0 23 0;
#X connect 46 0 51 1;
#X connect 47 0 3 0;
#X connect 48 0 3 0;
#X connect 49 0 2 0;
#X connect 50 0 2 0;
#X connect 51 0 22 0;
#X connect 52 0 45 1;
#X connect 52 0 44 1;
#X connect 53 0 43 1;
#X connect 54 0 43 0;
#X connect 55 0 44 0;
#X connect 56 0 45 0;
#X connect 57 0 51 0;
#X connect 58 0 43 0;
#X connect 59 0 44 0;
#X connect 60 0 45 0;
#X connect 61 0 51 0;
#X connect 62 0 59 1;
#X connect 63 0 58 1;
#X connect 64 0 61 1;
#X connect 65 0 60 1;
#X connect 66 0 64 0;
#X connect 66 0 57 1;
#X connect 67 0 61 0;
#X connect 68 0 65 0;
#X connect 68 0 56 1;
#X connect 69 0 60 0;
#X connect 70 0 62 0;
#X connect 70 0 55 1;
#X connect 71 0 59 0;
#X connect 72 0 63 0;
#X connect 72 0 54 1;
#X connect 73 0 58 0;
