#N canvas 0 69 1004 300 10;
#X obj 30 342 r osc;
#X obj 100 382 select 1;
#X obj 170 383 select 1;
#X obj 240 382 select 1;
#X obj 308 381 select 1;
#X obj 30 382 select 1;
#X obj 30 431 r osc;
#X obj 100 471 select 1;
#X obj 170 472 select 1;
#X obj 240 471 select 1;
#X obj 308 470 select 1;
#X obj 30 471 select 1;
#X obj 31 515 r osc;
#X obj 101 555 select 1;
#X obj 171 556 select 1;
#X obj 241 555 select 1;
#X obj 309 554 select 1;
#X obj 31 555 select 1;
#X obj 405 379 r osc;
#X obj 528 345 r osc;
#X obj 598 385 select 1;
#X obj 668 386 select 1;
#X obj 738 385 select 1;
#X obj 806 384 select 1;
#X obj 528 385 select 1;
#X obj 528 434 r osc;
#X obj 598 474 select 1;
#X obj 668 475 select 1;
#X obj 738 474 select 1;
#X obj 806 473 select 1;
#X obj 528 474 select 1;
#X obj 529 518 r osc;
#X obj 599 558 select 1;
#X obj 669 559 select 1;
#X obj 739 558 select 1;
#X obj 807 557 select 1;
#X obj 529 558 select 1;
#X obj 903 382 r osc;
#X obj 25 10 r osc;
#X obj 95 50 select 1;
#X obj 165 51 select 1;
#X obj 235 50 select 1;
#X obj 303 49 select 1;
#X obj 25 50 select 1;
#X obj 25 99 r osc;
#X obj 95 139 select 1;
#X obj 165 140 select 1;
#X obj 235 139 select 1;
#X obj 303 138 select 1;
#X obj 25 139 select 1;
#X obj 26 183 r osc;
#X obj 96 223 select 1;
#X obj 166 224 select 1;
#X obj 236 223 select 1;
#X obj 304 222 select 1;
#X obj 26 223 select 1;
#X obj 400 47 r osc;
#X obj 523 13 r osc;
#X obj 593 53 select 1;
#X obj 663 54 select 1;
#X obj 733 53 select 1;
#X obj 801 52 select 1;
#X obj 523 53 select 1;
#X obj 523 102 r osc;
#X obj 593 142 select 1;
#X obj 663 143 select 1;
#X obj 733 142 select 1;
#X obj 801 141 select 1;
#X obj 523 142 select 1;
#X obj 524 186 r osc;
#X obj 594 226 select 1;
#X obj 664 227 select 1;
#X obj 734 226 select 1;
#X obj 802 225 select 1;
#X obj 524 226 select 1;
#X obj 898 50 r osc;
#X obj 25 30 route /1/push1 /1/push85 /1/push86 /1/push87 /1/push88
;
#X obj 25 119 route /1/push89 /1/push90 /1/push91 /1/push92 /1/push93
;
#X obj 26 203 route /1/push94 /1/push95 /1/push96 /1/push97 /1/push98
;
#X obj 25 71 s tb1-a1;
#X obj 95 71 s tb1-a2;
#X obj 165 72 s tb1-a3;
#X obj 235 71 s tb1-a4;
#X obj 303 69 s tb1-a5;
#X obj 25 160 s tb1-b1;
#X obj 95 160 s tb1-b2;
#X obj 165 161 s tb1-b3;
#X obj 235 160 s tb1-b4;
#X obj 303 158 s tb1-b5;
#X obj 26 244 s tb1-c1;
#X obj 96 244 s tb1-c2;
#X obj 166 245 s tb1-c3;
#X obj 236 244 s tb1-c4;
#X obj 304 242 s tb1-c5;
#X obj 523 33 route /2/push99 /2/push100 /2/push101 /2/push102 /2/push103
;
#X obj 523 122 route /2/push104 /2/push105 /2/push106 /2/push107 /2/push108
;
#X obj 523 74 s tb2-a1;
#X obj 593 74 s tb2-a2;
#X obj 663 75 s tb2-a3;
#X obj 733 74 s tb2-a4;
#X obj 801 72 s tb2-a5;
#X obj 523 163 s tb2-b1;
#X obj 593 163 s tb2-b2;
#X obj 663 164 s tb2-b3;
#X obj 733 163 s tb2-b4;
#X obj 801 161 s tb2-b5;
#X obj 524 206 route /2/push109 /2/push110 /2/push111 /2/push112 /2/push113
;
#X obj 524 247 s tb2-c1;
#X obj 594 247 s tb2-c2;
#X obj 664 248 s tb2-c3;
#X obj 734 247 s tb2-c4;
#X obj 802 245 s tb2-c5;
#X obj 400 67 route /1/fader2;
#X obj 400 86 s tf1;
#X obj 898 89 s tf2;
#X obj 898 70 route /2/fader3;
#X obj 30 362 route /3/push114 /3/push115 /3/push116 /3/push117 /3/push118
;
#X obj 30 403 s tb3-a1;
#X obj 100 403 s tb3-a2;
#X obj 170 404 s tb3-a3;
#X obj 240 403 s tb3-a4;
#X obj 308 401 s tb3-a5;
#X obj 405 418 s tf3;
#X obj 405 399 route /3/fader4;
#X obj 30 451 route /3/push119 /3/push120 /3/push121 /3/push122 /3/push123
;
#X obj 30 492 s tb3-b1;
#X obj 100 492 s tb3-b2;
#X obj 170 493 s tb3-b3;
#X obj 240 492 s tb3-b4;
#X obj 308 490 s tb3-b5;
#X obj 31 535 route /3/push124 /3/push125 /3/push126 /3/push127 /3/push128
;
#X obj 31 576 s tb3-c1;
#X obj 101 576 s tb3-c2;
#X obj 171 577 s tb3-c3;
#X obj 241 576 s tb3-c4;
#X obj 309 574 s tb3-c5;
#X obj 528 365 route /4/push129 /4/push130 /4/push131 /4/push132 /4/push133
;
#X obj 528 406 s tb4-a1;
#X obj 598 406 s tb4-a2;
#X obj 668 407 s tb4-a3;
#X obj 738 406 s tb4-a4;
#X obj 806 404 s tb4-a5;
#X obj 903 421 s tf4;
#X obj 903 402 route /4/fader5;
#X obj 528 454 route /4/push134 /4/push135 /4/push136 /4/push137 /4/push138
;
#X obj 529 538 route /4/push139 /4/push140 /4/push141 /4/push142 /4/push143
;
#X obj 528 495 s tb4-b1;
#X obj 598 495 s tb4-b2;
#X obj 668 496 s tb4-b3;
#X obj 738 495 s tb4-b4;
#X obj 806 493 s tb4-b5;
#X obj 529 579 s tb4-c1;
#X obj 599 579 s tb4-c2;
#X obj 669 580 s tb4-c3;
#X obj 739 579 s tb4-c4;
#X obj 807 577 s tb4-c5;
#X connect 0 0 116 0;
#X connect 1 0 118 0;
#X connect 2 0 119 0;
#X connect 3 0 120 0;
#X connect 4 0 121 0;
#X connect 5 0 117 0;
#X connect 6 0 124 0;
#X connect 7 0 126 0;
#X connect 8 0 127 0;
#X connect 9 0 128 0;
#X connect 10 0 129 0;
#X connect 11 0 125 0;
#X connect 12 0 130 0;
#X connect 13 0 132 0;
#X connect 14 0 133 0;
#X connect 15 0 134 0;
#X connect 16 0 135 0;
#X connect 17 0 131 0;
#X connect 18 0 123 0;
#X connect 19 0 136 0;
#X connect 20 0 138 0;
#X connect 21 0 139 0;
#X connect 22 0 140 0;
#X connect 23 0 141 0;
#X connect 24 0 137 0;
#X connect 25 0 144 0;
#X connect 26 0 147 0;
#X connect 27 0 148 0;
#X connect 28 0 149 0;
#X connect 29 0 150 0;
#X connect 30 0 146 0;
#X connect 31 0 145 0;
#X connect 32 0 152 0;
#X connect 33 0 153 0;
#X connect 34 0 154 0;
#X connect 35 0 155 0;
#X connect 36 0 151 0;
#X connect 37 0 143 0;
#X connect 38 0 76 0;
#X connect 39 0 80 0;
#X connect 40 0 81 0;
#X connect 41 0 82 0;
#X connect 42 0 83 0;
#X connect 43 0 79 0;
#X connect 44 0 77 0;
#X connect 45 0 85 0;
#X connect 46 0 86 0;
#X connect 47 0 87 0;
#X connect 48 0 88 0;
#X connect 49 0 84 0;
#X connect 50 0 78 0;
#X connect 51 0 90 0;
#X connect 52 0 91 0;
#X connect 53 0 92 0;
#X connect 54 0 93 0;
#X connect 55 0 89 0;
#X connect 56 0 112 0;
#X connect 57 0 94 0;
#X connect 58 0 97 0;
#X connect 59 0 98 0;
#X connect 60 0 99 0;
#X connect 61 0 100 0;
#X connect 62 0 96 0;
#X connect 63 0 95 0;
#X connect 64 0 102 0;
#X connect 65 0 103 0;
#X connect 66 0 104 0;
#X connect 67 0 105 0;
#X connect 68 0 101 0;
#X connect 69 0 106 0;
#X connect 70 0 108 0;
#X connect 71 0 109 0;
#X connect 72 0 110 0;
#X connect 73 0 111 0;
#X connect 74 0 107 0;
#X connect 75 0 115 0;
#X connect 76 0 43 0;
#X connect 76 1 39 0;
#X connect 76 2 40 0;
#X connect 76 3 41 0;
#X connect 76 4 42 0;
#X connect 77 0 49 0;
#X connect 77 1 45 0;
#X connect 77 2 46 0;
#X connect 77 3 47 0;
#X connect 77 4 48 0;
#X connect 78 0 55 0;
#X connect 78 1 51 0;
#X connect 78 2 52 0;
#X connect 78 3 53 0;
#X connect 78 4 54 0;
#X connect 94 0 62 0;
#X connect 94 1 58 0;
#X connect 94 2 59 0;
#X connect 94 3 60 0;
#X connect 94 4 61 0;
#X connect 95 0 68 0;
#X connect 95 1 64 0;
#X connect 95 2 65 0;
#X connect 95 3 66 0;
#X connect 95 4 67 0;
#X connect 106 0 74 0;
#X connect 106 1 70 0;
#X connect 106 2 71 0;
#X connect 106 3 72 0;
#X connect 106 4 73 0;
#X connect 112 0 113 0;
#X connect 115 0 114 0;
#X connect 116 0 5 0;
#X connect 116 1 1 0;
#X connect 116 2 2 0;
#X connect 116 3 3 0;
#X connect 116 4 4 0;
#X connect 123 0 122 0;
#X connect 124 0 11 0;
#X connect 124 1 7 0;
#X connect 124 2 8 0;
#X connect 124 3 9 0;
#X connect 124 4 10 0;
#X connect 130 0 17 0;
#X connect 130 1 13 0;
#X connect 130 2 14 0;
#X connect 130 3 15 0;
#X connect 130 4 16 0;
#X connect 136 0 24 0;
#X connect 136 1 20 0;
#X connect 136 2 21 0;
#X connect 136 3 22 0;
#X connect 136 4 23 0;
#X connect 143 0 142 0;
#X connect 144 0 30 0;
#X connect 144 1 26 0;
#X connect 144 2 27 0;
#X connect 144 3 28 0;
#X connect 144 4 29 0;
#X connect 145 0 36 0;
#X connect 145 1 32 0;
#X connect 145 2 33 0;
#X connect 145 3 34 0;
#X connect 145 4 35 0;
