#N canvas 0 0 1009 506 10;
#X declare -path ../hcj.lib;
#X obj 241 316 pack 0 5000 1.25;
#X obj 816 17 declare -path ../hcj.lib;
#X obj 28 547 outlet~;
#X obj 605 550 outlet~;
#X obj 59 314 pack 0 5000 1.25;
#X obj 610 306 pack 0 5000 1.25;
#X obj 482 18 inlet;
#X obj 59 279 float 0;
#X obj 239 287 float 0;
#X obj 610 272 float 0;
#X obj 611 248 t b f;
#X obj 241 264 t b f;
#X obj 61 242 t b f;
#X text 51 33 inlets: p1 offset \, p2 offset \, p3 offset \, auto on/off
\, speed;
#X obj 438 322 pack 0 5000 1.25;
#X obj 438 288 float 0;
#X obj 27 392 hcj.lib.aaaa 10000 50 35 15;
#X obj 481 39 unpack 2.5 1.25 0.625 2.5;
#X obj 438 341 hcj.lib.play \$1;
#X obj 61 219 random \$2;
#X obj 239 241 random \$2;
#X obj 611 227 random \$2;
#X obj 443 245 random \$2;
#X obj 441 266 t b f;
#X obj 220 484 hcj.lib.aaaa 10000 500 35 15;
#X obj 414 486 hcj.lib.aaaa 10000 50 35 15;
#X obj 607 485 hcj.lib.aaaa 10000 500 35 15;
#X obj 173 361 r lfp1;
#X obj 249 366 r~ master-noise;
#X obj 66 364 r~ master-noise;
#X obj 456 366 r~ master-noise;
#X obj 644 363 r~ master-noise;
#X obj 26 105 r lfp1;
#X obj 611 206 spigot;
#X obj 443 224 spigot;
#X obj 237 218 spigot;
#X obj 112 168 r nb1-1;
#X obj 607 513 *~ 0.4;
#X obj 413 510 *~ 0.4;
#X obj 220 509 *~ 0.4;
#X obj 28 418 *~ 0.4;
#X obj 61 197 spigot;
#X obj 349 175 r nb2-1;
#X obj 733 166 r nb3-1;
#X obj 515 123 == 0;
#X obj 677 119 == 0;
#X obj 125 112 == 0;
#X obj 326 117 == 0;
#X obj 96 74 r nb7-1;
#X obj 77 52 r lfpa;
#X obj 326 93 r nb7-1;
#X obj 257 88 r lfpa;
#X obj 514 102 r nb7-1;
#X obj 491 80 r lfpa;
#X obj 677 99 r nb7-1;
#X obj 667 75 r lfpa;
#X obj 871 237 poly 4 1;
#X msg 870 215 \$1 127;
#X obj 870 193 random 100;
#X obj 868 161 r nb7-2;
#X obj 871 258 route 1 2 3 4;
#X obj 112 196 r \$0-trigger1;
#X obj 299 217 r \$0-trigger2;
#X obj 492 218 r \$0-trigger3;
#X obj 689 205 r \$0-trigger4;
#X obj 862 317 s \$0-trigger1;
#X obj 949 318 s \$0-trigger2;
#X obj 1045 317 s \$0-trigger3;
#X obj 1132 318 s \$0-trigger3;
#X obj 871 288 t b;
#X obj 948 296 t b;
#X obj 1037 290 t b;
#X obj 1136 294 t b;
#X obj 59 333 hcj.lib.play \$1;
#X obj 241 335 hcj.lib.play \$1;
#X obj 610 325 hcj.lib.play \$1;
#X obj 742 78 inlet;
#X obj 742 101 s \$0-pianobuf1;
#X obj 838 78 inlet;
#X obj 932 79 inlet;
#X obj 838 101 s \$0-pianobuf2;
#X obj 932 102 s \$0-pianobuf3;
#X obj 686 276 r \$0-pianobuf3;
#X obj 136 278 r \$0-pianobuf1;
#X obj 348 288 r \$0-pianobuf2;
#X obj 295 142 spigot 0;
#X obj 222 141 spigot 1;
#X obj 28 133 spigot 1;
#X obj 93 134 spigot 0;
#X obj 436 149 spigot 1;
#X obj 485 150 spigot 0;
#X obj 592 142 spigot 1;
#X obj 641 143 spigot 0;
#X obj 292 414 r lfp2;
#X obj 409 422 == 0;
#X obj 378 447 spigot 0;
#X obj 305 446 spigot 1;
#X obj 408 398 r nb6-1;
#X obj 352 394 r lfp1;
#X obj 612 425 == 0;
#X obj 581 450 spigot 0;
#X obj 509 452 spigot 1;
#X obj 611 401 r nb6-1;
#X obj 555 397 r lfp1;
#X obj 810 417 == 0;
#X obj 779 442 spigot 0;
#X obj 701 445 spigot 1;
#X obj 809 393 r nb6-1;
#X obj 753 389 r lfp1;
#X obj 693 409 r lfp4;
#X obj 495 417 r lfp3;
#X connect 0 0 74 0;
#X connect 4 0 73 0;
#X connect 5 0 75 0;
#X connect 6 0 17 0;
#X connect 7 0 4 0;
#X connect 8 0 0 0;
#X connect 9 0 5 0;
#X connect 10 0 9 0;
#X connect 10 1 9 1;
#X connect 11 0 8 0;
#X connect 11 1 8 1;
#X connect 12 0 7 0;
#X connect 12 1 7 1;
#X connect 14 0 18 0;
#X connect 15 0 14 0;
#X connect 16 0 40 0;
#X connect 16 1 40 0;
#X connect 17 0 4 2;
#X connect 17 1 0 2;
#X connect 17 2 14 2;
#X connect 17 3 5 2;
#X connect 18 0 25 0;
#X connect 19 0 12 0;
#X connect 20 0 11 0;
#X connect 21 0 10 0;
#X connect 22 0 23 0;
#X connect 23 0 15 0;
#X connect 23 1 15 1;
#X connect 24 0 39 0;
#X connect 24 1 39 0;
#X connect 25 0 38 0;
#X connect 25 1 38 0;
#X connect 26 0 37 0;
#X connect 26 1 37 0;
#X connect 27 0 16 2;
#X connect 28 0 24 1;
#X connect 29 0 16 1;
#X connect 30 0 25 1;
#X connect 31 0 26 1;
#X connect 32 0 87 0;
#X connect 33 0 21 0;
#X connect 34 0 22 0;
#X connect 35 0 20 0;
#X connect 36 0 41 1;
#X connect 37 0 3 0;
#X connect 38 0 3 0;
#X connect 39 0 2 0;
#X connect 40 0 2 0;
#X connect 41 0 19 0;
#X connect 42 0 35 1;
#X connect 42 0 34 1;
#X connect 43 0 33 1;
#X connect 44 0 90 1;
#X connect 45 0 92 1;
#X connect 46 0 88 1;
#X connect 47 0 85 1;
#X connect 48 0 46 0;
#X connect 48 0 87 1;
#X connect 49 0 88 0;
#X connect 50 0 47 0;
#X connect 50 0 86 1;
#X connect 51 0 85 0;
#X connect 52 0 44 0;
#X connect 52 0 89 1;
#X connect 53 0 90 0;
#X connect 54 0 45 0;
#X connect 54 0 91 1;
#X connect 55 0 92 0;
#X connect 56 0 60 0;
#X connect 57 0 56 0;
#X connect 58 0 57 0;
#X connect 59 0 58 0;
#X connect 60 0 69 0;
#X connect 60 1 70 0;
#X connect 60 2 71 0;
#X connect 60 3 72 0;
#X connect 61 0 19 0;
#X connect 62 0 20 0;
#X connect 63 0 22 0;
#X connect 64 0 21 0;
#X connect 69 0 65 0;
#X connect 70 0 66 0;
#X connect 71 0 67 0;
#X connect 72 0 68 0;
#X connect 73 0 16 0;
#X connect 74 0 24 0;
#X connect 75 0 26 0;
#X connect 76 0 77 0;
#X connect 78 0 80 0;
#X connect 79 0 81 0;
#X connect 82 0 75 1;
#X connect 83 0 73 1;
#X connect 84 0 74 1;
#X connect 84 0 18 1;
#X connect 85 0 35 0;
#X connect 86 0 35 0;
#X connect 87 0 41 0;
#X connect 88 0 41 0;
#X connect 89 0 34 0;
#X connect 90 0 34 0;
#X connect 91 0 33 0;
#X connect 92 0 33 0;
#X connect 93 0 96 0;
#X connect 94 0 95 1;
#X connect 95 0 24 2;
#X connect 95 0 86 0;
#X connect 96 0 24 2;
#X connect 96 0 86 0;
#X connect 97 0 94 0;
#X connect 97 0 96 1;
#X connect 98 0 95 0;
#X connect 99 0 100 1;
#X connect 100 0 25 2;
#X connect 100 0 89 0;
#X connect 101 0 25 2;
#X connect 101 0 89 0;
#X connect 102 0 99 0;
#X connect 102 0 101 1;
#X connect 103 0 100 0;
#X connect 104 0 105 1;
#X connect 105 0 26 2;
#X connect 105 0 91 0;
#X connect 106 0 26 2;
#X connect 106 0 91 0;
#X connect 107 0 104 0;
#X connect 107 0 106 1;
#X connect 108 0 105 0;
#X connect 108 0 106 0;
#X connect 109 0 106 0;
#X connect 110 0 101 0;
