#N canvas 501 53 443 276 10;
#X obj 36 31 unpackOSC;
#X obj 36 10 udpreceive 8000;
#X obj 75 51 print osc;
#X obj 37 50 s osc;
#X obj 38 71 pip.touchgrid;
#X connect 0 0 2 0;
#X connect 0 0 3 0;
#X connect 1 0 0 0;
