#N canvas 200 103 1079 438 10;
#X declare -path ../hcj.lib;
#X obj 45 272 s tonic;
#X obj 27 67 loadbang;
#X msg 27 87 160;
#X obj 323 59 notein;
#X obj 323 100 poly 4 1;
#X obj 323 80 pack 0 0;
#X obj 709 7 declare -path ../hcj.lib;
#X obj 466 309 hcj.lib.play sparklebuf;
#X obj 622 310 hcj.lib.play sparklebuf;
#X obj 790 312 hcj.lib.play sparklebuf;
#X obj 305 311 hcj.lib.play sparklebuf;
#X obj 415 378 *~ 0.5;
#X obj 408 407 outlet~;
#X obj 323 122 pack 0 0 0;
#X obj 352 191 route 1 2 3 4;
#X floatatom 144 234 5 0 0 0 - - -;
#X floatatom 109 235 5 0 0 0 - - -;
#X obj 709 102 soundfiler;
#X obj 123 183 unpack 0 0 0 0;
#X floatatom 183 234 5 0 0 0 - - -;
#X floatatom 218 234 5 0 0 0 - - -;
#X text 387 142 arg: base hz \, c2 range;
#X obj 710 27 table sparklebuf;
#X msg 709 80 read -resize 220rhodes.wav sparklebuf;
#X obj 323 142 piphz 110;
#X obj 306 287 pip.sparkle.makenote;
#X obj 466 289 pip.sparkle.makenote;
#X obj 622 289 pip.sparkle.makenote;
#X obj 790 289 pip.sparkle.makenote;
#X obj 710 60 loadbang;
#X obj 943 401 outlet;
#X connect 1 0 2 0;
#X connect 2 0 0 0;
#X connect 3 0 5 0;
#X connect 3 1 5 1;
#X connect 4 0 13 0;
#X connect 4 1 13 1;
#X connect 4 2 13 2;
#X connect 5 0 4 0;
#X connect 7 0 11 0;
#X connect 8 0 11 0;
#X connect 9 0 11 0;
#X connect 10 0 11 0;
#X connect 11 0 12 0;
#X connect 13 0 24 0;
#X connect 14 0 25 0;
#X connect 14 1 26 0;
#X connect 14 2 27 0;
#X connect 14 3 28 0;
#X connect 15 0 30 0;
#X connect 18 0 16 0;
#X connect 18 1 15 0;
#X connect 18 1 0 0;
#X connect 18 2 19 0;
#X connect 18 3 20 0;
#X connect 23 0 17 0;
#X connect 24 0 14 0;
#X connect 24 1 18 0;
#X connect 25 0 10 0;
#X connect 26 0 7 0;
#X connect 27 0 8 0;
#X connect 28 0 9 0;
#X connect 29 0 23 0;
