#N canvas 0 0 946 449 10;
#X msg 670 255 5 \$1;
#X msg 527 252 3 \$1;
#X msg 401 257 1 \$1;
#X obj 669 206 random 100;
#X obj 669 224 / 100;
#X obj 526 209 random 100;
#X obj 526 228 / 100;
#X obj 390 194 random 100;
#X obj 390 213 / 100;
#X obj 563 51 inlet;
#X obj 827 204 random 100;
#X obj 827 222 / 100;
#X obj 594 206 random 100;
#X obj 594 225 / 100;
#X obj 458 191 random 100;
#X obj 458 210 / 100;
#X msg 469 254 2 \$1;
#X msg 828 253 7 \$1;
#X msg 592 252 4 \$1;
#X obj 745 202 random 100;
#X obj 745 220 / 100;
#X obj 553 145 t b b b b b b b;
#X msg 745 251 6 \$1;
#X obj 613 348 s \$1;
#X connect 0 0 23 0;
#X connect 1 0 23 0;
#X connect 2 0 23 0;
#X connect 3 0 4 0;
#X connect 4 0 0 0;
#X connect 5 0 6 0;
#X connect 6 0 1 0;
#X connect 7 0 8 0;
#X connect 8 0 2 0;
#X connect 9 0 21 0;
#X connect 10 0 11 0;
#X connect 11 0 17 0;
#X connect 12 0 13 0;
#X connect 13 0 18 0;
#X connect 14 0 15 0;
#X connect 15 0 16 0;
#X connect 16 0 23 0;
#X connect 17 0 23 0;
#X connect 18 0 23 0;
#X connect 19 0 20 0;
#X connect 20 0 22 0;
#X connect 21 0 7 0;
#X connect 21 1 14 0;
#X connect 21 2 5 0;
#X connect 21 3 12 0;
#X connect 21 4 3 0;
#X connect 21 5 19 0;
#X connect 21 6 10 0;
#X connect 22 0 23 0;
