#N canvas 458 138 450 300 10;
#X obj 79 48 inlet;
#X obj 79 220 outlet;
#X obj 79 68 t b f;
#X obj 79 195 pack 0 10000 1;
#X connect 0 0 2 0;
#X connect 2 0 3 0;
#X connect 2 1 3 2;
#X connect 3 0 1 0;
