#N canvas 6 77 1578 587 10;
#X obj 35 350 tabosc4~ \$0-overtone;
#X obj 591 120 table \$0-overtone;
#X obj 591 19 loadbang;
#X obj 423 305 s \$0-setwave;
#X obj 268 304 s \$0-setwave;
#X obj 590 249 tabdump \$0-overtone;
#X obj 389 218 t b b b b;
#X obj 590 269 tabset \$0-overtone-tmp;
#X text 656 19 init wavetables;
#X obj 591 141 table \$0-overtone-tmp;
#X obj 111 305 r \$0-setwave;
#X obj 396 522 s \$0-overtone;
#X obj 600 407 / 100;
#X obj 532 407 / 100;
#X obj 464 407 / 100;
#X obj 396 407 / 100;
#X obj 423 248 del 1;
#X obj 267 245 del 2;
#X obj 88 422 clip~ -1 1;
#X obj 88 402 max~;
#X obj 51 468 r~ \$0-am;
#X obj 104 374 r~ inputs;
#X obj 858 375 tabread4~ wndw;
#X obj 858 229 r \$0-amBang;
#X obj 858 397 s~ \$0-am;
#X obj 962 410 s \$0-amBang;
#X obj 858 352 line~;
#X obj 962 339 loadbang;
#X msg 962 360 1;
#X obj 858 293 t f f;
#X obj 1019 338 + 100;
#X obj 962 381 metro 8100;
#X obj 858 272 + 3000;
#X obj 858 251 random 4000;
#X text 41 10 NOTE: relies on wndw table with 512 sample sinewave;
#X obj 396 388 random 16;
#X obj 464 388 random 16;
#X obj 532 388 random 16;
#X obj 600 388 random 16;
#X obj 735 407 / 100;
#X obj 667 407 / 100;
#X obj 667 388 random 16;
#X obj 735 388 random 16;
#X obj 396 347 t b b b b b b;
#X obj 396 446 pack 1 2 3 4 5 6;
#X obj 389 197 r \$0-amBang;
#X obj 125 195 /~ 2;
#X obj 125 173 +~ 1;
#X obj 170 99 loadbang;
#X obj 170 117 random 100;
#X obj 170 135 / 100;
#X obj 125 79 r \$0-driftspeed;
#X obj 13 152 r \$0-amBang;
#X obj 125 154 osc~ 0.3;
#X obj 13 218 sig~ 220;
#X obj 64 173 r \$0-hz;
#X obj 267 285 route symbol;
#X obj 591 57 route symbol;
#X obj 423 286 route symbol;
#X obj 267 265 symbol \$0-overtone;
#X obj 423 267 symbol \$0-overtone-tmp;
#X msg 111 324 set \$1;
#X obj 591 37 symbol \$0-overtone;
#X msg 591 77 \; \$1 sinesum 512 1 \; \$1-tmp sinesum 512 1 \;;
#X obj 36 311 +~;
#X obj 125 215 *~ 2;
#X msg 858 331 0 \, 512 \$1;
#X obj 36 488 *~;
#X obj 13 194 float 220;
#X obj 914 26 r overtones;
#X obj 932 75 s \$0-hz;
#X obj 903 97 s \$0-volume;
#X obj 903 75 / 9;
#X obj 114 515 line~;
#X obj 35 540 *~;
#X obj 35 560 throw~ mM;
#X obj 114 470 r \$0-volume;
#X obj 988 26 r o\$1;
#X obj 1026 26 r o\$1\$2;
#X obj 989 71 s \$0-noise;
#X obj 1152 71 s \$0-partials;
#X obj 1170 228 list;
#X obj 1170 248 route list;
#X obj 914 47 route volume freq noise drift partials;
#X obj 1191 207 r \$0-partials;
#X obj 1049 428 s pc;
#X obj 1049 407 list prepend \$1 \$2;
#X obj 396 465 list prepend 512;
#X obj 396 484 list prepend sinesum;
#X obj 396 503 route list;
#X obj 178 389 r \$0-noise;
#X obj 178 414 / 9;
#X obj 114 493 pack 0 4000;
#X obj -226 421 random 8000;
#X obj -226 460 float;
#X obj -226 440 t b f;
#X obj -226 402 loadbang;
#X obj -139 393 random 8000;
#X obj -139 432 float;
#X obj -139 412 t b f;
#X obj -139 375 loadbang;
#X obj -152 561 delwrite~ \$0-delayline 8000;
#X obj -139 451 delread~ \$0-delayline 4000;
#X obj -226 482 delread~ \$0-delayline 4000;
#X obj 36 446 hcj.lib.cross~ 2500;
#X obj 159 195 r \$0-driftwidth;
#X obj 1077 81 unpack 0 0;
#X obj 1182 151 s \$0-driftspeed;
#X obj 1078 153 s \$0-driftwidth;
#X obj 1077 131 line;
#X msg 1077 110 \$1 1500;
#X obj 1182 132 line;
#X msg 1182 111 \$1 1500;
#X connect 0 0 19 0;
#X connect 0 0 104 0;
#X connect 2 0 62 0;
#X connect 5 0 7 0;
#X connect 6 0 17 0;
#X connect 6 1 43 0;
#X connect 6 2 16 0;
#X connect 6 3 5 0;
#X connect 10 0 61 0;
#X connect 12 0 44 3;
#X connect 13 0 44 2;
#X connect 14 0 44 1;
#X connect 15 0 44 0;
#X connect 16 0 60 0;
#X connect 17 0 59 0;
#X connect 18 0 104 1;
#X connect 19 0 18 0;
#X connect 20 0 67 1;
#X connect 21 0 19 1;
#X connect 22 0 24 0;
#X connect 23 0 33 0;
#X connect 26 0 22 0;
#X connect 27 0 28 0;
#X connect 28 0 31 0;
#X connect 29 0 66 0;
#X connect 29 1 30 0;
#X connect 30 0 31 1;
#X connect 31 0 25 0;
#X connect 31 0 86 0;
#X connect 32 0 29 0;
#X connect 33 0 32 0;
#X connect 35 0 15 0;
#X connect 36 0 14 0;
#X connect 37 0 13 0;
#X connect 38 0 12 0;
#X connect 39 0 44 5;
#X connect 40 0 44 4;
#X connect 41 0 40 0;
#X connect 42 0 39 0;
#X connect 43 0 35 0;
#X connect 43 1 36 0;
#X connect 43 2 37 0;
#X connect 43 3 38 0;
#X connect 43 4 41 0;
#X connect 43 5 42 0;
#X connect 44 0 87 0;
#X connect 45 0 6 0;
#X connect 46 0 65 0;
#X connect 47 0 46 0;
#X connect 48 0 49 0;
#X connect 49 0 50 0;
#X connect 50 0 53 1;
#X connect 51 0 53 0;
#X connect 52 0 68 0;
#X connect 53 0 47 0;
#X connect 54 0 64 0;
#X connect 55 0 68 1;
#X connect 56 0 4 0;
#X connect 57 0 63 0;
#X connect 58 0 3 0;
#X connect 59 0 56 0;
#X connect 60 0 58 0;
#X connect 61 0 0 0;
#X connect 62 0 57 0;
#X connect 64 0 0 0;
#X connect 65 0 64 1;
#X connect 66 0 26 0;
#X connect 67 0 74 0;
#X connect 68 0 54 0;
#X connect 69 0 83 0;
#X connect 72 0 71 0;
#X connect 73 0 74 1;
#X connect 74 0 75 0;
#X connect 74 0 101 0;
#X connect 76 0 92 0;
#X connect 77 0 83 0;
#X connect 78 0 83 0;
#X connect 81 0 82 0;
#X connect 83 0 72 0;
#X connect 83 1 70 0;
#X connect 83 2 79 0;
#X connect 83 3 106 0;
#X connect 83 4 80 0;
#X connect 84 0 81 1;
#X connect 86 0 85 0;
#X connect 87 0 88 0;
#X connect 88 0 89 0;
#X connect 89 0 11 0;
#X connect 90 0 91 0;
#X connect 91 0 104 2;
#X connect 92 0 73 0;
#X connect 93 0 95 0;
#X connect 94 0 103 0;
#X connect 95 0 94 0;
#X connect 95 1 94 1;
#X connect 96 0 93 0;
#X connect 97 0 99 0;
#X connect 98 0 102 0;
#X connect 99 0 98 0;
#X connect 99 1 98 1;
#X connect 100 0 97 0;
#X connect 102 0 75 0;
#X connect 103 0 75 0;
#X connect 104 0 67 0;
#X connect 105 0 65 1;
#X connect 106 0 110 0;
#X connect 106 1 112 0;
#X connect 109 0 108 0;
#X connect 110 0 109 0;
#X connect 111 0 107 0;
#X connect 112 0 111 0;
