#N canvas 147 157 450 300 10;
#X obj 163 48 / 16;
#X obj 79 195 pack 0 1000 1;
#X obj 94 109 random 10000;
#X obj 162 68 t b b f;
#X obj 163 27 inlet;
#X obj 79 220 outlet;
#X obj 101 155 + 2000;
#X obj 19 109 random 100;
#X connect 0 0 3 0;
#X connect 1 0 5 0;
#X connect 2 0 6 0;
#X connect 3 0 7 0;
#X connect 3 1 2 0;
#X connect 3 2 1 2;
#X connect 4 0 0 0;
#X connect 6 0 1 1;
#X connect 7 0 1 0;
