#N canvas 733 70 450 300 10;
#X text 274 49 control groups;
#X obj 23 28 inlet;
#X text 61 28 dump netreceive here;
#X obj 23 49 route pd overtone synth master grains;
#X obj 23 71 s pd;
#X obj -64 76 print debug;
#X obj 66 72 s \$0-overtone;
#X obj -48 176 r \$0-overtone;
#X obj -48 196 route all a b c a1 a2 b1 b2 c1 c2;
#X obj -48 223 s overtones;
#X obj -34 245 s oa;
#X obj -2 245 s ob;
#X obj 30 245 s oc;
#X obj 62 245 s oa1;
#X obj 100 245 s oa2;
#X obj 138 245 s ob1;
#X obj 177 245 s ob2;
#X obj 216 245 s oc1;
#X obj 255 245 s oc2;
#X connect 1 0 3 0;
#X connect 1 0 5 0;
#X connect 3 0 4 0;
#X connect 3 1 6 0;
#X connect 7 0 8 0;
#X connect 8 0 9 0;
#X connect 8 1 10 0;
#X connect 8 2 11 0;
#X connect 8 3 12 0;
#X connect 8 4 13 0;
#X connect 8 5 14 0;
#X connect 8 6 15 0;
#X connect 8 7 16 0;
#X connect 8 8 17 0;
#X connect 8 9 18 0;
