#N canvas 2284 554 450 300 10;
#X obj 90 9 inlet~;
#X obj 74 195 *~;
#X obj 320 59 inlet;
#X obj 75 222 outlet~;
#X obj 275 86 float \$1;
#X obj 206 133 pack 0 0;
#X obj 208 180 line~;
#X obj 238 48 t b b;
#X obj 202 9 r lfp1;
#X obj 258 12 r lfp2;
#X obj 312 9 r lfp3;
#X obj 369 10 r lfp4;
#X msg 206 155 \$1 \$2;
#X obj 206 88 random 128;
#X obj 206 108 / 128;
#X connect 0 0 1 0;
#X connect 1 0 3 0;
#X connect 2 0 4 1;
#X connect 4 0 5 1;
#X connect 5 0 12 0;
#X connect 6 0 1 1;
#X connect 7 0 13 0;
#X connect 7 1 4 0;
#X connect 8 0 7 0;
#X connect 9 0 7 0;
#X connect 10 0 7 0;
#X connect 11 0 7 0;
#X connect 12 0 6 0;
#X connect 13 0 14 0;
#X connect 14 0 5 0;
