#N canvas 0 0 684 485 10;
#X obj 408 436 outlet~;
#X obj 4 81 inlet~;
#X obj 159 19 inlet;
#X obj 231 49 inlet;
#X obj 332 33 inlet;
#X obj 328 89 switch~;
#X obj 382 38 loadbang;
#X msg 382 59 0;
#X obj 77 161 clip~ -1 1;
#X obj 233 164 + 20;
#X obj 232 139 line;
#X msg 231 102 \$1 400;
#X obj 562 239 loadbang;
#X obj 416 368 z~ 64;
#X obj 417 389 *~;
#X obj 489 339 limiter~ 50 1;
#X msg 637 283 LIMIT;
#X obj 562 258 t b b;
#X obj 5 237 bp~ 440 1000;
#X obj 86 238 bp~ 880 1000;
#X obj 172 241 bp~ 1760 1000;
#X obj 263 241 bp~ 3520 1000;
#X obj 357 243 bp~ 7040 1000;
#X obj 448 243 bp~ 14080 1000;
#X obj 268 349 *~ 3;
#X obj 414 413 hip~ 220;
#X msg 540 287 set 100 100 100;
#X obj 78 137 *~ 100;
#X text 237 26 q;
#X text 170 4 d;
#X obj 162 122 line;
#X msg 161 85 \$1 400;
#X obj 163 147 + 1;
#X obj 161 59 * 500;
#X obj 231 76 * 2000;
#X obj 415 304 *~ 0.1;
#X obj 421 276 *~ 0.07;
#X connect 1 0 27 0;
#X connect 2 0 33 0;
#X connect 3 0 34 0;
#X connect 4 0 5 0;
#X connect 6 0 7 0;
#X connect 7 0 5 0;
#X connect 8 0 18 0;
#X connect 8 0 19 0;
#X connect 8 0 20 0;
#X connect 8 0 21 0;
#X connect 8 0 22 0;
#X connect 8 0 23 0;
#X connect 9 0 18 2;
#X connect 9 0 19 2;
#X connect 9 0 20 2;
#X connect 9 0 21 2;
#X connect 9 0 22 2;
#X connect 9 0 23 2;
#X connect 10 0 9 0;
#X connect 11 0 10 0;
#X connect 12 0 17 0;
#X connect 13 0 14 0;
#X connect 14 0 25 0;
#X connect 15 0 14 1;
#X connect 16 0 15 0;
#X connect 17 0 26 0;
#X connect 17 1 16 0;
#X connect 18 0 24 0;
#X connect 19 0 24 0;
#X connect 20 0 35 0;
#X connect 21 0 35 0;
#X connect 22 0 36 0;
#X connect 23 0 36 0;
#X connect 24 0 13 0;
#X connect 24 0 15 0;
#X connect 25 0 0 0;
#X connect 26 0 15 0;
#X connect 27 0 8 0;
#X connect 30 0 32 0;
#X connect 31 0 30 0;
#X connect 32 0 27 1;
#X connect 33 0 31 0;
#X connect 34 0 11 0;
#X connect 35 0 24 0;
#X connect 36 0 35 0;
