#N canvas 0 0 450 300 10;
#X obj 334 240 s melody-hz;
#X obj 561 11 notein;
#X obj 561 31 change;
#X floatatom 561 52 5 0 0 0 - - -;
#X msg 185 127 1;
#X msg 217 126 1.125;
#X msg 261 126 1.25;
#X msg 349 125 1.5;
#X msg 296 125 1.3333;
#X msg 385 125 1.66666;
#X msg 443 126 1.875;
#X floatatom 288 243 5 0 0 0 - - -;
#X obj 334 218 * 120;
#X msg 195 99 1.025;
#X msg 426 100 1.7;
#X msg 378 98 1.645;
#X msg 335 97 1.48;
#X msg 240 93 1.14;
#X obj 666 32 / 12;
#X obj 666 52 int;
#X obj 667 72 + 1;
#X floatatom 779 251 5 0 0 0 - - -;
#X obj 243 49 select 0 1 2 3 4 5 6 7 8 9 10 11;
#X obj 561 71 t f f;
#X obj 561 93 % 12;
#X floatatom 561 113 5 0 0 0 - - -;
#X floatatom 667 94 5 0 0 0 - - -;
#X obj 666 112 select 1 2 3 4 5 6 7 8 9 10 11;
#X msg 699 203 240;
#X msg 670 203 120;
#X msg 640 203 60;
#X msg 731 203 480;
#X msg 763 203 960;
#X msg 835 204 7680;
#X msg 872 203 15360;
#X msg 795 203 1920;
#X msg 602 203 30;
#X msg 570 204 15;
#X msg 538 205 7.5;
#X connect 1 0 2 0;
#X connect 2 0 3 0;
#X connect 3 0 23 0;
#X connect 4 0 12 0;
#X connect 5 0 12 0;
#X connect 6 0 12 0;
#X connect 7 0 12 0;
#X connect 8 0 12 0;
#X connect 9 0 12 0;
#X connect 10 0 12 0;
#X connect 12 0 0 0;
#X connect 12 0 11 0;
#X connect 13 0 12 0;
#X connect 14 0 12 0;
#X connect 15 0 12 0;
#X connect 16 0 12 0;
#X connect 17 0 12 0;
#X connect 18 0 19 0;
#X connect 19 0 20 0;
#X connect 20 0 26 0;
#X connect 21 0 12 1;
#X connect 22 0 4 0;
#X connect 22 1 13 0;
#X connect 22 2 5 0;
#X connect 22 3 17 0;
#X connect 22 4 6 0;
#X connect 22 5 8 0;
#X connect 22 6 16 0;
#X connect 22 7 7 0;
#X connect 22 8 15 0;
#X connect 22 9 9 0;
#X connect 22 10 14 0;
#X connect 22 11 10 0;
#X connect 23 0 24 0;
#X connect 23 1 18 0;
#X connect 24 0 25 0;
#X connect 25 0 22 0;
#X connect 26 0 27 0;
#X connect 27 0 38 0;
#X connect 27 1 37 0;
#X connect 27 2 36 0;
#X connect 27 3 30 0;
#X connect 27 4 29 0;
#X connect 27 5 28 0;
#X connect 27 6 31 0;
#X connect 27 7 32 0;
#X connect 27 8 35 0;
#X connect 27 9 33 0;
#X connect 27 10 34 0;
#X connect 28 0 21 0;
#X connect 29 0 21 0;
#X connect 30 0 21 0;
#X connect 31 0 21 0;
#X connect 32 0 21 0;
#X connect 33 0 21 0;
#X connect 34 0 21 0;
#X connect 35 0 21 0;
#X connect 36 0 21 0;
#X connect 37 0 21 0;
#X connect 38 0 21 0;
