#N canvas 66 29 861 438 10;
#X declare -path .;
#X declare -path ../hcj.lib;
#X obj 391 327 tabwrite~ resampler;
#X obj 351 85 r~ driftermix;
#X obj 392 107 r~ monosynthmix;
#X obj 420 149 hcj.lib.cross~;
#X obj 507 76 r~ master-noise;
#X obj 19 17 declare -path .;
#X obj 19 38 declare -path ../hcj.lib;
#X obj 216 97 inlet;
#X obj 501 110 inlet;
#X obj 501 129 / 127;
#X obj 284 179 *~ 0.7;
#X obj 217 119 t b b;
#X obj 283 155 tabplay~ resampler;
#X obj 304 205 spigot~;
#X obj 343 182 r nb5-1;
#X connect 1 0 3 0;
#X connect 2 0 3 0;
#X connect 3 0 0 0;
#X connect 4 0 3 1;
#X connect 7 0 11 0;
#X connect 8 0 9 0;
#X connect 9 0 3 2;
#X connect 10 0 13 0;
#X connect 11 0 0 0;
#X connect 11 1 12 0;
#X connect 12 0 10 0;
#X connect 13 1 0 0;
#X connect 14 0 13 1;
