#N canvas 49 83 730 370 10;
#X declare -path ../hcj.lib;
#X declare -path .;
#X obj 382 308 throw~ mL;
#X obj 443 308 throw~ mR;
#X obj 448 197 pip.clickadsr;
#X obj 434 223 *~;
#X obj 228 25 r nb1-2;
#X obj 468 120 t b f;
#X obj 279 22 r nb2-2;
#X obj 337 23 r nb3-2;
#X obj 386 22 r nb4-2;
#X obj 553 134 / 127;
#X obj 554 155 * 3;
#X msg 554 175 \$1 4000;
#X obj 464 281 *~;
#X obj 554 195 line~;
#X obj 216 149 float 60;
#X obj 224 195 * 1;
#X obj 200 106 t b f;
#X floatatom 79 272 5 0 0 0 - - -;
#X obj 14 29 select 0 1;
#X obj 143 62 float 5;
#X obj 198 64 float 4;
#X obj 268 65 float 6;
#X obj 323 64 float 8;
#X obj 123 25 unpack 5 4 6 8;
#X obj 468 98 r melody-hz;
#X obj 13 10 r nb4-1;
#X msg 182 335 1;
#X msg 214 334 1.125;
#X msg 258 334 1.25;
#X msg 346 333 1.5;
#X msg 293 333 1.3333;
#X msg 382 333 1.66666;
#X msg 440 334 1.875;
#X msg 12 63 1 1.25 1.3333 1.5;
#X msg 16 89 1.6666 1.875 2 4;
#X obj 78 290 s melody-hz;
#X obj 83 247 * 1;
#X obj 59 139 r nb0-1;
#X obj 111 138 r nb0-2;
#X obj 161 137 r nb0-3;
#X msg 59 159 2;
#X msg 111 157 4;
#X msg 161 158 8;
#X obj 261 129 r tonic;
#X obj 511 55 declare -path ../hcj.lib;
#X obj 510 36 declare -path .;
#X obj 356 197 *~ 1;
#X obj 355 175 tabosc4~ monosynth;
#X obj 369 225 *~ 0.1;
#X obj 82 11 loadbang;
#X msg 85 30 0;
#X msg 560 332 5 4 6 8;
#X msg 618 332 1.5 2.5 6 4;
#X obj 527 301 s~ monosynthmix;
#X obj 552 113 r nf4;
#X obj 125 245 r nb0-6;
#X msg 125 267 440;
#X connect 2 0 3 1;
#X connect 3 0 12 0;
#X connect 4 0 19 0;
#X connect 5 0 2 0;
#X connect 5 1 47 0;
#X connect 6 0 20 0;
#X connect 7 0 21 0;
#X connect 8 0 22 0;
#X connect 9 0 10 0;
#X connect 10 0 11 0;
#X connect 11 0 13 0;
#X connect 12 0 53 0;
#X connect 12 0 1 0;
#X connect 12 0 0 0;
#X connect 13 0 12 1;
#X connect 14 0 15 0;
#X connect 15 0 36 0;
#X connect 16 0 14 0;
#X connect 16 1 15 1;
#X connect 17 0 35 0;
#X connect 18 0 33 0;
#X connect 18 1 34 0;
#X connect 19 0 16 0;
#X connect 20 0 16 0;
#X connect 21 0 16 0;
#X connect 22 0 16 0;
#X connect 23 0 19 1;
#X connect 23 1 20 1;
#X connect 23 2 21 1;
#X connect 23 3 22 1;
#X connect 24 0 5 0;
#X connect 25 0 18 0;
#X connect 33 0 23 0;
#X connect 34 0 23 0;
#X connect 36 0 17 0;
#X connect 37 0 40 0;
#X connect 38 0 41 0;
#X connect 39 0 42 0;
#X connect 40 0 36 1;
#X connect 41 0 36 1;
#X connect 42 0 36 1;
#X connect 43 0 14 1;
#X connect 46 0 3 0;
#X connect 46 0 48 0;
#X connect 47 0 46 0;
#X connect 48 0 12 0;
#X connect 49 0 50 0;
#X connect 50 0 18 0;
#X connect 54 0 9 0;
#X connect 55 0 56 0;
#X connect 56 0 17 0;
