#N canvas 180 40 839 356 10;
#X declare -path ../hcj.lib;
#X declare -path .;
#X msg 194 209 1;
#X obj 194 190 loadbang;
#X obj 137 258 s lfp1;
#X obj 245 258 s lfp2;
#X obj 357 261 s lfp3;
#X obj 482 263 s lfp4;
#X obj 569 21 declare -path ../hcj.lib;
#X obj 569 41 declare -path .;
#X obj 395 97 / 127;
#X obj 397 155 t f f;
#X obj 397 137 line;
#X msg 396 117 \$1 100;
#X obj 36 200 metro 1200;
#X obj 70 225 metro 1210;
#X obj 121 203 + 1200;
#X obj 46 261 s lfpa;
#X obj 96 51 / 127;
#X obj 96 91 + 10;
#X obj 97 155 t f f;
#X obj 389 25 r nk9;
#X obj 124 -11 r nk8;
#X msg 10 159 1;
#X obj 10 140 loadbang;
#X obj 180 258 s lpf1t;
#X obj 287 258 s lpf2t;
#X obj 399 261 s lpf3t;
#X obj 525 263 s lpf4t;
#X obj 195 230 hcj.lib.rocksteady 300 100 2000 200;
#X obj 392 181 * 800;
#X obj 264 9 loadbang;
#X obj 391 58 - 127;
#X obj 392 77 * -1;
#X obj 393 201 + 30;
#X obj 126 10 - 127;
#X obj 97 30 * -1;
#X obj 96 70 * 5000;
#X obj 121 183 random 150;
#X obj 166 153 * 0.1;
#X obj 97 112 t f f;
#X msg 264 30 0;
#X connect 0 0 27 0;
#X connect 1 0 0 0;
#X connect 8 0 11 0;
#X connect 9 0 28 0;
#X connect 10 0 9 0;
#X connect 11 0 10 0;
#X connect 12 0 15 0;
#X connect 13 0 15 0;
#X connect 13 0 36 0;
#X connect 14 0 13 1;
#X connect 16 0 35 0;
#X connect 17 0 38 0;
#X connect 18 0 12 1;
#X connect 18 1 14 1;
#X connect 19 0 30 0;
#X connect 20 0 33 0;
#X connect 21 0 12 0;
#X connect 21 0 13 0;
#X connect 22 0 21 0;
#X connect 27 0 2 0;
#X connect 27 1 23 0;
#X connect 27 2 3 0;
#X connect 27 3 24 0;
#X connect 27 4 4 0;
#X connect 27 5 25 0;
#X connect 27 6 5 0;
#X connect 27 7 26 0;
#X connect 28 0 32 0;
#X connect 29 0 39 0;
#X connect 30 0 31 0;
#X connect 31 0 8 0;
#X connect 32 0 27 1;
#X connect 33 0 34 0;
#X connect 34 0 16 0;
#X connect 35 0 17 0;
#X connect 36 0 14 0;
#X connect 37 0 36 1;
#X connect 38 0 18 0;
#X connect 38 1 37 0;
#X connect 39 0 30 0;
#X connect 39 0 33 0;
