#N canvas 46 0 978 478 10;
#X declare -path ../hcj.lib;
#X obj 110 497 outlet~;
#X obj 342 78 inlet;
#X obj 8 80 inlet;
#X obj 232 83 inlet;
#X obj 160 407 clip~ -1 1;
#X obj 160 387 max~;
#X obj 483 79 inlet;
#X obj 180 363 r~ master-noise;
#X obj 374 11 declare -path ../hcj.lib;
#X obj 108 431 hcj.lib.cross~ 500;
#X obj 125 281 *~ \$3;
#X obj 125 220 osc~ \$2;
#X obj 125 261 /~ 2;
#X obj 125 239 +~ 1;
#X obj 164 164 loadbang;
#X obj 164 182 random 100;
#X obj 164 200 / 100;
#X text 18 8 inlets: base freq (hz) \, drift speed (ms) \, drift width
(hz*0-1) \, noise mix;
#X text 23 48 args: base freq (hz) \, drift speed (cps) \, drift amount
(*hz);
#X obj 111 475 *~;
#X obj 687 157 random 100;
#X obj 688 178 / 100;
#X obj 699 243 random 100;
#X obj 699 264 / 100;
#X obj 631 218 osc~ 0.005;
#X obj 631 238 *~ 0.1;
#X obj 631 289 tabosc4~ wndw;
#X obj 471 487 outlet~;
#X obj 479 449 *~;
#X text 732 104 amplitude modulation;
#X obj 647 110 loadbang;
#X obj 66 196 r \$0-driftspeed;
#X obj 232 101 s \$0-driftspeed;
#X obj 342 101 s \$0-driftwidth;
#X obj 159 261 r \$0-driftwidth;
#X obj 231 407 r \$0-noisemix;
#X obj 483 100 s \$0-noisemix;
#X obj 429 371 clip~ -1 1;
#X obj 429 351 max~;
#X obj 449 327 r~ master-noise;
#X obj 377 395 hcj.lib.cross~ 500;
#X obj 393 258 *~ \$3;
#X obj 393 197 osc~ \$2;
#X obj 393 238 /~ 2;
#X obj 393 216 +~ 1;
#X obj 377 280 +~;
#X obj 461 137 loadbang;
#X obj 461 155 random 100;
#X obj 461 173 / 100;
#X obj 357 162 r \$0-driftspeed;
#X obj 427 238 r \$0-driftwidth;
#X obj 500 371 r \$0-noisemix;
#X obj 631 260 +~ 0.005;
#X obj 687 135 hcj.lib.randmetro 2000 1000;
#X obj 688 197 + 0.0001;
#X obj 85 309 +~;
#X obj 290 261 sig~ 60;
#X obj 131 324 prepend set;
#X obj 457 278 prepend set;
#X obj 290 239 * 2;
#X obj 937 108 random 100;
#X obj 938 129 / 100;
#X obj 949 194 random 100;
#X obj 949 215 / 100;
#X obj 881 169 osc~ 0.005;
#X obj 881 189 *~ 0.1;
#X obj 881 240 tabosc4~ wndw;
#X obj 897 61 loadbang;
#X obj 881 211 +~ 0.005;
#X obj 937 86 hcj.lib.randmetro 2000 1000;
#X obj 938 148 + 0.0001;
#X obj 8 98 s \$0-waveform;
#X obj 131 303 r \$0-waveform;
#X obj 457 259 r \$0-waveform;
#X obj 322 188 r tonic;
#X obj 130 84 inlet;
#X obj 99 104 s \$0-tonicmultiplier;
#X obj 277 138 r \$0-tonicmultiplier;
#X obj 289 214 float 60;
#X obj 277 159 t b f;
#X obj 575 478 delwrite~ \$0-delaylineR 8000;
#X obj 195 485 delwrite~ \$0-delaylineL 8000;
#X obj 681 438 delread~ \$0-delaylineR 4000;
#X obj 676 369 random 8000;
#X obj 676 415 float;
#X obj 676 391 t b f;
#X obj 677 347 loadbang;
#X obj 829 470 delread~ \$0-delaylineR 4000;
#X obj 862 398 random 8000;
#X obj 862 444 float;
#X obj 862 420 t b f;
#X obj 861 377 loadbang;
#X obj -160 278 random 8000;
#X obj -160 324 float;
#X obj -160 300 t b f;
#X obj -162 255 loadbang;
#X obj -12 310 random 8000;
#X obj -12 356 float;
#X obj -12 332 t b f;
#X obj -14 286 loadbang;
#X obj -140 381 delread~ \$0-delaylineL 4000;
#X obj -288 349 delread~ \$0-delaylineL 4000;
#X obj 632 315 s~ \$0-amL;
#X obj 882 263 s~ \$0-amR;
#X obj 495 429 r~ \$0-amR;
#X obj 127 452 r~ \$0-amL;
#X obj 378 303 tabosc4~ monosynth;
#X obj 111 349 tabosc4~ monosynth;
#X connect 1 0 33 0;
#X connect 2 0 71 0;
#X connect 3 0 32 0;
#X connect 4 0 9 1;
#X connect 5 0 4 0;
#X connect 6 0 36 0;
#X connect 7 0 5 1;
#X connect 9 0 19 0;
#X connect 10 0 55 1;
#X connect 11 0 13 0;
#X connect 12 0 10 0;
#X connect 13 0 12 0;
#X connect 14 0 15 0;
#X connect 15 0 16 0;
#X connect 16 0 11 1;
#X connect 19 0 0 0;
#X connect 19 0 81 0;
#X connect 20 0 21 0;
#X connect 21 0 54 0;
#X connect 22 0 23 0;
#X connect 23 0 26 1;
#X connect 24 0 25 0;
#X connect 25 0 52 0;
#X connect 26 0 102 0;
#X connect 28 0 27 0;
#X connect 28 0 80 0;
#X connect 30 0 20 0;
#X connect 30 0 22 0;
#X connect 31 0 11 0;
#X connect 34 0 10 1;
#X connect 35 0 9 2;
#X connect 37 0 40 1;
#X connect 38 0 37 0;
#X connect 39 0 38 1;
#X connect 40 0 28 0;
#X connect 41 0 45 1;
#X connect 42 0 44 0;
#X connect 43 0 41 0;
#X connect 44 0 43 0;
#X connect 45 0 106 0;
#X connect 46 0 47 0;
#X connect 47 0 48 0;
#X connect 48 0 42 1;
#X connect 49 0 42 0;
#X connect 50 0 41 1;
#X connect 51 0 40 2;
#X connect 52 0 26 0;
#X connect 53 0 20 0;
#X connect 54 0 24 1;
#X connect 55 0 107 0;
#X connect 56 0 55 0;
#X connect 56 0 45 0;
#X connect 57 0 107 0;
#X connect 58 0 106 0;
#X connect 59 0 56 0;
#X connect 60 0 61 0;
#X connect 61 0 70 0;
#X connect 62 0 63 0;
#X connect 63 0 66 1;
#X connect 64 0 65 0;
#X connect 65 0 68 0;
#X connect 66 0 103 0;
#X connect 67 0 60 0;
#X connect 67 0 62 0;
#X connect 68 0 66 0;
#X connect 69 0 60 0;
#X connect 70 0 64 1;
#X connect 72 0 57 0;
#X connect 73 0 58 0;
#X connect 74 0 78 1;
#X connect 75 0 76 0;
#X connect 77 0 79 0;
#X connect 78 0 59 0;
#X connect 79 0 78 0;
#X connect 79 1 59 1;
#X connect 82 0 27 0;
#X connect 83 0 85 0;
#X connect 84 0 82 0;
#X connect 85 0 84 0;
#X connect 85 1 84 1;
#X connect 86 0 83 0;
#X connect 87 0 27 0;
#X connect 88 0 90 0;
#X connect 89 0 87 0;
#X connect 90 0 89 0;
#X connect 90 1 89 1;
#X connect 91 0 88 0;
#X connect 92 0 94 0;
#X connect 93 0 101 0;
#X connect 94 0 93 0;
#X connect 94 1 93 1;
#X connect 95 0 92 0;
#X connect 96 0 98 0;
#X connect 97 0 100 0;
#X connect 98 0 97 0;
#X connect 98 1 97 1;
#X connect 99 0 96 0;
#X connect 100 0 0 0;
#X connect 101 0 0 0;
#X connect 104 0 28 1;
#X connect 105 0 19 1;
#X connect 106 0 38 0;
#X connect 106 0 40 0;
#X connect 107 0 5 0;
#X connect 107 0 9 0;
