#N canvas -12 0 1001 438 10;
#X declare -path ../hcj.lib;
#X obj 192 69 s tonic;
#X obj 61 -129 notein;
#X obj 61 -88 poly 4 1;
#X obj 61 -108 pack 0 0;
#X obj 821 21 declare -path ../hcj.lib;
#X obj 187 401 outlet~;
#X obj 61 -66 pack 0 0 0;
#X obj 261 183 route 1 2 3 4;
#X floatatom 300 74 5 0 0 0 - - -;
#X floatatom 265 75 5 0 0 0 - - -;
#X obj 654 100 soundfiler;
#X obj 223 40 unpack 0 0 0 0;
#X floatatom 339 74 5 0 0 0 - - -;
#X floatatom 374 74 5 0 0 0 - - -;
#X text 136 -66 arg: base hz \, c2 range;
#X obj 822 41 table sparklebuf;
#X msg 654 79 read -resize 220rhodes.wav sparklebuf;
#X obj 655 59 loadbang;
#X obj 283 102 outlet;
#X obj 352 377 *~ 0.9;
#X obj 61 -46 piphz 261.63 220;
#X obj 1125 284 tabplay~ sparkleresamp;
#X obj 1397 297 tabplay~ sparkleresamp;
#X obj 1125 245 pip.patterns 2000 3;
#X obj 1397 258 pip.patterns 2000 2;
#X obj 1184 321 hcj.lib.throw2~ nf5 1000;
#X obj 1156 170 r pip_metro_speed;
#X obj 1065 141 r pip_metro_bang;
#X obj 1089 172 t b b;
#X obj 1469 196 + 1;
#X obj 1404 233 r pip_metro_speed;
#X obj 1394 136 r pip_metro_bang;
#X obj 1394 161 t b b;
#X obj 1270 178 r nb5-2;
#X obj 1527 150 r nb5-2;
#X obj 1231 223 + 1;
#X obj 1286 205 random 16;
#X obj 1286 225 + 1;
#X obj 1531 203 random 16;
#X obj 1529 224 + 1;
#X obj 1469 177 random 8;
#X obj 1231 204 random 8;
#X obj 1068 116 table sparkleresamp 264600;
#X obj 1125 265 pipscrub 264600;
#X obj 1397 277 pipscrub 264600;
#X obj 660 494 spigot~;
#X obj 661 474 *~ 0.9;
#X obj 640 521 tabwrite~ sparkleresamp2;
#X obj 661 454 tabplay~ sparkleresamp2;
#X obj 640 427 r nb8-2;
#X obj 705 474 r nb9-1;
#X obj 296 497 s~ sparklesend;
#X obj 544 472 r~ sparklesend;
#X obj 329 460 hcj.lib.cross~ 200;
#X obj 375 433 r~ master-noise;
#X obj 480 435 r nk9;
#X obj 620 256 osc~;
#X obj 169 248 hcj.lib.play sparklebuf;
#X obj 351 354 hcj.lib.cross~ 1500;
#X obj 7 251 hcj.lib.play sparklebuf;
#X obj 462 248 hcj.lib.play sparklebuf;
#X obj 317 248 hcj.lib.play sparklebuf;
#X obj 8 227 pip.sparkle.makenote;
#X obj 169 225 pip.sparkle.makenote;
#X obj 317 226 pip.sparkle.makenote;
#X obj 462 227 pip.sparkle.makenote;
#X obj 333 100 s sparklehz;
#X obj 364 -111 route 1 2 3 4;
#X obj 709 255 osc~;
#X obj 791 254 osc~;
#X obj 880 253 osc~;
#X obj 494 126 r sparklehz;
#X obj 545 300 r nk6;
#X obj 545 320 / 127;
#X obj 494 147 osc~;
#X obj 678 142 route 1 2 3 4;
#X obj 615 216 unpack 0 0 0;
#X obj 712 225 unpack 0 0 0;
#X obj 794 221 unpack 0 0 0;
#X obj 891 230 unpack 0 0 0;
#X obj 330 -17 line~;
#X obj 288 312 *~;
#X obj 412 311 *~;
#X obj 154 300 *~;
#X obj 30 301 *~;
#X obj 51 277 r~ amp1;
#X obj 176 275 r~ amp2;
#X obj 325 280 r~ amp3;
#X obj 457 281 r~ amp4;
#X obj 654 259 r~ amp1;
#X obj 743 258 r~ amp2;
#X obj 825 257 r~ amp3;
#X obj 914 256 r~ amp4;
#X obj 893 280 *~;
#X obj 804 281 *~;
#X obj 722 282 *~;
#X obj 633 283 *~;
#X obj 331 6 s~ amp1;
#X obj 478 13 s~ amp2;
#X obj 622 3 s~ amp3;
#X obj 761 -4 s~ amp4;
#X obj 478 -10 line~;
#X obj 622 -20 line~;
#X obj 760 -26 line~;
#X obj 329 -41 pack 0 1000;
#X obj 478 -32 pack 0 1000;
#X obj 622 -44 pack 0 1000;
#X obj 760 -49 pack 0 1000;
#X obj 518 -108 route 1 2 3 4;
#X obj 693 -130 r nf8;
#X obj 693 -110 / 127;
#X obj 693 -91 * 10000;
#X obj 405 -41 pack 0 0;
#X obj 552 -33 pack 0 0;
#X obj 695 -43 pack 0 0;
#X obj 834 -48 pack 0 0;
#X obj 796 -113 / 127;
#X obj 796 -94 * 10000;
#X obj 796 -133 r nf9;
#X obj 494 185 *~ 0;
#X obj 607 183 == 0;
#X obj 664 348 *~ 1;
#X obj 619 382 *~ 0.5;
#X obj 595 156 r nb3-1;
#X connect 1 0 3 0;
#X connect 1 1 3 1;
#X connect 2 0 6 0;
#X connect 2 1 6 1;
#X connect 2 2 6 2;
#X connect 3 0 2 0;
#X connect 6 0 20 0;
#X connect 7 0 62 0;
#X connect 7 1 63 0;
#X connect 7 2 64 0;
#X connect 7 3 65 0;
#X connect 8 0 18 0;
#X connect 8 0 66 0;
#X connect 11 0 9 0;
#X connect 11 1 8 0;
#X connect 11 1 0 0;
#X connect 11 2 12 0;
#X connect 11 3 13 0;
#X connect 16 0 10 0;
#X connect 17 0 16 0;
#X connect 19 0 5 0;
#X connect 19 0 53 0;
#X connect 20 0 7 0;
#X connect 20 1 11 0;
#X connect 20 1 75 0;
#X connect 20 2 108 0;
#X connect 20 3 67 0;
#X connect 21 0 25 0;
#X connect 22 0 25 1;
#X connect 23 0 43 0;
#X connect 24 0 44 0;
#X connect 26 0 23 1;
#X connect 27 0 28 0;
#X connect 28 0 23 0;
#X connect 28 1 41 0;
#X connect 28 1 36 0;
#X connect 29 0 24 2;
#X connect 30 0 24 1;
#X connect 31 0 32 0;
#X connect 32 0 24 0;
#X connect 32 1 40 0;
#X connect 32 1 38 0;
#X connect 33 0 36 0;
#X connect 33 0 41 0;
#X connect 34 0 38 0;
#X connect 34 0 40 0;
#X connect 35 0 23 2;
#X connect 36 0 37 0;
#X connect 37 0 23 3;
#X connect 38 0 39 0;
#X connect 39 0 24 3;
#X connect 40 0 29 0;
#X connect 41 0 35 0;
#X connect 43 0 21 0;
#X connect 44 0 22 0;
#X connect 45 1 47 0;
#X connect 46 0 45 0;
#X connect 48 0 46 0;
#X connect 49 0 48 0;
#X connect 49 0 47 0;
#X connect 50 0 45 1;
#X connect 52 0 47 0;
#X connect 53 0 51 0;
#X connect 54 0 53 1;
#X connect 55 0 53 2;
#X connect 56 0 96 0;
#X connect 57 0 83 0;
#X connect 58 0 19 0;
#X connect 59 0 84 0;
#X connect 60 0 82 0;
#X connect 61 0 81 0;
#X connect 62 0 59 0;
#X connect 63 0 57 0;
#X connect 64 0 61 0;
#X connect 65 0 60 0;
#X connect 67 0 104 0;
#X connect 67 1 105 0;
#X connect 67 2 106 0;
#X connect 67 3 107 0;
#X connect 68 0 95 0;
#X connect 69 0 94 0;
#X connect 70 0 93 0;
#X connect 71 0 74 0;
#X connect 72 0 73 0;
#X connect 73 0 58 2;
#X connect 74 0 119 0;
#X connect 75 0 76 0;
#X connect 75 1 77 0;
#X connect 75 2 78 0;
#X connect 75 3 79 0;
#X connect 76 0 56 0;
#X connect 77 0 68 0;
#X connect 78 0 69 0;
#X connect 79 0 70 0;
#X connect 80 0 97 0;
#X connect 81 0 58 0;
#X connect 82 0 58 0;
#X connect 83 0 58 0;
#X connect 84 0 58 0;
#X connect 85 0 84 1;
#X connect 86 0 83 1;
#X connect 87 0 81 1;
#X connect 88 0 82 1;
#X connect 89 0 96 1;
#X connect 90 0 95 1;
#X connect 91 0 94 1;
#X connect 92 0 93 1;
#X connect 93 0 121 0;
#X connect 94 0 121 0;
#X connect 95 0 121 0;
#X connect 96 0 121 0;
#X connect 101 0 98 0;
#X connect 102 0 99 0;
#X connect 103 0 100 0;
#X connect 104 0 80 0;
#X connect 105 0 101 0;
#X connect 106 0 102 0;
#X connect 107 0 103 0;
#X connect 108 0 112 0;
#X connect 108 1 113 0;
#X connect 108 2 114 0;
#X connect 108 3 115 0;
#X connect 109 0 110 0;
#X connect 110 0 111 0;
#X connect 111 0 107 1;
#X connect 111 0 106 1;
#X connect 111 0 105 1;
#X connect 111 0 104 1;
#X connect 112 0 80 0;
#X connect 113 0 101 0;
#X connect 114 0 102 0;
#X connect 115 0 103 0;
#X connect 116 0 117 0;
#X connect 117 0 115 1;
#X connect 117 0 114 1;
#X connect 117 0 113 1;
#X connect 117 0 112 1;
#X connect 118 0 116 0;
#X connect 119 0 58 1;
#X connect 120 0 121 1;
#X connect 121 0 122 0;
#X connect 122 0 58 1;
#X connect 123 0 119 1;
#X connect 123 0 120 0;
