#N canvas 0 0 984 575 10;
#X declare -path ../hcj.lib;
#X obj 418 193 r noise;
#X obj 259 192 r driftspeed;
#X obj 339 193 r driftwidth;
#X obj 76 145 t b b;
#X obj 98 217 pip.tabledrifter 550 0.2 0.5;
#X obj 97 275 outlet~;
#X obj 74 168 hcj.lib.wavejuggle16 drift-\$1-\$2 partials-\$1-\$2;
#X obj 382 168 pip.makepartials partials-\$1-\$2;
#X obj 164 192 r tonic-\$1;
#X obj 76 125 r start-\$1-\$2;
#X obj 151 243 s start-\$1-\$2;
#X obj 268 283 outlet~;
#X connect 0 0 4 4;
#X connect 1 0 4 2;
#X connect 2 0 4 3;
#X connect 3 0 6 0;
#X connect 3 1 7 0;
#X connect 4 0 5 0;
#X connect 4 1 10 0;
#X connect 4 2 11 0;
#X connect 6 0 4 0;
#X connect 8 0 4 1;
#X connect 9 0 3 0;
