#N canvas 521 86 614 312 10;
#X declare -path .;
#X declare -path patches;
#X declare -path patches/lua;
#X declare -path data;
#X declare -path sounds;
#X declare -path patches/lib;
#X obj 435 26 declare -path .;
#X floatatom 285 110 5 0 0 0 - - -;
#X obj 154 92 table wndw;
#X obj 18 92 loadbang;
#X obj 74 92 table phasor;
#X obj 54 281 dac~;
#X obj 22 229 catch~ mL;
#X obj 146 230 catch~ mR;
#X obj 53 255 hcj.lib.limit;
#X obj 85 230 catch~ mM;
#X obj 285 205 adc~ 1 2;
#X msg 18 112 \; wndw sinesum 512 1 \; wndw read sine-wndw.txt \; phasor
sinesum 512 1 \; phasor read phasor.txt;
#X obj 285 161 r nb9-2;
#X obj 285 182 s killall;
#X obj 285 226 hcj.lib.limit;
#X obj 285 92 hcj.lib.cpu;
#X obj 359 267 s~ inputs;
#X obj 180 174 netreceive 3000;
#X obj 180 192 pip.cmd;
#X obj 360 246 *~ 0.3;
#X obj 6 8 pip.overtone~ a 1;
#X obj 137 6 pip.overtone~ b 1;
#X obj 266 5 pip.overtone~ c 1;
#X obj 6 47 pip.overtone~ a 2;
#X obj 137 46 pip.overtone~ b 2;
#X obj 266 45 pip.overtone~ c 2;
#X obj 6 28 throw~ mL;
#X obj 6 65 throw~ mR;
#X obj 137 66 throw~ mR;
#X obj 137 24 throw~ mL;
#X obj 266 24 throw~ mL;
#X obj 266 64 throw~ mR;
#X obj 435 45 declare -path patches;
#X obj 435 83 declare -path patches/lua;
#X obj 435 101 declare -path data;
#X obj 435 120 declare -path sounds;
#X obj 435 64 declare -path patches/lib;
#X connect 3 0 11 0;
#X connect 6 0 8 0;
#X connect 7 0 8 1;
#X connect 8 0 5 0;
#X connect 8 1 5 1;
#X connect 9 0 8 0;
#X connect 9 0 8 1;
#X connect 10 0 14 0;
#X connect 10 1 14 1;
#X connect 12 0 13 0;
#X connect 14 1 19 0;
#X connect 15 0 1 0;
#X connect 17 0 18 0;
#X connect 19 0 16 0;
#X connect 20 0 26 0;
#X connect 21 0 29 0;
#X connect 22 0 30 0;
#X connect 23 0 27 0;
#X connect 24 0 28 0;
#X connect 25 0 31 0;
