#N canvas 0 44 674 854 10;
#X declare -path .;
#X declare -path patches;
#X declare -path patches/lua;
#X declare -path data;
#X declare -path sounds;
#X declare -path patches/lib;
#X declare -path .;
#X declare -path lib;
#X declare -path lua;
#X declare -path ../data;
#X declare -path ../sounds;
#X declare -path .;
#X declare -path lib;
#X declare -path lua;
#X declare -path ../data;
#X declare -path ../sounds;
#X declare -path lib;
#X declare -path lib;
#X declare -path lib;
#X obj 435 49 declare -path .;
#X floatatom 435 28 5 0 0 0 - - -;
#X obj 201 7 table wndw;
#X obj 5 8 loadbang;
#X obj 81 8 table phasor;
#X obj 466 229 adc~ 1 2;
#X msg 5 28 \; wndw sinesum 512 1 \; wndw read sine-wndw.txt \; phasor
sinesum 512 1 \; phasor read phasor.txt;
#X obj 435 10 hcj.lib.cpu;
#X obj 465 274 s~ inputs;
#X obj 436 164 netreceive 3000;
#X obj 436 186 pip.cmd;
#X obj 435 68 declare -path patches;
#X obj 435 106 declare -path patches/lua;
#X obj 435 124 declare -path data;
#X obj 435 143 declare -path sounds;
#X obj 435 87 declare -path patches/lib;
#X obj 52 127 pip.sparklesynth;
#X obj 154 205 pip.resample;
#X obj 235 160 ctlin 64;
#X obj 235 182 / 127;
#X obj 551 163 pip.touch;
#X obj 466 253 *~ 2.3;
#X obj 447 364 pip.overtone~ a 1;
#X obj 147 166 *~ 1;
#X obj 188 166 *~ 0;
#X obj 203 49 r~ inputs;
#X obj 213 137 == 0;
#X obj 213 115 int 1;
#X obj 213 76 r synth;
#X obj 213 94 route input;
#X obj 16 459 hcj.lib.limit;
#X obj 447 423 pip.overtone~ b 1;
#X obj 446 481 pip.overtone~ c 1;
#X obj 66 546 dac~ 1 2 3 4 5 6;
#X obj 18 389 catch~ mL1;
#X obj 53 415 catch~ mM1;
#X obj 138 413 catch~ mR1;
#X obj 52 178 throw~ mM1;
#X obj 448 448 throw~ mL2;
#X obj 562 447 throw~ mR2;
#X obj 224 466 hcj.lib.limit;
#X obj 226 396 catch~ mL2;
#X obj 261 422 catch~ mM2;
#X obj 346 420 catch~ mR2;
#X obj 448 386 throw~ mL2;
#X obj 564 387 throw~ mR2;
#X obj 448 503 throw~ mL2;
#X obj 560 506 throw~ mR2;
#X obj 19 632 r sparklehz;
#X obj 22 721 s overtones;
#X obj 19 654 list prepend freq;
#X obj 19 674 route list;
#X obj 134 678 tgl 15 0 empty empty empty 17 7 0 10 -262144 -1 -1 0
1;
#X obj 22 699 spigot;
#X obj 394 555 r fabric;
#X msg 365 633 1;
#X obj 448 659 readsf~ 2;
#X obj 405 688 throw~ mL1;
#X obj 500 687 throw~ mR1;
#X obj 365 589 t b;
#X obj 365 611 del 1000;
#X obj 255 371 hcj.lib.limit;
#X obj 377 325 catch~ mR3;
#X obj 292 327 catch~ mM3;
#X obj 257 301 catch~ mL3;
#X obj 154 228 throw~ mL3;
#X obj 235 229 throw~ mR3;
#X connect 3 0 6 0;
#X connect 5 0 21 0;
#X connect 5 1 21 0;
#X connect 7 0 1 0;
#X connect 9 0 10 0;
#X connect 16 0 23 0;
#X connect 16 0 37 0;
#X connect 17 0 65 0;
#X connect 17 1 66 0;
#X connect 18 0 19 0;
#X connect 19 0 17 1;
#X connect 21 0 8 0;
#X connect 22 0 44 0;
#X connect 22 1 45 0;
#X connect 23 0 17 0;
#X connect 24 0 17 0;
#X connect 25 0 24 0;
#X connect 26 0 24 1;
#X connect 27 0 26 0;
#X connect 27 0 23 1;
#X connect 28 0 29 0;
#X connect 29 0 27 0;
#X connect 30 0 33 0;
#X connect 30 1 33 1;
#X connect 31 0 38 0;
#X connect 31 1 39 0;
#X connect 32 0 46 0;
#X connect 32 1 47 0;
#X connect 34 0 30 0;
#X connect 35 0 30 1;
#X connect 35 0 30 0;
#X connect 36 0 30 1;
#X connect 40 0 33 2;
#X connect 40 1 33 3;
#X connect 41 0 40 0;
#X connect 42 0 40 1;
#X connect 42 0 40 0;
#X connect 43 0 40 1;
#X connect 48 0 50 0;
#X connect 50 0 51 0;
#X connect 51 0 53 0;
#X connect 52 0 53 1;
#X connect 53 0 49 0;
#X connect 54 0 56 0;
#X connect 54 0 59 0;
#X connect 55 0 56 0;
#X connect 56 0 57 0;
#X connect 56 1 58 0;
#X connect 59 0 60 0;
#X connect 60 0 55 0;
#X connect 61 0 33 4;
#X connect 61 1 33 5;
#X connect 62 0 61 1;
#X connect 63 0 61 1;
#X connect 63 0 61 0;
#X connect 64 0 61 0;
