#N canvas 0 47 958 1031 10;
#X declare -path .;
#X declare -path patches;
#X declare -path patches/lua;
#X declare -path data;
#X declare -path sounds;
#X declare -path patches/lib;
#X declare -path .;
#X declare -path lib;
#X declare -path lua;
#X declare -path ../data;
#X declare -path ../sounds;
#X declare -path .;
#X declare -path lib;
#X declare -path lua;
#X declare -path ../data;
#X declare -path ../sounds;
#X declare -path lib;
#X declare -path lib;
#X declare -path lib;
#X obj 435 49 declare -path .;
#X floatatom 435 28 5 0 0 0 - - -;
#X obj 141 8 table wndw;
#X obj 5 8 loadbang;
#X obj 61 8 table phasor;
#X obj 42 302 dac~;
#X obj 10 250 catch~ mL;
#X obj 134 251 catch~ mR;
#X obj 41 276 hcj.lib.limit;
#X obj 73 251 catch~ mM;
#X obj 466 229 adc~ 1 2;
#X msg 5 28 \; wndw sinesum 512 1 \; wndw read sine-wndw.txt \; phasor
sinesum 512 1 \; phasor read phasor.txt;
#X obj 435 10 hcj.lib.cpu;
#X obj 465 274 s~ inputs;
#X obj 436 164 netreceive 3000;
#X obj 436 182 pip.cmd;
#X obj 435 68 declare -path patches;
#X obj 435 106 declare -path patches/lua;
#X obj 435 124 declare -path data;
#X obj 435 143 declare -path sounds;
#X obj 435 87 declare -path patches/lib;
#X obj 6 107 pip.sparklesynth;
#X obj 8 194 throw~ mM;
#X obj 134 185 pip.resample;
#X obj 203 149 ctlin 64;
#X obj 203 167 / 127;
#X obj 134 204 throw~ mL;
#X obj 203 204 throw~ mR;
#X obj 487 182 pip.touch;
#X obj 466 253 *~ 2.3;
#X obj 30 351 pip.overtone~ a 1;
#X obj 31 373 throw~ mL;
#X obj 95 373 throw~ mR;
#X obj 153 351 pip.overtone~ b 1;
#X obj 161 373 throw~ mL;
#X obj 225 373 throw~ mR;
#X obj 135 155 *~ 1;
#X obj 170 155 *~ 0;
#X obj 169 67 r~ inputs;
#X obj 191 129 == 0;
#X obj 191 107 int 1;
#X obj 234 49 r synth;
#X obj 234 67 route input;
#X obj 302 373 throw~ mL;
#X obj 366 373 throw~ mR;
#X obj 294 351 pip.overtone~ c 1;
#X connect 3 0 11 0;
#X connect 6 0 8 0;
#X connect 7 0 8 1;
#X connect 8 0 5 0;
#X connect 8 1 5 1;
#X connect 9 0 8 0;
#X connect 9 0 8 1;
#X connect 10 0 29 0;
#X connect 10 1 29 0;
#X connect 12 0 1 0;
#X connect 14 0 15 0;
#X connect 21 0 22 0;
#X connect 21 0 36 0;
#X connect 23 0 26 0;
#X connect 23 1 27 0;
#X connect 24 0 25 0;
#X connect 25 0 23 1;
#X connect 29 0 13 0;
#X connect 30 0 31 0;
#X connect 30 1 32 0;
#X connect 33 0 34 0;
#X connect 33 1 35 0;
#X connect 36 0 23 0;
#X connect 37 0 23 0;
#X connect 38 0 37 0;
#X connect 39 0 37 1;
#X connect 40 0 39 0;
#X connect 40 0 36 1;
#X connect 41 0 42 0;
#X connect 42 0 40 0;
#X connect 45 0 43 0;
#X connect 45 1 44 0;
