#N canvas 192 54 1001 429 10;
#X obj 38 130 tabplay~ suitedrone;
#X obj 657 318 table suitedrone;
#X obj 375 295 soundfiler;
#X obj 44 98 bng 15 250 50 0 empty empty empty 17 7 0 10 -262144 -1
-1;
#X obj 140 363 dac~;
#X obj 222 366 writesf~;
#X msg 242 317 start;
#X obj 148 250 *~ 0.8;
#X obj 33 30 tgl 15 0 empty empty empty 17 7 0 10 -262144 -1 -1 0 1
;
#X msg 177 49 1;
#N canvas 96 255 450 300 tuner 0;
#X obj 126 200 outlet~;
#X obj 99 16 inlet;
#X obj 174 33 inlet;
#X obj 40 15 inlet~;
#X obj 275 39 inlet;
#X obj 41 98 pvtuner~ 0 7000;
#X obj 226 128 block~ 256;
#X connect 1 0 5 1;
#X connect 2 0 5 2;
#X connect 3 0 5 0;
#X connect 4 0 5 0;
#X connect 5 0 0 0;
#X restore 145 225 pd tuner;
#X msg 300 59 major_seventh_chord;
#X msg 446 102 pelog;
#X msg 513 103 minor;
#X msg 585 108 eq12;
#X msg 212 53 1e-05;
#X obj 39 61 metro 17000;
#X msg 298 321 stop;
#X msg 673 156;
#X msg 394 212 233.081 466.163 261.625 523.251 329.628 659.255;
#X msg 438 61 basefreq 87.307;
#X msg 343 345 open /home/hecanjog/Cedar/PeregrineA/natedisttune.wav
;
#X msg 375 262 read -resize /home/hecanjog/Cedar/PeregrineA/nateriffsdist.wav
suitedrone;
#X connect 0 0 10 0;
#X connect 3 0 0 0;
#X connect 6 0 5 0;
#X connect 7 0 5 0;
#X connect 7 0 4 0;
#X connect 7 0 4 1;
#X connect 8 0 16 0;
#X connect 9 0 10 1;
#X connect 10 0 7 0;
#X connect 11 0 10 3;
#X connect 12 0 10 3;
#X connect 13 0 10 3;
#X connect 14 0 10 3;
#X connect 15 0 10 2;
#X connect 16 0 3 0;
#X connect 17 0 5 0;
#X connect 19 0 10 3;
#X connect 20 0 10 3;
#X connect 21 0 5 0;
#X connect 22 0 2 0;
