#N canvas 212 0 731 436 10;
#X obj 397 274 line~;
#X obj 339 303 *~;
#X obj 457 116 del 100;
#X obj 496 95 + 2;
#X obj 431 53 t b b b;
#X obj 538 211 + 2;
#X obj 437 214 + 1;
#X obj 503 165 t b b;
#X obj 493 234 pack 0 5;
#X obj 405 164 t b b;
#X obj 16 302 *~;
#X obj 39 271 line~;
#X obj 99 113 del 100;
#X obj 138 92 + 2;
#X obj 73 50 t b b b;
#X obj 180 208 + 2;
#X obj 79 211 + 1;
#X obj 145 162 t b b;
#X obj 135 231 pack 0 5;
#X obj 47 161 t b b;
#X obj 22 233 pack 0.7 2;
#X obj 21 336 outlet~;
#X obj 336 338 outlet~;
#X obj 404 31 t b b;
#X obj 409 8 inlet;
#X obj 11 127 inlet~;
#X obj 138 72 random \$1;
#X obj 79 189 random \$2;
#X obj 180 187 random \$2;
#X obj 496 75 random \$3;
#X obj 437 192 random \$4;
#X obj 538 190 random \$4;
#X text 331 -21 args: main length \, main attack/decay \, noise length
\, noise attack/decay;
#X obj 380 236 pack 0.1 2;
#X obj 368 208 float 0.1;
#X obj 335 168 r aaaa-a;
#X obj 66 147 r aaaa-p;
#X obj 17 198 float 0.7;
#X obj 277 248 inlet~;
#X connect 0 0 1 1;
#X connect 1 0 22 0;
#X connect 2 0 7 0;
#X connect 3 0 2 1;
#X connect 4 0 9 0;
#X connect 4 1 2 0;
#X connect 4 2 29 0;
#X connect 5 0 8 1;
#X connect 6 0 33 1;
#X connect 7 0 8 0;
#X connect 7 1 31 0;
#X connect 8 0 0 0;
#X connect 9 0 34 0;
#X connect 9 1 30 0;
#X connect 10 0 21 0;
#X connect 11 0 10 1;
#X connect 12 0 17 0;
#X connect 13 0 12 1;
#X connect 14 0 19 0;
#X connect 14 1 12 0;
#X connect 14 2 26 0;
#X connect 15 0 18 1;
#X connect 16 0 20 1;
#X connect 17 0 18 0;
#X connect 17 1 28 0;
#X connect 18 0 11 0;
#X connect 19 0 37 0;
#X connect 19 1 27 0;
#X connect 20 0 11 0;
#X connect 23 0 14 0;
#X connect 23 1 4 0;
#X connect 24 0 23 0;
#X connect 25 0 10 0;
#X connect 26 0 13 0;
#X connect 27 0 16 0;
#X connect 28 0 15 0;
#X connect 29 0 3 0;
#X connect 30 0 6 0;
#X connect 31 0 5 0;
#X connect 33 0 0 0;
#X connect 34 0 33 0;
#X connect 35 0 34 1;
#X connect 36 0 37 1;
#X connect 37 0 20 0;
#X connect 38 0 1 0;
