#N canvas 257 0 684 496 10;
#X obj 184 337 line~;
#X obj 236 295 s \$0-feedback;
#X obj 184 84 float 0;
#X obj 223 64 r \$0-feedback;
#X obj 184 106 t f b;
#X obj 211 127 random 2;
#X obj 184 258 expr if($f1 > 0 && $f1 < 100 \, $f1 + $f2 \, if($f1
< 0 \, $f1 + 1 \, if($f1 > 100 \, $f1 - 1 \, 1)));
#X obj 211 146 expr if($f1 == 0 \, -2 \, 2);
#X obj 239 208 + 1;
#X obj 211 229 *;
#X obj 211 167 t f b;
#X obj 239 188 random 2;
#X msg 184 317 \$1 100;
#X obj 184 359 *~ 0.01;
#X obj 184 64 inlet;
#X obj 183 382 outlet~;
#X connect 0 0 13 0;
#X connect 2 0 4 0;
#X connect 3 0 2 1;
#X connect 4 0 6 0;
#X connect 4 1 5 0;
#X connect 5 0 7 0;
#X connect 6 0 1 0;
#X connect 6 0 12 0;
#X connect 7 0 10 0;
#X connect 8 0 9 1;
#X connect 9 0 6 1;
#X connect 10 0 9 0;
#X connect 10 1 11 0;
#X connect 11 0 8 0;
#X connect 12 0 0 0;
#X connect 13 0 15 0;
#X connect 14 0 2 0;
