#N canvas 230 304 332 244 10;
#X obj 68 54 inlet;
#X obj 53 164 *~;
#X obj 68 142 line;
#X text 113 53 optional slider input;
#X obj 20 139 inlet~;
#X obj 131 76 r \$1;
#X obj 52 185 outlet~;
#X obj 105 142 outlet;
#X text 153 142 optional control feedback;
#X text 170 75 args: control sends;
#X obj 68 99 / 127;
#X msg 68 120 \$1 300;
#X connect 0 0 10 0;
#X connect 1 0 6 0;
#X connect 2 0 1 1;
#X connect 4 0 1 0;
#X connect 5 0 10 0;
#X connect 10 0 11 0;
#X connect 11 0 2 0;
#X connect 11 0 7 0;
