#N canvas 346 0 635 449 10;
#X text 13 10 args: filename;
#X obj 260 394 outlet~;
#X obj 260 351 line~;
#X obj 26 132 inlet;
#X msg 260 332 \$1 \, \$2 \$3;
#X obj 260 312 pack 0 44100 1000;
#X obj 359 289 /;
#X obj 359 222 float 1000;
#X obj 374 267 float 1.25;
#X obj 85 186 s \$0-length;
#X obj 389 169 r \$0-length;
#X obj 26 158 unpack 0 0 0;
#X obj 17 185 s \$0-start;
#X obj 161 187 s \$0-speed;
#X obj 431 247 r \$0-speed;
#X obj 359 243 t f b;
#X obj 260 162 r \$0-start;
#X obj 309 216 +;
#X obj 389 189 t f f;
#X obj 309 289 * 44.1;
#X obj 260 289 * 44.1;
#X obj 260 181 t f f b;
#X text 7 29 inlets: start (ms) length (ms) speed;
#X obj 349 351 inlet;
#X obj 260 372 tabread4~ \$1;
#X msg 185 311 stop;
#X obj 185 290 r killall;
#X connect 2 0 24 0;
#X connect 3 0 11 0;
#X connect 4 0 2 0;
#X connect 5 0 4 0;
#X connect 6 0 5 2;
#X connect 7 0 15 0;
#X connect 8 0 6 1;
#X connect 10 0 18 0;
#X connect 11 0 12 0;
#X connect 11 1 9 0;
#X connect 11 2 13 0;
#X connect 14 0 8 1;
#X connect 15 0 6 0;
#X connect 15 1 8 0;
#X connect 16 0 21 0;
#X connect 17 0 19 0;
#X connect 18 0 17 1;
#X connect 18 1 7 1;
#X connect 19 0 5 1;
#X connect 20 0 5 0;
#X connect 21 0 20 0;
#X connect 21 1 17 0;
#X connect 21 2 7 0;
#X connect 23 0 24 0;
#X connect 24 0 1 0;
#X connect 25 0 2 0;
#X connect 26 0 25 0;
