#N canvas 357 0 672 502 10;
#X obj 248 27 loadbang;
#X obj 92 103 inlet~;
#X obj 162 102 inlet~;
#X obj 92 176 z~ 64;
#X obj 235 178 z~ 64;
#X obj 92 199 *~;
#X obj 236 199 *~;
#X obj 244 140 limiter~ 50 1;
#X obj 92 220 outlet~;
#X obj 236 219 outlet~;
#X msg 323 71 LIMIT;
#X msg 401 97 print;
#X obj 248 46 t b b;
#X msg 226 75 set 110 30 30;
#X connect 0 0 12 0;
#X connect 1 0 3 0;
#X connect 1 0 7 0;
#X connect 2 0 4 0;
#X connect 2 0 7 1;
#X connect 3 0 5 0;
#X connect 4 0 6 0;
#X connect 5 0 8 0;
#X connect 6 0 9 0;
#X connect 7 0 5 1;
#X connect 7 0 6 1;
#X connect 10 0 7 0;
#X connect 11 0 7 0;
#X connect 12 0 13 0;
#X connect 12 1 10 0;
#X connect 13 0 7 0;
