#N canvas 574 0 450 300 10;
#X obj 18 48 select 127;
#X obj 18 26 ctlin \$1;
#X obj 95 48 select 127;
#X obj 174 47 select 127;
#X obj 95 26 ctlin \$2;
#X obj 174 25 ctlin \$3;
#X obj 17 95 ctlin \$4;
#X obj 94 95 ctlin \$5;
#X obj 173 94 ctlin \$6;
#X obj 18 70 s nb0-1;
#X obj 95 70 s nb0-2;
#X obj 174 69 s nb0-3;
#X obj 17 139 s nb0-4;
#X obj 94 139 s nb0-5;
#X obj 173 138 s nb0-6;
#X obj 173 116 / 127;
#X obj 94 117 / 127;
#X obj 17 117 / 127;
#X connect 0 0 9 0;
#X connect 1 0 0 0;
#X connect 2 0 10 0;
#X connect 3 0 11 0;
#X connect 4 0 2 0;
#X connect 5 0 3 0;
#X connect 6 0 17 0;
#X connect 7 0 16 0;
#X connect 8 0 15 0;
#X connect 15 0 14 0;
#X connect 16 0 13 0;
#X connect 17 0 12 0;
