#N canvas 0 0 450 300 10;
#X obj 113 181 *~;
#X obj 148 149 line~;
#X obj 148 84 r \$1;
#X obj 148 106 / 127;
#X obj 88 130 inlet~;
#X obj 112 204 throw~ mM;
#X obj 148 128 pack 0 \$2;
#X connect 0 0 5 0;
#X connect 1 0 0 1;
#X connect 2 0 3 0;
#X connect 3 0 6 0;
#X connect 4 0 0 0;
#X connect 6 0 1 0;
