#N canvas 84 281 652 210 10;
#X obj 15 15 table \$1 \$2;
#X obj 491 146 tabwrite~ \$1;
#X obj 490 93 inlet~;
#X text 538 91 sample input;
#X obj 420 46 tabplay~ \$1;
#X obj 420 66 *~ \$3;
#X obj 421 87 spigot~;
#X obj 558 49 s \$0-write;
#X obj 14 60 s \$0-dub;
#X obj 13 106 s \$0-clear;
#X obj 14 39 r \$4;
#X obj 13 85 r \$5;
#X text 21 177 \$1 tablename \$2 tablesize \$3 resamp scale \$4 dub
ctl \$5 clear ctl;
#X obj 460 66 r \$0-dub;
#X obj 420 24 r \$0-write;
#X obj 505 120 r \$0-write;
#X obj 338 24 r \$0-clear;
#X obj 338 44 symbol \$1;
#X msg 338 63 \; \$1 const 0;
#X obj 257 72 select 0;
#X obj 257 92 symbol \$1;
#X msg 257 113 \; \$1 normalize -1 1;
#X obj 257 51 r \$0-dub;
#X obj 558 28 select 1;
#X obj 558 8 r \$0-dub;
#X connect 2 0 1 0;
#X connect 4 0 5 0;
#X connect 5 0 6 0;
#X connect 6 1 1 0;
#X connect 10 0 8 0;
#X connect 11 0 9 0;
#X connect 13 0 6 1;
#X connect 14 0 4 0;
#X connect 15 0 1 0;
#X connect 16 0 17 0;
#X connect 17 0 18 0;
#X connect 19 0 20 0;
#X connect 20 0 21 0;
#X connect 22 0 19 0;
#X connect 23 0 7 0;
#X connect 24 0 23 0;
