#N canvas 2152 459 734 452 10;
#X text 21 -13 args: filename;
#X obj 203 394 outlet~;
#X obj 54 176 inlet;
#X text 15 6 inlets: start (ms) length (ms) speed;
#X obj 190 330 tabread4~ \$1;
#X obj 190 352 *~;
#X obj 395 311 tabread4~ wndw;
#X obj 188 178 *~;
#X obj 234 273 samphold~;
#X obj 204 154 samphold~;
#X obj 40 265 s~ \$0-ramp;
#X obj 132 150 r~ \$0-ramp;
#X obj 291 252 r~ \$0-ramp;
#X obj 394 268 r~ \$0-ramp;
#X obj 255 130 r~ \$0-ramp;
#X obj 191 303 +~;
#X obj 235 251 *~ 44100;
#X obj 235 208 +~ 1;
#X obj 235 230 /~ 2;
#X obj 235 186 noise~;
#X obj 205 134 sig~;
#X obj 207 112 * 44.1;
#X obj 110 33 inlet;
#X obj 21 125 line~;
#X obj 42 244 *~;
#X obj 394 288 *~ 512;
#X msg 21 102 0 \, 1 \$1;
#X obj 110 53 t f f;
#X obj 56 221 samphold~;
#X obj 107 196 r~ \$0-ramp;
#X obj 56 199 sig~ 1;
#X msg 85 153 set 1;
#X obj 95 129 loadbang;
#X obj 15 60 * 0.8;
#X obj 219 78 * 0.8;
#X connect 2 0 30 0;
#X connect 4 0 5 0;
#X connect 5 0 1 0;
#X connect 6 0 5 1;
#X connect 7 0 15 0;
#X connect 8 0 15 1;
#X connect 9 0 7 1;
#X connect 11 0 7 0;
#X connect 12 0 8 1;
#X connect 13 0 25 0;
#X connect 14 0 9 1;
#X connect 15 0 4 0;
#X connect 16 0 8 0;
#X connect 17 0 18 0;
#X connect 18 0 16 0;
#X connect 19 0 17 0;
#X connect 20 0 9 0;
#X connect 21 0 20 0;
#X connect 22 0 27 0;
#X connect 23 0 24 0;
#X connect 24 0 10 0;
#X connect 25 0 6 0;
#X connect 26 0 23 0;
#X connect 27 0 33 0;
#X connect 27 1 34 0;
#X connect 28 0 24 1;
#X connect 29 0 28 1;
#X connect 30 0 28 0;
#X connect 31 0 28 0;
#X connect 32 0 31 0;
#X connect 33 0 26 0;
#X connect 34 0 21 0;
