#N canvas 0 0 450 300 10;
#X obj 80 100 inlet~;
#X obj 80 170 throw~ mL;
#X obj 148 166 throw~ mR;
#X obj 193 107 line~;
#X obj 80 134 *~;
#X obj 147 141 *~;
#X obj 137 99 inlet~;
#X obj 193 87 pack 0 \$2;
#X obj 193 45 r \$1;
#X obj 193 66 / 127;
#X connect 0 0 4 0;
#X connect 3 0 5 1;
#X connect 3 0 4 1;
#X connect 4 0 1 0;
#X connect 5 0 2 0;
#X connect 6 0 5 0;
#X connect 7 0 3 0;
#X connect 8 0 9 0;
#X connect 9 0 7 0;
