#N canvas 62 36 588 429 10;
#X obj 76 88 inlet;
#X obj 75 153 + 1;
#X obj 237 230 sel 0;
#X obj 237 251 1;
#X obj 39 259 sel 1;
#X obj 124 130 int 1;
#X obj 121 283 outlet;
#X obj 39 282 outlet;
#X obj 237 209 < \$1;
#X obj 258 186 inlet;
#X obj 443 24 inlet;
#X connect 0 0 5 0;
#X connect 1 0 5 1;
#X connect 2 0 3 0;
#X connect 3 0 5 1;
#X connect 4 0 7 0;
#X connect 5 0 1 0;
#X connect 5 0 4 0;
#X connect 5 0 6 0;
#X connect 5 0 8 0;
#X connect 8 0 2 0;
#X connect 9 0 8 1;
#X connect 10 0 5 1;
