#N canvas 598 389 798 523 10;
#X obj 348 166 tabplay~ lapsteel;
#X obj 77 208 tabplay~ lapsteel;
#X obj 100 270 *~;
#X obj 345 272 *~;
#X obj 246 388 outlet~;
#X obj 219 204 line~;
#X obj 475 198 line~;
#X msg 475 170 \$1 \, \$2 \$3;
#X msg 217 177 \$1 \, \$2 \$3;
#X obj 217 153 pack 0 1 1000;
#X obj 475 148 pack 1 0 1000;
#X obj 309 -31 metro 1000;
#X obj 313 -53 tgl 15 0 empty empty empty 17 7 0 10 -262144 -1 -1 1
1;
#X obj 203 379 dac~;
#X obj 477 100 hcj.lib.toggle 0;
#X obj 307 13 t b b;
#X obj 612 88 float 1000;
#X obj 440 80 hcj.lib.toggle 1;
#X obj 240 74 float 1000;
#X obj 92 80 hcj.lib.toggle 0;
#X obj 117 99 hcj.lib.toggle 1;
#X obj 127 18 t b b b;
#X obj 444 49 t b b b;
#X obj 347 107 random 800;
#X obj 80 176 float;
#X obj 341 142 float;
#X obj 616 -38 + 100;
#X obj 616 -57 random 1000;
#X obj 664 62 / 2;
#X obj 297 54 / 2;
#X obj 368 -3 del;
#X obj 616 -18 t f f f f;
#X obj 585 11 / 2;
#X obj 50 114 select 0;
#X obj 329 79 select 0;
#X connect 0 0 3 0;
#X connect 1 0 2 0;
#X connect 2 0 4 0;
#X connect 2 0 13 0;
#X connect 3 0 4 0;
#X connect 3 0 13 1;
#X connect 5 0 2 1;
#X connect 6 0 3 1;
#X connect 7 0 6 0;
#X connect 8 0 5 0;
#X connect 9 0 8 0;
#X connect 10 0 7 0;
#X connect 11 0 15 0;
#X connect 11 0 27 0;
#X connect 11 0 30 0;
#X connect 12 0 11 0;
#X connect 14 0 10 1;
#X connect 15 0 21 0;
#X connect 15 1 22 0;
#X connect 16 0 10 2;
#X connect 17 0 10 0;
#X connect 17 0 34 0;
#X connect 18 0 9 2;
#X connect 19 0 9 0;
#X connect 19 0 33 0;
#X connect 20 0 9 1;
#X connect 21 0 19 0;
#X connect 21 1 20 0;
#X connect 21 2 18 0;
#X connect 22 0 17 0;
#X connect 22 1 14 0;
#X connect 22 2 16 0;
#X connect 23 0 24 1;
#X connect 23 0 25 1;
#X connect 24 0 1 0;
#X connect 25 0 0 0;
#X connect 26 0 31 0;
#X connect 27 0 26 0;
#X connect 28 0 16 1;
#X connect 29 0 18 1;
#X connect 30 0 15 0;
#X connect 31 0 11 1;
#X connect 31 1 32 0;
#X connect 31 2 29 0;
#X connect 31 3 28 0;
#X connect 32 0 30 1;
#X connect 33 0 24 0;
#X connect 34 0 25 0;
#X connect 34 0 23 0;
