#N canvas 1222 63 819 672 10;
#X obj 87 275 * 0;
#X msg 118 87 1;
#X msg 86 87 0;
#X obj 57 117 spigot 1;
#X obj 34 62 t b b;
#X obj 60 296 del 0;
#X obj 88 167 float;
#X obj 59 139 t b b;
#X obj 60 320 t b b;
#X obj 105 254 + 1;
#X obj 105 232 random 800;
#X obj 88 191 t f b b;
#X obj 34 39 inlet;
#X obj 60 341 outlet;
#X obj 225 155 inlet;
#X obj 166 99 inlet;
#X text 29 13 inlets: bang \, rand mix \, rand width;
#X obj 225 185 float \$1;
#X obj 163 206 random 1500;
#X obj 269 155 loadbang;
#X obj 123 340 outlet;
#X connect 0 0 5 1;
#X connect 0 0 20 0;
#X connect 1 0 3 1;
#X connect 2 0 3 1;
#X connect 3 0 7 0;
#X connect 4 0 2 0;
#X connect 4 1 3 0;
#X connect 5 0 8 0;
#X connect 6 0 11 0;
#X connect 7 0 5 0;
#X connect 7 1 6 0;
#X connect 8 0 13 0;
#X connect 8 1 1 0;
#X connect 9 0 0 1;
#X connect 10 0 9 0;
#X connect 11 0 0 0;
#X connect 11 1 10 0;
#X connect 11 2 18 0;
#X connect 12 0 4 0;
#X connect 14 0 17 0;
#X connect 15 0 6 1;
#X connect 17 0 18 1;
#X connect 18 0 10 1;
#X connect 19 0 17 0;
