#N canvas 505 104 450 300 10;
#X obj 103 11 inlet;
#X obj 77 248 line~;
#X obj 76 271 outlet~;
#X msg 170 218 0 \, 1 \$1;
#X msg 42 214 1 \, 0 \$1;
#X obj 193 69 / 8;
#X obj 42 171 del 100;
#X obj 172 109 - 10;
#X obj 193 88 t f f;
#X obj 143 46 t b b f f;
#X obj 170 193 float;
#X obj 42 194 float;
#X connect 0 0 9 0;
#X connect 1 0 2 0;
#X connect 3 0 1 0;
#X connect 4 0 1 0;
#X connect 5 0 8 0;
#X connect 6 0 11 0;
#X connect 7 0 6 1;
#X connect 8 0 7 1;
#X connect 8 1 10 1;
#X connect 8 1 11 1;
#X connect 9 0 10 0;
#X connect 9 1 6 0;
#X connect 9 2 7 0;
#X connect 9 3 5 0;
#X connect 10 0 3 0;
#X connect 11 0 4 0;
