#N canvas 296 236 728 364 10;
#X obj 35 40 inlet;
#X text 34 22 index to read;
#X obj 148 28 inlet;
#X obj 146 190 table \$0data;
#X obj 35 64 tabread \$0data;
#X obj 35 89 outlet;
#X text 144 10 read only: filename in;
#X obj 239 105 symbol \$1;
#X obj 218 45 loadbang;
#X obj 98 100 symbol \$0data;
#X msg 145 151 \; \$1 read \$2;
#X obj 145 128 pack s s;
#X obj 148 69 t b s;
#X obj 148 49 symbol;
#X obj 418 163 float \$2;
#X obj 301 262 print;
#X obj 326 161 symbol \$0data;
#X msg 330 217 \; \$1 resize \$2;
#X obj 330 198 pack s 0;
#X obj 239 72 t b b b b;
#X connect 0 0 4 0;
#X connect 2 0 13 0;
#X connect 4 0 5 0;
#X connect 7 0 11 1;
#X connect 8 0 19 0;
#X connect 9 0 11 0;
#X connect 11 0 10 0;
#X connect 12 0 9 0;
#X connect 12 1 11 1;
#X connect 13 0 12 0;
#X connect 14 0 18 1;
#X connect 16 0 18 0;
#X connect 17 0 15 0;
#X connect 18 0 17 0;
#X connect 19 0 9 0;
#X connect 19 1 7 0;
#X connect 19 2 16 0;
#X connect 19 3 14 0;
