#N canvas 0 0 601 414 10;
#X obj 60 204 *~;
#X obj 205 80 inlet~;
#X obj 57 81 inlet~;
#X obj 60 256 outlet~;
#X obj 204 214 *~;
#X obj 328 43 inlet;
#X obj 75 162 *~ -1;
#X obj 75 184 +~ 1;
#X obj 328 88 line~;
#X obj 328 64 pack 0 \$1;
#X text 397 65 slew speed;
#X text 327 24 expects 0 - 1;
#X obj 489 30 inlet;
#X connect 0 0 3 0;
#X connect 1 0 4 0;
#X connect 2 0 0 0;
#X connect 4 0 3 0;
#X connect 5 0 9 0;
#X connect 6 0 7 0;
#X connect 7 0 0 1;
#X connect 8 0 4 1;
#X connect 8 0 6 0;
#X connect 9 0 8 0;
#X connect 12 0 9 1;
