#N canvas 0 0 542 216 10;
#X obj 27 -37 metro 1000;
#X obj 27 -16 t b b;
#X obj 27 5 cputime;
#X obj 27 27 int;
#X obj 27 49 * 0.1;
#X obj 27 -81 loadbang;
#X obj 27 -58 1;
#X text 130 -83 obviously lifted directly from the built in load meter
;
#X obj 26 75 outlet;
#X connect 0 0 1 0;
#X connect 1 0 2 0;
#X connect 1 1 2 1;
#X connect 2 0 3 0;
#X connect 3 0 4 0;
#X connect 4 0 8 0;
#X connect 5 0 6 0;
#X connect 6 0 0 0;
