#N canvas 16 119 962 344 10;
#X obj 345 113 tabset \$0-wave1;
#X obj 287 142 symbol \$0-wave1;
#X obj 33 274 prepend set;
#X obj 345 93 tabdump \$1;
#X obj 260 197 hcj.lib.sinesum16 \$1;
#X obj 287 161 s \$0-setwave;
#X obj 33 294 outlet;
#X obj 33 254 r \$0-setwave;
#X obj 164 201 s \$0-setwave;
#X obj 164 182 symbol \$1;
#X obj 260 90 del 0;
#X obj 260 118 t b b b;
#X obj 260 64 t b b;
#X obj 377 177 r \$2;
#X obj 467 288 table \$0-wave1 515;
#X obj 260 44 inlet;
#X connect 1 0 5 0;
#X connect 2 0 6 0;
#X connect 3 0 0 0;
#X connect 7 0 2 0;
#X connect 9 0 8 0;
#X connect 10 0 11 0;
#X connect 11 0 9 0;
#X connect 11 1 4 0;
#X connect 11 2 1 0;
#X connect 12 0 10 0;
#X connect 12 1 3 0;
#X connect 13 0 4 1;
#X connect 15 0 12 0;
