#N canvas 451 108 442 259 10;
#X obj 80 139 list append;
#X obj 80 166 list split 1;
#X obj 80 117 until;
#X text 194 122 see /pd/doc/5.reference example3;
#X obj 80 191 outlet;
#X obj 80 69 inlet;
#X obj 80 90 t b l;
#X text 78 42 inlet: list to iterate;
#X obj 149 191 outlet;
#X connect 0 0 1 0;
#X connect 1 0 4 0;
#X connect 1 1 0 1;
#X connect 1 2 2 1;
#X connect 1 2 8 0;
#X connect 2 0 0 0;
#X connect 5 0 6 0;
#X connect 6 0 2 0;
#X connect 6 1 0 1;
