#N canvas 50 27 571 443 10;
#X obj 251 163 noise~;
#X obj 251 183 +~ 1;
#X obj 251 202 /~ 2;
#X obj 251 249 samphold~;
#X obj 170 203 s~ \$0-ramp;
#X obj 305 220 r~ \$0-ramp;
#X obj 168 305 tabread4~ \$1;
#X obj 170 381 outlet~;
#X obj 148 232 *~ 44100;
#X obj 167 281 +~;
#X obj 250 222 *~ 44100;
#X obj 382 307 tabread4~ wndw;
#X obj 169 354 *~;
#X obj 383 265 r~ \$0-ramp;
#X obj 382 285 *~ 512;
#X obj 147 118 inlet~;
#X obj 147 147 +~ \$2;
#X obj 147 167 wrap~ -1 1;
#X connect 0 0 1 0;
#X connect 1 0 2 0;
#X connect 2 0 10 0;
#X connect 3 0 9 1;
#X connect 5 0 3 1;
#X connect 6 0 12 0;
#X connect 8 0 9 0;
#X connect 9 0 6 0;
#X connect 10 0 3 0;
#X connect 11 0 12 1;
#X connect 12 0 7 0;
#X connect 13 0 14 0;
#X connect 14 0 11 0;
#X connect 15 0 16 0;
#X connect 16 0 17 0;
#X connect 17 0 4 0;
#X connect 17 0 8 0;
