#N canvas 1886 76 1226 869 10;
#X obj 937 406 +;
#X obj 952 383 / 13;
#X obj 906 464 metro;
#X obj 27 0 inlet;
#X obj 906 527 outlet;
#X obj 965 548 outlet;
#X obj 123 2 inlet;
#X obj 965 527 float;
#X obj 906 506 t b b;
#X obj 963 461 r tempodrift;
#X obj 853 438 r \$0-toggle;
#X obj 123 23 s \$0-speed;
#X obj 937 358 t f f;
#X obj 937 336 r \$0-speed;
#X obj 27 23 s \$0-toggle;
#X obj 81 466 metro;
#X obj 77 577 outlet;
#X obj 139 618 outlet;
#X obj 139 597 float;
#X obj 85 552 t b b;
#X obj 195 422 r tempodrift;
#X obj 72 525 hcj.lib.randdel 1500;
#X obj 1071 75 * -1;
#X obj 1070 54 - 1;
#X obj 1070 35 / 127;
#X obj 1072 15 r nk9;
#X obj 28 440 r \$0-toggle;
#X obj 108 423 r \$0-speed;
#X obj 1072 139 s \$0-randwidth;
#X obj 241 394 r \$0-randwidth;
#X obj 1027 429 r \$0-randwidth;
#X obj 938 430 t f f;
#X obj 638 419 +;
#X obj 607 477 metro;
#X obj 607 540 outlet;
#X obj 666 561 outlet;
#X obj 666 540 float;
#X obj 607 519 t b b;
#X obj 664 474 r tempodrift;
#X obj 554 451 r \$0-toggle;
#X obj 638 371 t f f;
#X obj 638 349 r \$0-speed;
#X obj 728 442 r \$0-randwidth;
#X obj 639 443 t f f;
#X obj 392 399 +;
#X obj 361 457 metro;
#X obj 361 520 outlet;
#X obj 420 541 outlet;
#X obj 420 520 float;
#X obj 361 499 t b b;
#X obj 418 454 r tempodrift;
#X obj 308 431 r \$0-toggle;
#X obj 392 351 t f f;
#X obj 392 329 r \$0-speed;
#X obj 482 422 r \$0-randwidth;
#X obj 393 423 t f f;
#X obj 653 396 / 11;
#X obj 407 376 / 10;
#X obj 1071 95 * 800;
#X obj 1072 119 + 200;
#X obj 906 485 hcj.lib.randdel 1500;
#X obj 607 498 hcj.lib.randdel 1500;
#X obj 361 478 hcj.lib.randdel 1500;
#X obj 209 598 float;
#X obj 108 446 t f f f;
#X obj 80 493 t b b;
#X obj 210 622 s lfp1t-clean;
#X connect 0 0 31 0;
#X connect 1 0 0 1;
#X connect 2 0 60 0;
#X connect 3 0 14 0;
#X connect 6 0 11 0;
#X connect 7 0 5 0;
#X connect 8 0 4 0;
#X connect 8 1 7 0;
#X connect 9 0 60 1;
#X connect 10 0 2 0;
#X connect 12 0 0 0;
#X connect 12 1 1 0;
#X connect 13 0 12 0;
#X connect 15 0 65 0;
#X connect 18 0 17 0;
#X connect 19 0 16 0;
#X connect 19 1 18 0;
#X connect 20 0 21 1;
#X connect 21 0 19 0;
#X connect 22 0 58 0;
#X connect 23 0 22 0;
#X connect 24 0 23 0;
#X connect 25 0 24 0;
#X connect 26 0 15 0;
#X connect 27 0 64 0;
#X connect 29 0 21 2;
#X connect 30 0 60 2;
#X connect 31 0 2 1;
#X connect 31 1 7 1;
#X connect 32 0 43 0;
#X connect 33 0 61 0;
#X connect 36 0 35 0;
#X connect 37 0 34 0;
#X connect 37 1 36 0;
#X connect 38 0 61 1;
#X connect 39 0 33 0;
#X connect 40 0 32 0;
#X connect 40 1 56 0;
#X connect 41 0 40 0;
#X connect 42 0 61 2;
#X connect 43 0 33 1;
#X connect 43 1 36 1;
#X connect 44 0 55 0;
#X connect 45 0 62 0;
#X connect 48 0 47 0;
#X connect 49 0 46 0;
#X connect 49 1 48 0;
#X connect 50 0 62 1;
#X connect 51 0 45 0;
#X connect 52 0 44 0;
#X connect 52 1 57 0;
#X connect 53 0 52 0;
#X connect 54 0 62 2;
#X connect 55 0 45 1;
#X connect 55 1 48 1;
#X connect 56 0 32 1;
#X connect 57 0 44 1;
#X connect 58 0 59 0;
#X connect 59 0 28 0;
#X connect 60 0 8 0;
#X connect 61 0 37 0;
#X connect 62 0 49 0;
#X connect 63 0 66 0;
#X connect 64 0 15 1;
#X connect 64 1 18 1;
#X connect 64 2 63 1;
#X connect 65 0 21 0;
#X connect 65 1 63 0;
