#N canvas 109 126 450 300 10;
#X obj 55 31 notein;
#X obj 55 53 pack;
#X obj 77 147 select 0;
#X obj 19 147 select 0;
#X obj 196 148 select 0;
#X obj 136 147 select 0;
#X obj 38 209 s fb1;
#X obj 101 212 s fb2;
#X obj 181 212 s fb3;
#X obj 240 205 s fb4;
#X obj 59 115 route 50 56 62 66 71;
#X obj 270 150 select 0;
#X obj 314 207 s fb5;
#X floatatom 128 79 5 0 0 0 - - -;
#X connect 0 0 1 0;
#X connect 0 1 1 1;
#X connect 0 1 13 0;
#X connect 1 0 10 0;
#X connect 2 1 7 0;
#X connect 3 1 6 0;
#X connect 4 1 9 0;
#X connect 5 1 8 0;
#X connect 10 0 3 0;
#X connect 10 1 2 0;
#X connect 10 2 5 0;
#X connect 10 3 4 0;
#X connect 10 4 11 0;
#X connect 11 1 12 0;
