#N canvas 376 51 648 395 10;
#X obj 249 251 - 1;
#X obj 88 179 metro 1000;
#X obj 249 297 outlet;
#X obj 244 5 inlet;
#X text 283 5 reset;
#X obj 310 184 f 1;
#X obj 394 231 outlet;
#X text 442 232 bang on loop start;
#X obj 7 7 inlet;
#X obj 149 7 inlet;
#X text 144 42 speed in ms;
#X obj 343 5 inlet;
#X text 384 5 load other waveforms;
#X obj 165 139 / \$2;
#X obj 223 206 hcj.lib.mask \$2;
#X obj 165 160 t f f;
#X obj 164 313 pack 0 100;
#X obj 27 118 int 1;
#X obj 27 96 loadbang;
#X obj 233 112 int \$3;
#X obj 233 91 loadbang;
#X text 5 42 toggle + manual trig;
#X obj 89 145 r \$0-toggle;
#X obj 7 26 s \$0-toggle;
#X obj 149 26 s \$0-speed;
#X obj 165 111 r \$0-speed;
#X obj 244 24 s \$0-reset;
#X obj 310 165 r \$0-reset;
#X obj 356 253 r \$0-waveform;
#X obj 343 25 s \$0-waveform;
#X obj 528 8 inlet;
#X obj 528 27 s \$0-step;
#X text 460 52 step forward / manual advance;
#X obj 223 181 r \$0-step;
#X obj 249 272 hcj.lib.coll \$1 \$2;
#X obj 164 333 line~;
#X obj 164 354 outlet~;
#X connect 0 0 34 0;
#X connect 1 0 14 0;
#X connect 3 0 26 0;
#X connect 5 0 14 2;
#X connect 8 0 23 0;
#X connect 9 0 24 0;
#X connect 11 0 29 0;
#X connect 13 0 15 0;
#X connect 14 0 6 0;
#X connect 14 1 0 0;
#X connect 15 0 1 1;
#X connect 15 1 16 1;
#X connect 16 0 35 0;
#X connect 17 0 1 0;
#X connect 18 0 17 0;
#X connect 19 0 13 0;
#X connect 20 0 19 0;
#X connect 22 0 1 0;
#X connect 25 0 13 0;
#X connect 27 0 5 0;
#X connect 28 0 34 1;
#X connect 30 0 31 0;
#X connect 33 0 14 0;
#X connect 34 0 2 0;
#X connect 34 0 16 0;
#X connect 35 0 36 0;
