#N canvas 262 58 512 369 10;
#X obj 228 135 t f f f f;
#X obj 241 212 +;
#X obj 256 190 / 10;
#X obj 299 212 +;
#X obj 359 212 +;
#X obj 314 190 / 11;
#X obj 374 190 / 13;
#X obj 193 211 +;
#X obj 188 161 t f f f f;
#X obj 309 271 metro;
#X obj 393 273 metro;
#X obj 37 261 metro;
#X obj 146 264 metro;
#X obj 27 0 inlet;
#X obj 19 304 outlet;
#X obj 132 301 outlet;
#X obj 253 310 outlet;
#X obj 370 307 outlet;
#X obj 64 305 outlet;
#X obj 175 301 outlet;
#X obj 413 307 outlet;
#X obj 298 310 outlet;
#X obj 228 116 + \$1;
#X obj 228 96 random \$2;
#X obj 158 50 hcj.lib.randmetro \$3 \$4;
#X obj 351 44 inlet;
#X obj 347 66 t b f;
#X obj 443 29 inlet;
#X obj 436 53 t b f;
#X obj 490 28 inlet;
#X connect 0 0 8 0;
#X connect 0 1 2 0;
#X connect 0 2 5 0;
#X connect 0 3 6 0;
#X connect 1 0 12 1;
#X connect 1 0 19 0;
#X connect 2 0 1 1;
#X connect 3 0 9 1;
#X connect 3 0 21 0;
#X connect 4 0 10 1;
#X connect 4 0 20 0;
#X connect 5 0 3 1;
#X connect 6 0 4 1;
#X connect 7 0 11 1;
#X connect 7 0 18 0;
#X connect 8 0 7 0;
#X connect 8 1 1 0;
#X connect 8 2 3 0;
#X connect 8 3 4 0;
#X connect 9 0 16 0;
#X connect 10 0 17 0;
#X connect 11 0 14 0;
#X connect 12 0 15 0;
#X connect 13 0 10 0;
#X connect 13 0 9 0;
#X connect 13 0 12 0;
#X connect 13 0 11 0;
#X connect 22 0 0 0;
#X connect 23 0 22 0;
#X connect 24 0 23 0;
#X connect 25 0 26 0;
#X connect 26 0 23 0;
#X connect 26 1 23 1;
#X connect 27 0 28 0;
#X connect 28 0 23 0;
#X connect 28 1 22 1;
#X connect 29 0 24 0;
