#N canvas 0 0 450 300 10;
#X obj 100 198 metro 500;
#X obj 178 148 * 0.3;
#X obj 205 127 * 0.3;
#X obj 163 176 +;
#X obj 151 113 t f f;
#X obj 100 225 outlet;
#X obj 73 136 inlet;
#X obj 194 59 inlet;
#X obj 151 81 float \$1;
#X obj 172 226 outlet;
#X obj 205 108 hcj.lib.lfo sine.txt 21 \$2;
#X connect 0 0 5 0;
#X connect 0 0 8 0;
#X connect 1 0 3 1;
#X connect 2 0 1 1;
#X connect 3 0 0 1;
#X connect 3 0 9 0;
#X connect 4 0 3 0;
#X connect 4 1 1 0;
#X connect 6 0 0 0;
#X connect 7 0 8 1;
#X connect 8 0 4 0;
#X connect 10 0 2 0;
