#N canvas 1170 98 450 300 10;
#X obj 71 92 snapshot~;
#X obj 85 72 metro 10;
#X obj 84 25 loadbang;
#X msg 85 48 1;
#X obj 31 48 inlet~;
#X obj 71 118 outlet;
#X connect 0 0 5 0;
#X connect 1 0 0 0;
#X connect 2 0 3 0;
#X connect 3 0 1 0;
#X connect 4 0 0 0;
