#N canvas 531 50 457 220 10;
#X msg 87 148 \; \$1 sinesum 512 \$2 \$3 \$4 \$5 \$6 \$7 \$8 \$9 \$10
\$11 \$12 \$13 \$14 \$15 \$16 \$17 \;;
#X obj 37 101 symbol \$1;
#X obj 37 79 inlet;
#X text 37 61 bang: generate;
#X obj 169 85 route 1 2 3 4 5 6 7 8 9 10 11 12 13 14 15 16;
#X obj 169 66 inlet;
#X text 167 49 list: partial \, amplitude;
#X text 15 19 args: table name;
#X obj 87 129 pack s 1 0 0 0 0 0 0 0 0 0 0 0 0 0 0 0;
#X connect 1 0 8 0;
#X connect 2 0 1 0;
#X connect 4 0 8 1;
#X connect 4 1 8 2;
#X connect 4 2 8 3;
#X connect 4 3 8 4;
#X connect 4 4 8 5;
#X connect 4 5 8 6;
#X connect 4 6 8 7;
#X connect 4 7 8 8;
#X connect 4 8 8 9;
#X connect 4 9 8 10;
#X connect 4 10 8 11;
#X connect 4 11 8 12;
#X connect 4 12 8 13;
#X connect 4 13 8 14;
#X connect 4 14 8 15;
#X connect 4 15 8 16;
#X connect 5 0 4 0;
#X connect 8 0 0 0;
