#N canvas 574 87 594 734 10;
#X text 14 9 wrapper for my touchosc setup;
#X obj 17 54 unpackOSC;
#X obj 17 74 s osc;
#X text 60 75 one at a time;
#X obj 47 799 print;
#X obj 48 779 r osc;
#X text 236 91 page 1 faders 1 - 6;
#X text 260 744 page 3 faders;
#X text 258 855 page 3 buttons;
#X text 49 760 debug;
#X obj 17 33 udpreceive \$1;
#X text 237 437 page 2 faders 1 - 6;
#X obj 198 112 hcj.lib.oscroute /1/fader3 tf1-1;
#X obj 198 131 hcj.lib.oscroute /1/fader4 tf1-2;
#X obj 198 150 hcj.lib.oscroute /1/fader5 tf1-3;
#X obj 198 169 hcj.lib.oscroute /1/fader6 tf1-4;
#X obj 198 188 hcj.lib.oscroute /1/fader7 tf1-5;
#X obj 198 207 hcj.lib.oscroute /1/fader8 tf1-6;
#X obj 200 461 hcj.lib.oscroute /2/fader1 tf2-1;
#X obj 200 480 hcj.lib.oscroute /2/fader4 tf2-2;
#X obj 200 499 hcj.lib.oscroute /2/fader2 tf2-3;
#X obj 200 518 hcj.lib.oscroute /2/fader3 tf2-4;
#X obj 200 537 hcj.lib.oscroute /2/fader5 tf2-5;
#X obj 200 556 hcj.lib.oscroute /2/fader6 tf2-6;
#X obj 87 275 hcj.lib.oscroute /1/toggle1 tb1-1;
#X obj 87 294 hcj.lib.oscroute /1/toggle2 tb1-2;
#X obj 87 313 hcj.lib.oscroute /1/toggle4 tb2-1;
#X obj 87 332 hcj.lib.oscroute /1/toggle3 tb2-2;
#X obj 87 351 hcj.lib.oscroute /1/toggle6 tb3-1;
#X obj 87 370 hcj.lib.oscroute /1/toggle5 tb3-2;
#X obj 307 275 hcj.lib.oscroute /1/toggle8 tb4-1;
#X obj 307 294 hcj.lib.oscroute /1/toggle7 tb4-2;
#X obj 307 313 hcj.lib.oscroute /1/toggle10 tb5-1;
#X obj 307 332 hcj.lib.oscroute /1/toggle9 tb5-2;
#X obj 307 351 hcj.lib.oscroute /1/toggle12 tb6-1;
#X obj 307 370 hcj.lib.oscroute /1/toggle11 tb6-2;
#X text 216 249 page 1 toggles 1 - 6 (x2);
#X text 242 592 page 2 knobs 1 - 6;
#X obj 197 612 hcj.lib.oscroute /2/rotary5 tk1;
#X obj 197 631 hcj.lib.oscroute /2/rotary6 tk2;
#X obj 197 650 hcj.lib.oscroute /2/rotary7 tk3;
#X obj 197 669 hcj.lib.oscroute /2/rotary8 tk4;
#X obj 197 688 hcj.lib.oscroute /2/rotary9 tk5;
#X obj 197 707 hcj.lib.oscroute /2/rotary10 tk6;
#X obj 205 773 hcj.lib.oscroute /3/fader9 tf3-1;
#X obj 205 792 hcj.lib.oscroute /3/fader10 tf3-2;
#X obj 205 811 hcj.lib.oscroute /3/fader7 tf3-3;
#X obj 208 877 hcj.lib.oscroute /3/toggle2 tb3-1;
#X obj 208 896 hcj.lib.oscroute /3/toggle3 tb3-2;
#X obj 208 915 hcj.lib.oscroute /3/toggle4 tb3-3;
#X obj 208 934 hcj.lib.oscroute /3/toggle13 tb3-4;
#X connect 1 0 2 0;
#X connect 5 0 4 0;
#X connect 10 0 1 0;
