#N canvas 441 345 767 392 10;
#X obj 35 275 outlet~;
#X obj 94 232 inlet;
#X obj 35 253 tabread4~ \$1;
#X obj 36 24 inlet;
#X obj 36 207 *~ 159085;
#X obj 36 56 / 3.607;
#X obj 36 185 phasor~;
#X obj 36 163 +~;
#X obj 112 93 osc~ 0.01;
#X obj 112 54 random 100;
#X obj 112 73 / 1000;
#X obj 112 33 loadbang;
#X obj 111 122 *~ 0;
#X obj 184 94 r drone-drift-width;
#X obj 35 114 sig~ 0.5;
#X connect 1 0 2 0;
#X connect 2 0 0 0;
#X connect 3 0 5 0;
#X connect 4 0 2 0;
#X connect 5 0 14 0;
#X connect 6 0 4 0;
#X connect 7 0 6 0;
#X connect 8 0 12 0;
#X connect 9 0 10 0;
#X connect 10 0 8 0;
#X connect 11 0 9 0;
#X connect 12 0 7 1;
#X connect 13 0 12 1;
#X connect 14 0 7 0;
